<svg xmlns="http://www.w3.org/2000/svg" xmlns:xlink="http://www.w3.org/1999/xlink" width="969" zoomAndPan="magnify" viewBox="0 0 969 351" height="351" preserveAspectRatio="xMidYMid meet" version="1.0"><defs><g/><clipPath id="id1"><path d="M 121.527344 128 L 172 128 L 172 212.972656 L 121.527344 212.972656 Z M 121.527344 128 " clip-rule="nonzero"/></clipPath><clipPath id="id2"><path d="M 203 128 L 254.277344 128 L 254.277344 212.972656 L 203 212.972656 Z M 203 128 " clip-rule="nonzero"/></clipPath><clipPath id="id3"><path d="M 151 104.972656 L 225 104.972656 L 225 211 L 151 211 Z M 151 104.972656 " clip-rule="nonzero"/></clipPath></defs><g clip-path="url(#id1)"><path fill="rgb(7.839966%, 36.468506%, 62.748718%)" d="M 129.042969 188.097656 L 129.023438 128.769531 C 126.726562 128.359375 124.25 128.117188 121.535156 128.117188 L 121.535156 194.546875 C 121.535156 194.546875 151.617188 198.0625 171.859375 212.96875 C 162.503906 202.242188 148.535156 193.339844 129.042969 188.097656 " fill-opacity="1" fill-rule="nonzero"/></g><path fill="rgb(33.729553%, 68.238831%, 100%)" d="M 144.222656 175.117188 L 144.175781 119.863281 C 141.835938 118.726562 139.296875 117.730469 136.511719 116.929688 L 136.511719 183.363281 C 136.511719 183.363281 160.867188 189.808594 177.578125 208.78125 C 169.902344 195.757812 159.039062 182.585938 144.222656 175.117188 " fill-opacity="1" fill-rule="nonzero"/><g clip-path="url(#id2)"><path fill="rgb(7.839966%, 36.468506%, 62.748718%)" d="M 246.761719 188.097656 L 246.78125 128.769531 C 249.078125 128.359375 251.550781 128.117188 254.265625 128.117188 L 254.265625 194.546875 C 254.265625 194.546875 224.1875 198.0625 203.945312 212.96875 C 213.296875 202.242188 227.269531 193.339844 246.761719 188.097656 " fill-opacity="1" fill-rule="nonzero"/></g><path fill="rgb(33.729553%, 68.238831%, 100%)" d="M 231.578125 175.117188 L 231.625 119.863281 C 233.964844 118.726562 236.507812 117.730469 239.292969 116.929688 L 239.292969 183.363281 C 239.292969 183.363281 214.9375 189.808594 198.226562 208.78125 C 205.898438 195.757812 216.761719 182.585938 231.578125 175.117188 " fill-opacity="1" fill-rule="nonzero"/><g clip-path="url(#id3)"><path fill="rgb(100%, 50.979614%, 6.269836%)" d="M 187.902344 142.445312 C 187.902344 142.445312 177.960938 121.679688 151.664062 104.976562 L 151.664062 171.40625 C 151.664062 171.40625 171.339844 184.328125 186.699219 210.09375 L 186.699219 175.167969 C 184.625 174.707031 183.085938 172.464844 183.085938 170.539062 C 183.085938 168.253906 185.242188 165.761719 187.902344 165.761719 C 190.558594 165.761719 192.714844 168.253906 192.714844 170.539062 C 192.714844 172.464844 191.175781 174.707031 189.105469 175.167969 L 189.105469 210.09375 C 204.464844 184.328125 224.136719 171.40625 224.136719 171.40625 L 224.136719 104.976562 C 197.839844 121.679688 187.902344 142.445312 187.902344 142.445312 " fill-opacity="1" fill-rule="nonzero"/></g><g fill="rgb(36.859131%, 9.01947%, 92.158508%)" fill-opacity="1"><g transform="translate(152.53984, 265.428352)"><g><path d="M 7.203125 -6.59375 L 5.328125 -6.59375 L 5.328125 -5.25 C 5.453125 -5.21875 5.554688 -5.179688 5.640625 -5.140625 C 5.722656 -5.109375 5.773438 -5.082031 5.796875 -5.0625 L 5.796875 -4.265625 C 5.253906 -4.453125 4.691406 -4.546875 4.109375 -4.546875 C 3.703125 -4.546875 3.265625 -4.460938 2.796875 -4.296875 C 2.328125 -4.128906 2.085938 -3.875 2.078125 -3.53125 C 2.078125 -3.164062 2.59375 -2.984375 3.625 -2.984375 C 3.707031 -2.984375 3.851562 -2.988281 4.0625 -3 C 4.269531 -3.007812 4.410156 -3.015625 4.484375 -3.015625 L 4.484375 -2.390625 C 4.148438 -2.378906 3.769531 -2.359375 3.34375 -2.328125 C 2.914062 -2.304688 2.53125 -2.222656 2.1875 -2.078125 C 1.851562 -1.941406 1.6875 -1.71875 1.6875 -1.40625 C 1.6875 -1.132812 1.84375 -0.914062 2.15625 -0.75 C 2.46875 -0.582031 2.816406 -0.5 3.203125 -0.5 C 3.992188 -0.5 4.6875 -0.679688 5.28125 -1.046875 C 5.882812 -1.410156 6.390625 -1.882812 6.796875 -2.46875 L 6.796875 -0.75 C 6.316406 -0.4375 5.847656 -0.234375 5.390625 -0.140625 C 4.941406 -0.046875 4.484375 0 4.015625 0 C 3.554688 0 3.035156 -0.0664062 2.453125 -0.203125 C 1.878906 -0.347656 1.382812 -0.550781 0.96875 -0.8125 C 0.5625 -1.070312 0.359375 -1.375 0.359375 -1.71875 C 0.359375 -2.070312 0.488281 -2.347656 0.75 -2.546875 C 1.019531 -2.753906 1.332031 -2.941406 1.6875 -3.109375 C 1.5 -3.210938 1.34375 -3.296875 1.21875 -3.359375 C 1.101562 -3.429688 1.007812 -3.515625 0.9375 -3.609375 C 0.863281 -3.710938 0.828125 -3.84375 0.828125 -4 C 0.828125 -4.289062 0.945312 -4.535156 1.1875 -4.734375 C 1.4375 -4.941406 1.742188 -5.097656 2.109375 -5.203125 C 2.472656 -5.304688 2.84375 -5.378906 3.21875 -5.421875 C 3.59375 -5.460938 3.945312 -5.484375 4.28125 -5.484375 L 4.28125 -6.59375 L -0.09375 -6.59375 L -0.09375 -7.421875 L 7.203125 -7.421875 Z M 7.203125 -6.59375 "/></g></g></g><g fill="rgb(36.859131%, 9.01947%, 92.158508%)" fill-opacity="1"><g transform="translate(161.045249, 265.428352)"><g><path d="M 7.875 -6.59375 L 6.96875 -6.59375 L 6.953125 0.078125 L 5.71875 -0.453125 L 5.71875 -1.421875 C 5.351562 -0.953125 5 -0.597656 4.65625 -0.359375 C 4.320312 -0.117188 3.953125 0 3.546875 0 C 3.140625 0 2.6875 -0.15625 2.1875 -0.46875 C 1.695312 -0.789062 1.273438 -1.203125 0.921875 -1.703125 C 0.578125 -2.203125 0.40625 -2.695312 0.40625 -3.1875 C 0.414062 -3.375 0.476562 -3.601562 0.59375 -3.875 C 0.71875 -4.15625 0.894531 -4.4375 1.125 -4.71875 C 1.363281 -5.007812 1.648438 -5.25 1.984375 -5.4375 C 2.316406 -5.625 2.6875 -5.71875 3.09375 -5.71875 C 3.570312 -5.71875 3.976562 -5.570312 4.3125 -5.28125 C 4.65625 -5 5.125 -4.539062 5.71875 -3.90625 L 5.71875 -6.59375 L -0.140625 -6.59375 L -0.140625 -7.421875 L 5.71875 -7.421875 C 5.71875 -7.898438 5.703125 -8.296875 5.671875 -8.609375 C 5.648438 -8.921875 5.582031 -9.257812 5.46875 -9.625 C 5.363281 -10 5.179688 -10.421875 4.921875 -10.890625 C 4.671875 -11.359375 4.328125 -11.882812 3.890625 -12.46875 C 3.867188 -12.46875 3.859375 -12.503906 3.859375 -12.578125 C 3.859375 -12.628906 3.875 -12.664062 3.90625 -12.6875 L 5.203125 -12.6875 C 5.640625 -12.207031 6.039062 -11.566406 6.40625 -10.765625 C 6.78125 -9.972656 6.96875 -8.859375 6.96875 -7.421875 L 7.875 -7.421875 Z M 5.390625 -3.484375 C 5.390625 -3.773438 5.222656 -4.054688 4.890625 -4.328125 C 4.566406 -4.609375 4.175781 -4.75 3.71875 -4.75 C 3.550781 -4.75 3.273438 -4.65625 2.890625 -4.46875 C 2.503906 -4.289062 2.148438 -4.019531 1.828125 -3.65625 C 1.515625 -3.300781 1.359375 -2.878906 1.359375 -2.390625 C 1.359375 -1.921875 1.488281 -1.535156 1.75 -1.234375 C 2.019531 -0.941406 2.320312 -0.796875 2.65625 -0.796875 C 3.050781 -0.796875 3.460938 -0.960938 3.890625 -1.296875 C 4.316406 -1.628906 4.671875 -2.007812 4.953125 -2.4375 C 5.242188 -2.875 5.390625 -3.222656 5.390625 -3.484375 Z M 5.390625 -3.484375 "/></g></g></g><g fill="rgb(36.859131%, 9.01947%, 92.158508%)" fill-opacity="1"><g transform="translate(170.19971, 265.428352)"><g><path d="M 7.65625 -6.59375 L 1.9375 -6.59375 L 1.9375 -2.21875 C 1.945312 -1.894531 2.003906 -1.585938 2.109375 -1.296875 C 2.222656 -1.015625 2.382812 -0.785156 2.59375 -0.609375 C 2.8125 -0.441406 3.066406 -0.359375 3.359375 -0.359375 C 3.785156 -0.359375 4.144531 -0.453125 4.4375 -0.640625 C 4.738281 -0.835938 4.972656 -1.070312 5.140625 -1.34375 C 5.304688 -1.613281 5.425781 -1.875 5.5 -2.125 C 5.570312 -2.382812 5.609375 -2.59375 5.609375 -2.75 L 5.609375 -5.46875 L 7 -5.46875 L 7 0.34375 C 6.90625 0.289062 6.695312 0.191406 6.375 0.046875 C 6.0625 -0.0859375 5.800781 -0.203125 5.59375 -0.296875 L 5.59375 -0.84375 C 5.363281 -0.664062 5.132812 -0.507812 4.90625 -0.375 C 4.6875 -0.25 4.457031 -0.15625 4.21875 -0.09375 C 3.976562 -0.03125 3.703125 0 3.390625 0 C 2.929688 0 2.488281 -0.117188 2.0625 -0.359375 C 1.632812 -0.597656 1.285156 -0.921875 1.015625 -1.328125 C 0.753906 -1.734375 0.625 -2.175781 0.625 -2.65625 L 0.625 -6.59375 L -0.203125 -6.59375 L -0.203125 -7.421875 L 7.65625 -7.421875 Z M 7.65625 -6.59375 "/></g></g></g><g fill="rgb(32.159424%, 44.309998%, 100%)" fill-opacity="1"><g transform="translate(179.188279, 265.428352)"><g><path d="M 7.234375 -6.59375 L 5.8125 -6.59375 L 5.8125 -4.6875 C 6.101562 -4.414062 6.296875 -4.222656 6.390625 -4.109375 C 6.484375 -3.992188 6.585938 -3.78125 6.703125 -3.46875 L 5.796875 -3.46875 C 5.796875 -4 5.644531 -4.394531 5.34375 -4.65625 C 5.050781 -4.914062 4.675781 -5.046875 4.21875 -5.046875 C 3.675781 -5.046875 3.179688 -4.898438 2.734375 -4.609375 C 2.296875 -4.316406 1.953125 -3.945312 1.703125 -3.5 C 1.453125 -3.0625 1.328125 -2.640625 1.328125 -2.234375 C 1.328125 -1.972656 1.382812 -1.734375 1.5 -1.515625 C 1.625 -1.296875 1.816406 -1.113281 2.078125 -0.96875 C 2.335938 -0.832031 2.671875 -0.765625 3.078125 -0.765625 C 3.609375 -0.765625 4.015625 -0.851562 4.296875 -1.03125 C 4.578125 -1.207031 4.757812 -1.351562 4.84375 -1.46875 L 6.296875 -1.46875 C 6.242188 -1.25 6.09375 -1.023438 5.84375 -0.796875 C 5.59375 -0.566406 5.289062 -0.375 4.9375 -0.21875 C 4.582031 -0.0703125 4.257812 0 3.96875 0 C 3.394531 0 2.8125 -0.160156 2.21875 -0.484375 C 1.632812 -0.804688 1.15625 -1.210938 0.78125 -1.703125 C 0.40625 -2.203125 0.21875 -2.691406 0.21875 -3.171875 C 0.21875 -3.453125 0.34375 -3.804688 0.59375 -4.234375 C 0.84375 -4.671875 1.191406 -5.050781 1.640625 -5.375 C 2.097656 -5.695312 2.613281 -5.859375 3.1875 -5.859375 C 3.5625 -5.859375 3.878906 -5.8125 4.140625 -5.71875 C 4.410156 -5.625 4.601562 -5.539062 4.71875 -5.46875 L 4.71875 -6.59375 L -0.109375 -6.59375 L -0.109375 -7.421875 L 7.234375 -7.421875 Z M 7.234375 -6.59375 "/></g></g></g><g fill="rgb(32.159424%, 44.309998%, 100%)" fill-opacity="1"><g transform="translate(187.721017, 265.428352)"><g><path d="M 6.671875 -6.59375 L 2.125 -6.59375 L 2.125 -5.5 C 2.144531 -5.5 2.160156 -5.488281 2.171875 -5.46875 C 2.191406 -5.457031 2.210938 -5.453125 2.234375 -5.453125 C 2.222656 -5.453125 2.3125 -5.476562 2.5 -5.53125 C 2.695312 -5.582031 2.921875 -5.628906 3.171875 -5.671875 C 3.429688 -5.722656 3.6875 -5.75 3.9375 -5.75 C 4.476562 -5.75 4.90625 -5.671875 5.21875 -5.515625 C 5.53125 -5.367188 5.753906 -5.15625 5.890625 -4.875 C 6.035156 -4.601562 6.125 -4.296875 6.15625 -3.953125 C 6.1875 -3.617188 6.203125 -3.15625 6.203125 -2.5625 L 6.203125 0.0625 C 5.847656 -0.0703125 5.597656 -0.171875 5.453125 -0.234375 C 5.304688 -0.296875 5.191406 -0.34375 5.109375 -0.375 C 5.109375 -0.519531 5.082031 -0.613281 5.03125 -0.65625 C 4.875 -0.570312 4.703125 -0.476562 4.515625 -0.375 C 4.328125 -0.269531 4.082031 -0.175781 3.78125 -0.09375 C 3.488281 -0.0195312 3.132812 0.015625 2.71875 0.015625 C 2.320312 0.015625 1.929688 -0.0546875 1.546875 -0.203125 C 1.171875 -0.347656 0.863281 -0.554688 0.625 -0.828125 C 0.394531 -1.097656 0.28125 -1.40625 0.28125 -1.75 C 0.28125 -2.070312 0.425781 -2.40625 0.71875 -2.75 C 1.019531 -3.101562 1.414062 -3.394531 1.90625 -3.625 C 2.40625 -3.851562 2.953125 -3.96875 3.546875 -3.96875 C 3.859375 -3.96875 4.160156 -3.921875 4.453125 -3.828125 C 4.742188 -3.734375 4.960938 -3.628906 5.109375 -3.515625 L 5.109375 -4.140625 C 4.921875 -4.390625 4.738281 -4.554688 4.5625 -4.640625 C 4.394531 -4.722656 4.125 -4.765625 3.75 -4.765625 C 3.269531 -4.753906 2.890625 -4.71875 2.609375 -4.65625 C 2.335938 -4.59375 2.046875 -4.492188 1.734375 -4.359375 C 1.421875 -4.234375 1.15625 -4.132812 0.9375 -4.0625 L 0.9375 -4.5625 C 0.96875 -4.59375 1.007812 -4.632812 1.0625 -4.6875 C 1.125 -4.738281 1.164062 -4.773438 1.1875 -4.796875 C 1.207031 -4.816406 1.222656 -4.828125 1.234375 -4.828125 L 1.234375 -6.59375 L -0.171875 -6.59375 L -0.171875 -7.421875 L 6.671875 -7.421875 Z M 5.109375 -2.265625 C 5.109375 -2.472656 4.875 -2.648438 4.40625 -2.796875 C 3.9375 -2.941406 3.601562 -3.015625 3.40625 -3.015625 C 2.90625 -3.015625 2.453125 -2.910156 2.046875 -2.703125 C 1.640625 -2.492188 1.320312 -2.25 1.09375 -1.96875 C 0.863281 -1.6875 0.75 -1.457031 0.75 -1.28125 C 0.800781 -1.09375 0.9375 -0.960938 1.15625 -0.890625 C 1.382812 -0.816406 1.625 -0.78125 1.875 -0.78125 C 2.34375 -0.78125 2.769531 -0.84375 3.15625 -0.96875 C 3.550781 -1.09375 3.894531 -1.242188 4.1875 -1.421875 C 4.488281 -1.597656 4.71875 -1.769531 4.875 -1.9375 C 5.03125 -2.101562 5.109375 -2.210938 5.109375 -2.265625 Z M 5.109375 -2.265625 "/></g></g></g><g fill="rgb(32.159424%, 44.309998%, 100%)" fill-opacity="1"><g transform="translate(195.768674, 265.428352)"><g><path d="M 6.046875 -6.59375 L 2.59375 -6.59375 L 2.59375 -1.09375 C 2.59375 -0.9375 2.644531 -0.78125 2.75 -0.625 C 2.863281 -0.476562 2.988281 -0.40625 3.125 -0.40625 C 3.800781 -0.40625 4.140625 -1.109375 4.140625 -2.515625 L 5.515625 -1.71875 C 5.296875 -1.226562 4.992188 -0.816406 4.609375 -0.484375 C 4.222656 -0.148438 3.710938 0.015625 3.078125 0.015625 C 2.765625 0.00390625 2.476562 -0.078125 2.21875 -0.234375 C 1.957031 -0.398438 1.75 -0.609375 1.59375 -0.859375 C 1.4375 -1.109375 1.359375 -1.359375 1.359375 -1.609375 L 1.359375 -6.59375 L -0.0625 -6.59375 L -0.0625 -7.421875 L 1.359375 -7.421875 L 1.359375 -9.71875 L 2.59375 -8.859375 L 2.59375 -7.421875 L 6.046875 -7.421875 Z M 6.046875 -6.59375 "/></g></g></g><g fill="rgb(32.159424%, 44.309998%, 100%)" fill-opacity="1"><g transform="translate(203.126288, 265.428352)"><g><path d="M 2.3125 -8.140625 C 2.289062 -8.117188 2.238281 -8.109375 2.15625 -8.109375 C 2.082031 -8.109375 2.019531 -8.117188 1.96875 -8.140625 C 1.632812 -8.773438 1.421875 -9.164062 1.328125 -9.3125 C 1.234375 -9.445312 1.109375 -9.535156 0.953125 -9.578125 C 0.796875 -9.617188 0.648438 -9.65625 0.515625 -9.6875 C 0.390625 -9.726562 0.285156 -9.820312 0.203125 -9.96875 C 0.179688 -10 0.144531 -10.101562 0.09375 -10.28125 C 0.0390625 -10.46875 -0.0546875 -10.6875 -0.203125 -10.9375 L -0.203125 -11.09375 L 0.0625 -11.09375 C 0.601562 -10.925781 0.984375 -10.773438 1.203125 -10.640625 C 1.421875 -10.503906 1.5625 -10.375 1.625 -10.25 C 1.6875 -10.125 1.773438 -9.863281 1.890625 -9.46875 C 2.003906 -9.082031 2.140625 -8.734375 2.296875 -8.421875 C 2.296875 -8.390625 2.296875 -8.351562 2.296875 -8.3125 C 2.304688 -8.28125 2.3125 -8.222656 2.3125 -8.140625 Z M 2.71875 -6.59375 L -0.0625 -6.59375 L -0.0625 -7.421875 L 2.71875 -7.421875 Z M 1.9375 0.15625 L 0.78125 -0.484375 L 0.78125 -5.75 L 1.9375 -5.75 Z M 1.9375 0.15625 "/></g></g></g><g fill="rgb(32.159424%, 44.309998%, 100%)" fill-opacity="1"><g transform="translate(207.183985, 265.428352)"><g><path d="M 7.296875 -6.59375 L 5.75 -6.59375 L 5.75 -4.71875 C 5.75 -4.675781 5.8125 -4.59375 5.9375 -4.46875 C 6.070312 -4.351562 6.191406 -4.234375 6.296875 -4.109375 C 6.398438 -3.984375 6.492188 -3.796875 6.578125 -3.546875 C 6.671875 -3.304688 6.71875 -3.007812 6.71875 -2.65625 C 6.71875 -2.175781 6.59375 -1.726562 6.34375 -1.3125 C 6.101562 -0.894531 5.765625 -0.566406 5.328125 -0.328125 C 4.898438 -0.0976562 4.425781 0.015625 3.90625 0.015625 C 3.5625 0.015625 3.179688 -0.0703125 2.765625 -0.25 C 2.347656 -0.425781 1.953125 -0.664062 1.578125 -0.96875 C 1.210938 -1.28125 0.914062 -1.628906 0.6875 -2.015625 C 0.457031 -2.410156 0.34375 -2.816406 0.34375 -3.234375 C 0.34375 -3.535156 0.453125 -3.878906 0.671875 -4.265625 C 0.890625 -4.660156 1.207031 -5 1.625 -5.28125 C 2.039062 -5.570312 2.535156 -5.71875 3.109375 -5.71875 C 3.429688 -5.71875 3.90625 -5.632812 4.53125 -5.46875 C 4.550781 -5.46875 4.5625 -5.484375 4.5625 -5.515625 L 4.5625 -6.59375 L -0.125 -6.59375 L -0.125 -7.421875 L 7.296875 -7.421875 Z M 5.71875 -3.5625 C 5.71875 -3.914062 5.628906 -4.195312 5.453125 -4.40625 C 5.273438 -4.625 5.078125 -4.773438 4.859375 -4.859375 C 4.648438 -4.941406 4.472656 -4.984375 4.328125 -4.984375 C 4.109375 -4.984375 3.832031 -4.921875 3.5 -4.796875 C 3.164062 -4.671875 2.832031 -4.476562 2.5 -4.21875 C 2.175781 -3.96875 1.90625 -3.648438 1.6875 -3.265625 C 1.46875 -2.878906 1.359375 -2.445312 1.359375 -1.96875 C 1.359375 -1.757812 1.425781 -1.5625 1.5625 -1.375 C 1.695312 -1.1875 1.875 -1.03125 2.09375 -0.90625 C 2.3125 -0.78125 2.539062 -0.71875 2.78125 -0.71875 C 3.007812 -0.71875 3.296875 -0.789062 3.640625 -0.9375 C 3.984375 -1.082031 4.3125 -1.28125 4.625 -1.53125 C 4.9375 -1.789062 5.195312 -2.09375 5.40625 -2.4375 C 5.613281 -2.78125 5.71875 -3.15625 5.71875 -3.5625 Z M 5.71875 -3.5625 "/></g></g></g><g fill="rgb(32.159424%, 44.309998%, 100%)" fill-opacity="1"><g transform="translate(215.750883, 265.428352)"><g><path d="M 7.28125 -6.59375 L -0.0625 -6.59375 L -0.0625 -7.421875 L 7.28125 -7.421875 Z M 5.8125 -3.59375 C 5.8125 -4.6875 5.296875 -5.234375 4.265625 -5.234375 C 3.960938 -5.234375 3.648438 -5.144531 3.328125 -4.96875 C 3.015625 -4.789062 2.734375 -4.546875 2.484375 -4.234375 C 2.234375 -3.921875 2.03125 -3.546875 1.875 -3.109375 C 1.726562 -2.679688 1.65625 -2.234375 1.65625 -1.765625 L 1.65625 0.21875 L 0.53125 -0.359375 L 0.53125 -5.5 L 1.703125 -5.5 L 1.703125 -4.6875 C 1.804688 -4.757812 1.96875 -4.878906 2.1875 -5.046875 C 2.40625 -5.222656 2.671875 -5.382812 2.984375 -5.53125 C 3.304688 -5.675781 3.648438 -5.75 4.015625 -5.75 C 4.378906 -5.75 4.726562 -5.671875 5.0625 -5.515625 C 5.394531 -5.367188 5.691406 -5.15625 5.953125 -4.875 C 6.210938 -4.59375 6.414062 -4.265625 6.5625 -3.890625 C 6.707031 -3.515625 6.78125 -3.113281 6.78125 -2.6875 C 6.78125 -2.207031 6.675781 -1.710938 6.46875 -1.203125 C 6.257812 -0.703125 5.925781 -0.203125 5.46875 0.296875 L 4.15625 -0.53125 C 4.238281 -0.644531 4.390625 -0.804688 4.609375 -1.015625 C 4.835938 -1.222656 5.035156 -1.429688 5.203125 -1.640625 C 5.367188 -1.859375 5.507812 -2.128906 5.625 -2.453125 C 5.75 -2.773438 5.8125 -3.15625 5.8125 -3.59375 Z M 5.8125 -3.59375 "/></g></g></g><g fill="rgb(12.939453%, 16.079712%, 19.60907%)" fill-opacity="1"><g transform="translate(97.054686, 244.678359)"><g><path d="M 4.296875 -15.109375 C 4.253906 -15.078125 4.15625 -15.0625 4 -15.0625 C 3.863281 -15.0625 3.742188 -15.078125 3.640625 -15.109375 C 3.035156 -16.296875 2.644531 -17.023438 2.46875 -17.296875 C 2.289062 -17.546875 2.054688 -17.707031 1.765625 -17.78125 C 1.484375 -17.863281 1.21875 -17.9375 0.96875 -18 C 0.71875 -18.070312 0.519531 -18.242188 0.375 -18.515625 C 0.332031 -18.566406 0.265625 -18.757812 0.171875 -19.09375 C 0.078125 -19.4375 -0.101562 -19.835938 -0.375 -20.296875 L -0.375 -20.59375 L 0.125 -20.59375 C 1.113281 -20.289062 1.816406 -20.015625 2.234375 -19.765625 C 2.648438 -19.515625 2.914062 -19.269531 3.03125 -19.03125 C 3.144531 -18.800781 3.304688 -18.320312 3.515625 -17.59375 C 3.722656 -16.875 3.972656 -16.226562 4.265625 -15.65625 C 4.273438 -15.582031 4.28125 -15.507812 4.28125 -15.4375 C 4.289062 -15.375 4.296875 -15.265625 4.296875 -15.109375 Z M 5.046875 -12.25 L -0.125 -12.25 L -0.125 -13.78125 L 5.046875 -13.78125 Z M 3.59375 0.296875 L 1.453125 -0.890625 L 1.453125 -10.6875 L 3.59375 -10.6875 Z M 3.59375 0.296875 "/></g></g></g><g fill="rgb(12.939453%, 16.079712%, 19.60907%)" fill-opacity="1"><g transform="translate(101.991678, 244.678359)"><g><path d="M 13.515625 -12.25 L -0.125 -12.25 L -0.125 -13.78125 L 13.515625 -13.78125 Z M 10.796875 -6.671875 C 10.796875 -8.703125 9.832031 -9.71875 7.90625 -9.71875 C 7.351562 -9.71875 6.78125 -9.550781 6.1875 -9.21875 C 5.601562 -8.894531 5.078125 -8.441406 4.609375 -7.859375 C 4.148438 -7.273438 3.78125 -6.582031 3.5 -5.78125 C 3.21875 -4.976562 3.078125 -4.144531 3.078125 -3.28125 L 3.078125 0.421875 L 0.984375 -0.671875 L 0.984375 -10.21875 L 3.171875 -10.21875 L 3.171875 -8.703125 C 3.347656 -8.835938 3.640625 -9.066406 4.046875 -9.390625 C 4.460938 -9.710938 4.960938 -10.007812 5.546875 -10.28125 C 6.140625 -10.550781 6.78125 -10.6875 7.46875 -10.6875 C 8.132812 -10.6875 8.773438 -10.539062 9.390625 -10.25 C 10.015625 -9.96875 10.566406 -9.566406 11.046875 -9.046875 C 11.523438 -8.535156 11.90625 -7.929688 12.1875 -7.234375 C 12.46875 -6.535156 12.609375 -5.785156 12.609375 -4.984375 C 12.609375 -4.085938 12.410156 -3.171875 12.015625 -2.234375 C 11.628906 -1.304688 11.015625 -0.378906 10.171875 0.546875 L 7.71875 -0.984375 C 7.875 -1.191406 8.15625 -1.488281 8.5625 -1.875 C 8.976562 -2.269531 9.34375 -2.664062 9.65625 -3.0625 C 9.96875 -3.46875 10.234375 -3.96875 10.453125 -4.5625 C 10.679688 -5.15625 10.796875 -5.859375 10.796875 -6.671875 Z M 10.796875 -6.671875 "/></g></g></g><g fill="rgb(12.939453%, 16.079712%, 19.60907%)" fill-opacity="1"><g transform="translate(115.305058, 244.678359)"><g><path d="M 12.90625 -12.25 L 11.515625 -12.25 L 11.515625 -7.4375 C 11.023438 -7.726562 10.320312 -7.976562 9.40625 -8.1875 C 8.488281 -8.394531 7.710938 -8.5 7.078125 -8.5 C 6.535156 -8.5 5.894531 -8.4375 5.15625 -8.3125 C 4.414062 -8.195312 3.75 -7.984375 3.15625 -7.671875 C 2.570312 -7.367188 2.28125 -6.960938 2.28125 -6.453125 C 2.28125 -6.234375 2.367188 -6.007812 2.546875 -5.78125 C 2.722656 -5.550781 2.992188 -5.4375 3.359375 -5.4375 C 3.753906 -5.4375 4.328125 -5.570312 5.078125 -5.84375 C 5.835938 -6.125 6.394531 -6.316406 6.75 -6.421875 C 7.113281 -6.523438 7.644531 -6.578125 8.34375 -6.578125 C 8.988281 -6.578125 9.601562 -6.457031 10.1875 -6.21875 C 10.78125 -5.988281 11.253906 -5.65625 11.609375 -5.21875 C 11.960938 -4.78125 12.140625 -4.269531 12.140625 -3.6875 C 12.140625 -3.007812 11.890625 -2.390625 11.390625 -1.828125 C 10.890625 -1.265625 10.289062 -0.820312 9.59375 -0.5 C 8.894531 -0.1875 8.226562 -0.0078125 7.59375 0.03125 C 8.195312 0.632812 8.773438 0.9375 9.328125 0.9375 C 9.503906 0.9375 9.695312 0.910156 9.90625 0.859375 L 11.1875 2.953125 C 11.113281 3.015625 10.945312 3.085938 10.6875 3.171875 C 10.4375 3.253906 10.066406 3.296875 9.578125 3.296875 C 8.867188 3.296875 8.332031 3.097656 7.96875 2.703125 C 7.601562 2.304688 7.226562 1.769531 6.84375 1.09375 C 6.457031 0.414062 6.144531 0.078125 5.90625 0.078125 C 5.269531 0.046875 4.640625 -0.0195312 4.015625 -0.125 C 3.390625 -0.226562 2.8125 -0.441406 2.28125 -0.765625 C 1.75 -1.097656 1.484375 -1.554688 1.484375 -2.140625 C 1.484375 -2.515625 1.613281 -2.785156 1.875 -2.953125 C 2.132812 -3.117188 2.425781 -3.203125 2.75 -3.203125 C 3.15625 -3.203125 3.476562 -3.140625 3.71875 -3.015625 C 3.96875 -2.898438 4.273438 -2.722656 4.640625 -2.484375 C 5.003906 -2.242188 5.363281 -2.054688 5.71875 -1.921875 C 6.082031 -1.796875 6.566406 -1.734375 7.171875 -1.734375 C 7.609375 -1.734375 8.179688 -1.8125 8.890625 -1.96875 C 9.609375 -2.125 10.238281 -2.347656 10.78125 -2.640625 C 11.332031 -2.941406 11.609375 -3.3125 11.609375 -3.75 C 11.609375 -3.976562 11.523438 -4.164062 11.359375 -4.3125 C 11.191406 -4.46875 11 -4.570312 10.78125 -4.625 C 10.5625 -4.675781 10.332031 -4.703125 10.09375 -4.703125 C 9.78125 -4.703125 9.445312 -4.65625 9.09375 -4.5625 C 8.738281 -4.476562 8.054688 -4.300781 7.046875 -4.03125 C 6.046875 -3.757812 5.429688 -3.625 5.203125 -3.625 C 4.617188 -3.625 4.019531 -3.789062 3.40625 -4.125 C 2.789062 -4.457031 2.273438 -4.921875 1.859375 -5.515625 C 1.453125 -6.117188 1.25 -6.773438 1.25 -7.484375 C 1.25 -8.253906 1.535156 -8.878906 2.109375 -9.359375 C 2.679688 -9.835938 3.367188 -10.175781 4.171875 -10.375 C 4.984375 -10.582031 5.742188 -10.6875 6.453125 -10.6875 C 6.921875 -10.6875 7.515625 -10.613281 8.234375 -10.46875 C 8.960938 -10.320312 9.519531 -10.195312 9.90625 -10.09375 L 9.90625 -12.25 L -0.203125 -12.25 L -0.203125 -13.78125 L 12.90625 -13.78125 Z M 12.90625 -12.25 "/></g></g></g><g fill="rgb(12.939453%, 16.079712%, 19.60907%)" fill-opacity="1"><g transform="translate(128.072704, 244.678359)"><g><path d="M 11.234375 -12.25 L 4.8125 -12.25 L 4.8125 -2.03125 C 4.8125 -1.738281 4.914062 -1.453125 5.125 -1.171875 C 5.332031 -0.890625 5.554688 -0.75 5.796875 -0.75 C 7.054688 -0.75 7.6875 -2.050781 7.6875 -4.65625 L 10.25 -3.203125 C 9.832031 -2.273438 9.265625 -1.503906 8.546875 -0.890625 C 7.835938 -0.273438 6.894531 0.03125 5.71875 0.03125 C 5.132812 0.0195312 4.597656 -0.132812 4.109375 -0.4375 C 3.628906 -0.738281 3.242188 -1.125 2.953125 -1.59375 C 2.671875 -2.0625 2.53125 -2.53125 2.53125 -3 L 2.53125 -12.25 L -0.125 -12.25 L -0.125 -13.78125 L 2.53125 -13.78125 L 2.53125 -18.046875 L 4.8125 -16.453125 L 4.8125 -13.78125 L 11.234375 -13.78125 Z M 11.234375 -12.25 "/></g></g></g><g fill="rgb(12.939453%, 16.079712%, 19.60907%)" fill-opacity="1"><g transform="translate(139.13969, 244.678359)"><g><path d="M 4.296875 -15.109375 C 4.253906 -15.078125 4.15625 -15.0625 4 -15.0625 C 3.863281 -15.0625 3.742188 -15.078125 3.640625 -15.109375 C 3.035156 -16.296875 2.644531 -17.023438 2.46875 -17.296875 C 2.289062 -17.546875 2.054688 -17.707031 1.765625 -17.78125 C 1.484375 -17.863281 1.21875 -17.9375 0.96875 -18 C 0.71875 -18.070312 0.519531 -18.242188 0.375 -18.515625 C 0.332031 -18.566406 0.265625 -18.757812 0.171875 -19.09375 C 0.078125 -19.4375 -0.101562 -19.835938 -0.375 -20.296875 L -0.375 -20.59375 L 0.125 -20.59375 C 1.113281 -20.289062 1.816406 -20.015625 2.234375 -19.765625 C 2.648438 -19.515625 2.914062 -19.269531 3.03125 -19.03125 C 3.144531 -18.800781 3.304688 -18.320312 3.515625 -17.59375 C 3.722656 -16.875 3.972656 -16.226562 4.265625 -15.65625 C 4.273438 -15.582031 4.28125 -15.507812 4.28125 -15.4375 C 4.289062 -15.375 4.296875 -15.265625 4.296875 -15.109375 Z M 5.046875 -12.25 L -0.125 -12.25 L -0.125 -13.78125 L 5.046875 -13.78125 Z M 3.59375 0.296875 L 1.453125 -0.890625 L 1.453125 -10.6875 L 3.59375 -10.6875 Z M 3.59375 0.296875 "/></g></g></g><g fill="rgb(12.939453%, 16.079712%, 19.60907%)" fill-opacity="1"><g transform="translate(144.076682, 244.678359)"><g><path d="M 11.234375 -12.25 L 4.8125 -12.25 L 4.8125 -2.03125 C 4.8125 -1.738281 4.914062 -1.453125 5.125 -1.171875 C 5.332031 -0.890625 5.554688 -0.75 5.796875 -0.75 C 7.054688 -0.75 7.6875 -2.050781 7.6875 -4.65625 L 10.25 -3.203125 C 9.832031 -2.273438 9.265625 -1.503906 8.546875 -0.890625 C 7.835938 -0.273438 6.894531 0.03125 5.71875 0.03125 C 5.132812 0.0195312 4.597656 -0.132812 4.109375 -0.4375 C 3.628906 -0.738281 3.242188 -1.125 2.953125 -1.59375 C 2.671875 -2.0625 2.53125 -2.53125 2.53125 -3 L 2.53125 -12.25 L -0.125 -12.25 L -0.125 -13.78125 L 2.53125 -13.78125 L 2.53125 -18.046875 L 4.8125 -16.453125 L 4.8125 -13.78125 L 11.234375 -13.78125 Z M 11.234375 -12.25 "/></g></g></g><g fill="rgb(12.939453%, 16.079712%, 19.60907%)" fill-opacity="1"><g transform="translate(155.143667, 244.678359)"><g><path d="M 14.21875 -12.25 L 3.59375 -12.25 L 3.59375 -4.109375 C 3.613281 -3.515625 3.722656 -2.953125 3.921875 -2.421875 C 4.128906 -1.898438 4.429688 -1.476562 4.828125 -1.15625 C 5.234375 -0.832031 5.707031 -0.671875 6.25 -0.671875 C 7.03125 -0.671875 7.695312 -0.847656 8.25 -1.203125 C 8.800781 -1.554688 9.234375 -1.984375 9.546875 -2.484375 C 9.859375 -2.984375 10.082031 -3.472656 10.21875 -3.953125 C 10.351562 -4.429688 10.421875 -4.816406 10.421875 -5.109375 L 10.421875 -10.171875 L 13 -10.171875 L 13 0.640625 C 12.820312 0.546875 12.4375 0.363281 11.84375 0.09375 C 11.257812 -0.164062 10.773438 -0.378906 10.390625 -0.546875 L 10.390625 -1.5625 C 9.953125 -1.238281 9.523438 -0.957031 9.109375 -0.71875 C 8.703125 -0.476562 8.273438 -0.296875 7.828125 -0.171875 C 7.390625 -0.0546875 6.878906 0 6.296875 0 C 5.453125 0 4.628906 -0.21875 3.828125 -0.65625 C 3.023438 -1.101562 2.378906 -1.707031 1.890625 -2.46875 C 1.410156 -3.226562 1.171875 -4.050781 1.171875 -4.9375 L 1.171875 -12.25 L -0.375 -12.25 L -0.375 -13.78125 L 14.21875 -13.78125 Z M 14.21875 -12.25 "/></g></g></g><g fill="rgb(12.939453%, 16.079712%, 19.60907%)" fill-opacity="1"><g transform="translate(169.256612, 244.678359)"><g><path d="M 11.234375 -12.25 L 4.8125 -12.25 L 4.8125 -2.03125 C 4.8125 -1.738281 4.914062 -1.453125 5.125 -1.171875 C 5.332031 -0.890625 5.554688 -0.75 5.796875 -0.75 C 7.054688 -0.75 7.6875 -2.050781 7.6875 -4.65625 L 10.25 -3.203125 C 9.832031 -2.273438 9.265625 -1.503906 8.546875 -0.890625 C 7.835938 -0.273438 6.894531 0.03125 5.71875 0.03125 C 5.132812 0.0195312 4.597656 -0.132812 4.109375 -0.4375 C 3.628906 -0.738281 3.242188 -1.125 2.953125 -1.59375 C 2.671875 -2.0625 2.53125 -2.53125 2.53125 -3 L 2.53125 -12.25 L -0.125 -12.25 L -0.125 -13.78125 L 2.53125 -13.78125 L 2.53125 -18.046875 L 4.8125 -16.453125 L 4.8125 -13.78125 L 11.234375 -13.78125 Z M 11.234375 -12.25 "/></g></g></g><g fill="rgb(12.939453%, 16.079712%, 19.60907%)" fill-opacity="1"><g transform="translate(180.323597, 244.678359)"><g><path d="M 4.296875 -15.109375 C 4.253906 -15.078125 4.15625 -15.0625 4 -15.0625 C 3.863281 -15.0625 3.742188 -15.078125 3.640625 -15.109375 C 3.035156 -16.296875 2.644531 -17.023438 2.46875 -17.296875 C 2.289062 -17.546875 2.054688 -17.707031 1.765625 -17.78125 C 1.484375 -17.863281 1.21875 -17.9375 0.96875 -18 C 0.71875 -18.070312 0.519531 -18.242188 0.375 -18.515625 C 0.332031 -18.566406 0.265625 -18.757812 0.171875 -19.09375 C 0.078125 -19.4375 -0.101562 -19.835938 -0.375 -20.296875 L -0.375 -20.59375 L 0.125 -20.59375 C 1.113281 -20.289062 1.816406 -20.015625 2.234375 -19.765625 C 2.648438 -19.515625 2.914062 -19.269531 3.03125 -19.03125 C 3.144531 -18.800781 3.304688 -18.320312 3.515625 -17.59375 C 3.722656 -16.875 3.972656 -16.226562 4.265625 -15.65625 C 4.273438 -15.582031 4.28125 -15.507812 4.28125 -15.4375 C 4.289062 -15.375 4.296875 -15.265625 4.296875 -15.109375 Z M 5.046875 -12.25 L -0.125 -12.25 L -0.125 -13.78125 L 5.046875 -13.78125 Z M 3.59375 0.296875 L 1.453125 -0.890625 L 1.453125 -10.6875 L 3.59375 -10.6875 Z M 3.59375 0.296875 "/></g></g></g><g fill="rgb(12.939453%, 16.079712%, 19.60907%)" fill-opacity="1"><g transform="translate(185.26059, 244.678359)"><g><path d="M 13.546875 -12.25 L 10.6875 -12.25 L 10.6875 -8.765625 C 10.6875 -8.679688 10.804688 -8.523438 11.046875 -8.296875 C 11.285156 -8.078125 11.5 -7.851562 11.6875 -7.625 C 11.882812 -7.394531 12.066406 -7.050781 12.234375 -6.59375 C 12.398438 -6.144531 12.484375 -5.59375 12.484375 -4.9375 C 12.484375 -4.039062 12.253906 -3.207031 11.796875 -2.4375 C 11.335938 -1.664062 10.707031 -1.0625 9.90625 -0.625 C 9.101562 -0.1875 8.21875 0.03125 7.25 0.03125 C 6.613281 0.03125 5.910156 -0.128906 5.140625 -0.453125 C 4.367188 -0.785156 3.640625 -1.238281 2.953125 -1.8125 C 2.265625 -2.382812 1.707031 -3.03125 1.28125 -3.75 C 0.851562 -4.476562 0.640625 -5.226562 0.640625 -6 C 0.640625 -6.5625 0.84375 -7.207031 1.25 -7.9375 C 1.65625 -8.664062 2.242188 -9.289062 3.015625 -9.8125 C 3.785156 -10.34375 4.707031 -10.609375 5.78125 -10.609375 C 6.375 -10.609375 7.25 -10.453125 8.40625 -10.140625 C 8.457031 -10.140625 8.484375 -10.175781 8.484375 -10.25 L 8.484375 -12.25 L -0.234375 -12.25 L -0.234375 -13.78125 L 13.546875 -13.78125 Z M 10.609375 -6.625 C 10.609375 -7.269531 10.445312 -7.789062 10.125 -8.1875 C 9.800781 -8.582031 9.4375 -8.859375 9.03125 -9.015625 C 8.632812 -9.171875 8.300781 -9.25 8.03125 -9.25 C 7.625 -9.25 7.109375 -9.132812 6.484375 -8.90625 C 5.867188 -8.675781 5.253906 -8.320312 4.640625 -7.84375 C 4.035156 -7.375 3.53125 -6.78125 3.125 -6.0625 C 2.726562 -5.34375 2.53125 -4.535156 2.53125 -3.640625 C 2.53125 -3.265625 2.65625 -2.898438 2.90625 -2.546875 C 3.15625 -2.191406 3.484375 -1.898438 3.890625 -1.671875 C 4.296875 -1.453125 4.71875 -1.34375 5.15625 -1.34375 C 5.582031 -1.34375 6.117188 -1.476562 6.765625 -1.75 C 7.410156 -2.019531 8.019531 -2.390625 8.59375 -2.859375 C 9.175781 -3.328125 9.65625 -3.882812 10.03125 -4.53125 C 10.414062 -5.175781 10.609375 -5.875 10.609375 -6.625 Z M 10.609375 -6.625 "/></g></g></g><g fill="rgb(12.939453%, 16.079712%, 19.60907%)" fill-opacity="1"><g transform="translate(198.57397, 244.678359)"><g><path d="M 13.515625 -12.25 L -0.125 -12.25 L -0.125 -13.78125 L 13.515625 -13.78125 Z M 10.796875 -6.671875 C 10.796875 -8.703125 9.832031 -9.71875 7.90625 -9.71875 C 7.351562 -9.71875 6.78125 -9.550781 6.1875 -9.21875 C 5.601562 -8.894531 5.078125 -8.441406 4.609375 -7.859375 C 4.148438 -7.273438 3.78125 -6.582031 3.5 -5.78125 C 3.21875 -4.976562 3.078125 -4.144531 3.078125 -3.28125 L 3.078125 0.421875 L 0.984375 -0.671875 L 0.984375 -10.21875 L 3.171875 -10.21875 L 3.171875 -8.703125 C 3.347656 -8.835938 3.640625 -9.066406 4.046875 -9.390625 C 4.460938 -9.710938 4.960938 -10.007812 5.546875 -10.28125 C 6.140625 -10.550781 6.78125 -10.6875 7.46875 -10.6875 C 8.132812 -10.6875 8.773438 -10.539062 9.390625 -10.25 C 10.015625 -9.96875 10.566406 -9.566406 11.046875 -9.046875 C 11.523438 -8.535156 11.90625 -7.929688 12.1875 -7.234375 C 12.46875 -6.535156 12.609375 -5.785156 12.609375 -4.984375 C 12.609375 -4.085938 12.410156 -3.171875 12.015625 -2.234375 C 11.628906 -1.304688 11.015625 -0.378906 10.171875 0.546875 L 7.71875 -0.984375 C 7.875 -1.191406 8.15625 -1.488281 8.5625 -1.875 C 8.976562 -2.269531 9.34375 -2.664062 9.65625 -3.0625 C 9.96875 -3.46875 10.234375 -3.96875 10.453125 -4.5625 C 10.679688 -5.15625 10.796875 -5.859375 10.796875 -6.671875 Z M 10.796875 -6.671875 "/></g></g></g><g fill="rgb(12.939453%, 16.079712%, 19.60907%)" fill-opacity="1"><g transform="translate(211.887351, 244.678359)"><g><path d="M 12.40625 -12.25 L 3.953125 -12.25 L 3.953125 -10.21875 C 3.992188 -10.21875 4.023438 -10.203125 4.046875 -10.171875 C 4.078125 -10.140625 4.109375 -10.125 4.140625 -10.125 C 4.117188 -10.125 4.289062 -10.171875 4.65625 -10.265625 C 5.019531 -10.359375 5.4375 -10.445312 5.90625 -10.53125 C 6.382812 -10.625 6.847656 -10.671875 7.296875 -10.671875 C 8.316406 -10.671875 9.117188 -10.53125 9.703125 -10.25 C 10.285156 -9.96875 10.703125 -9.570312 10.953125 -9.0625 C 11.210938 -8.550781 11.367188 -7.976562 11.421875 -7.34375 C 11.484375 -6.71875 11.515625 -5.859375 11.515625 -4.765625 L 11.515625 0.125 C 10.859375 -0.125 10.394531 -0.304688 10.125 -0.421875 C 9.851562 -0.546875 9.644531 -0.640625 9.5 -0.703125 C 9.5 -0.972656 9.441406 -1.144531 9.328125 -1.21875 C 9.046875 -1.0625 8.734375 -0.882812 8.390625 -0.6875 C 8.046875 -0.5 7.59375 -0.332031 7.03125 -0.1875 C 6.476562 -0.0390625 5.816406 0.03125 5.046875 0.03125 C 4.304688 0.03125 3.582031 -0.101562 2.875 -0.375 C 2.175781 -0.644531 1.609375 -1.03125 1.171875 -1.53125 C 0.734375 -2.039062 0.515625 -2.613281 0.515625 -3.25 C 0.515625 -3.84375 0.789062 -4.460938 1.34375 -5.109375 C 1.894531 -5.753906 2.628906 -6.289062 3.546875 -6.71875 C 4.472656 -7.144531 5.484375 -7.359375 6.578125 -7.359375 C 7.171875 -7.359375 7.734375 -7.269531 8.265625 -7.09375 C 8.804688 -6.925781 9.21875 -6.738281 9.5 -6.53125 L 9.5 -7.6875 C 9.144531 -8.144531 8.804688 -8.453125 8.484375 -8.609375 C 8.160156 -8.773438 7.65625 -8.859375 6.96875 -8.859375 C 6.082031 -8.828125 5.378906 -8.753906 4.859375 -8.640625 C 4.347656 -8.523438 3.800781 -8.347656 3.21875 -8.109375 C 2.632812 -7.867188 2.140625 -7.679688 1.734375 -7.546875 L 1.734375 -8.484375 C 1.796875 -8.535156 1.878906 -8.609375 1.984375 -8.703125 C 2.097656 -8.796875 2.171875 -8.863281 2.203125 -8.90625 C 2.242188 -8.945312 2.269531 -8.96875 2.28125 -8.96875 L 2.28125 -12.25 L -0.3125 -12.25 L -0.3125 -13.78125 L 12.40625 -13.78125 Z M 9.5 -4.21875 C 9.5 -4.601562 9.0625 -4.925781 8.1875 -5.1875 C 7.3125 -5.457031 6.691406 -5.59375 6.328125 -5.59375 C 5.398438 -5.59375 4.554688 -5.398438 3.796875 -5.015625 C 3.046875 -4.628906 2.457031 -4.175781 2.03125 -3.65625 C 1.601562 -3.132812 1.390625 -2.710938 1.390625 -2.390625 C 1.484375 -2.035156 1.738281 -1.789062 2.15625 -1.65625 C 2.570312 -1.519531 3.015625 -1.453125 3.484375 -1.453125 C 4.347656 -1.453125 5.144531 -1.566406 5.875 -1.796875 C 6.601562 -2.023438 7.238281 -2.304688 7.78125 -2.640625 C 8.332031 -2.972656 8.753906 -3.289062 9.046875 -3.59375 C 9.347656 -3.894531 9.5 -4.101562 9.5 -4.21875 Z M 9.5 -4.21875 "/></g></g></g><g fill="rgb(12.939453%, 16.079712%, 19.60907%)" fill-opacity="1"><g transform="translate(224.236177, 244.678359)"><g><path d="M 5.609375 -12.25 L 4.265625 -12.25 L 4.265625 -13.78125 L 5.609375 -13.78125 Z M 1.265625 -12.25 L -0.171875 -12.25 L -0.171875 -13.78125 L 1.265625 -13.78125 Z M 3.84375 -15.3125 L 3.84375 0.3125 C 3.8125 0.3125 3.695312 0.265625 3.5 0.171875 C 3.3125 0.078125 3.09375 -0.03125 2.84375 -0.15625 C 2.601562 -0.289062 2.351562 -0.421875 2.09375 -0.546875 C 1.832031 -0.679688 1.6875 -0.75 1.65625 -0.75 L 1.65625 -15.28125 C 1.613281 -16.289062 1.441406 -17.234375 1.140625 -18.109375 C 0.835938 -18.992188 0.5 -19.726562 0.125 -20.3125 C -0.25 -20.894531 -0.65625 -21.429688 -1.09375 -21.921875 C -1.53125 -22.410156 -1.800781 -22.710938 -1.90625 -22.828125 L 0.796875 -22.828125 C 1.515625 -22.109375 2.109375 -21.285156 2.578125 -20.359375 C 3.046875 -19.429688 3.375 -18.53125 3.5625 -17.65625 C 3.75 -16.78125 3.84375 -16 3.84375 -15.3125 Z M 3.84375 -15.3125 "/></g></g></g><g fill="rgb(12.939453%, 16.079712%, 19.60907%)" fill-opacity="1"><g transform="translate(229.642755, 244.678359)"><g/></g></g><g fill="rgb(12.939453%, 16.079712%, 19.60907%)" fill-opacity="1"><g transform="translate(238.095292, 244.678359)"><g><path d="M 13.375 -12.25 L 9.90625 -12.25 L 9.90625 -9.75 C 10.132812 -9.695312 10.320312 -9.632812 10.46875 -9.5625 C 10.625 -9.488281 10.722656 -9.4375 10.765625 -9.40625 L 10.765625 -7.90625 C 9.753906 -8.257812 8.707031 -8.4375 7.625 -8.4375 C 6.875 -8.4375 6.0625 -8.28125 5.1875 -7.96875 C 4.320312 -7.664062 3.875 -7.191406 3.84375 -6.546875 C 3.84375 -5.867188 4.804688 -5.53125 6.734375 -5.53125 C 6.890625 -5.53125 7.160156 -5.539062 7.546875 -5.5625 C 7.941406 -5.582031 8.195312 -5.597656 8.3125 -5.609375 L 8.3125 -4.4375 C 7.707031 -4.425781 7.003906 -4.394531 6.203125 -4.34375 C 5.410156 -4.300781 4.695312 -4.144531 4.0625 -3.875 C 3.4375 -3.613281 3.125 -3.191406 3.125 -2.609375 C 3.125 -2.109375 3.410156 -1.703125 3.984375 -1.390625 C 4.566406 -1.085938 5.222656 -0.9375 5.953125 -0.9375 C 7.421875 -0.9375 8.707031 -1.269531 9.8125 -1.9375 C 10.925781 -2.613281 11.863281 -3.5 12.625 -4.59375 L 12.625 -1.390625 C 11.726562 -0.816406 10.859375 -0.441406 10.015625 -0.265625 C 9.179688 -0.0859375 8.332031 0 7.46875 0 C 6.613281 0 5.648438 -0.128906 4.578125 -0.390625 C 3.503906 -0.648438 2.582031 -1.019531 1.8125 -1.5 C 1.050781 -1.988281 0.671875 -2.554688 0.671875 -3.203125 C 0.671875 -3.847656 0.914062 -4.359375 1.40625 -4.734375 C 1.90625 -5.117188 2.476562 -5.46875 3.125 -5.78125 C 2.78125 -5.96875 2.492188 -6.125 2.265625 -6.25 C 2.046875 -6.382812 1.867188 -6.539062 1.734375 -6.71875 C 1.597656 -6.894531 1.53125 -7.128906 1.53125 -7.421875 C 1.53125 -7.972656 1.753906 -8.4375 2.203125 -8.8125 C 2.660156 -9.1875 3.226562 -9.472656 3.90625 -9.671875 C 4.582031 -9.867188 5.269531 -10.003906 5.96875 -10.078125 C 6.675781 -10.148438 7.335938 -10.1875 7.953125 -10.1875 L 7.953125 -12.25 L -0.171875 -12.25 L -0.171875 -13.78125 L 13.375 -13.78125 Z M 13.375 -12.25 "/></g></g></g><g fill="rgb(12.939453%, 16.079712%, 19.60907%)" fill-opacity="1"><g transform="translate(251.294449, 244.678359)"><g><path d="M 12.703125 -12.25 L -0.125 -12.25 L -0.125 -13.78125 L 12.703125 -13.78125 Z M 11.65625 -7.6875 C 11.65625 -7.144531 11.34375 -6.578125 10.71875 -5.984375 C 10.09375 -5.398438 9.570312 -5.007812 9.15625 -4.8125 L 7.25 -6.96875 C 7.957031 -7.039062 8.554688 -7.296875 9.046875 -7.734375 C 9.535156 -8.179688 9.78125 -8.617188 9.78125 -9.046875 C 9.78125 -9.222656 9.640625 -9.4375 9.359375 -9.6875 C 9.078125 -9.9375 8.710938 -10.0625 8.265625 -10.0625 C 7.710938 -10.0625 7.085938 -9.804688 6.390625 -9.296875 C 5.703125 -8.796875 5.113281 -8.140625 4.625 -7.328125 C 4.132812 -6.523438 3.890625 -5.71875 3.890625 -4.90625 L 3.890625 0.46875 L 1.453125 -0.796875 L 1.453125 -10.1875 L 3.921875 -10.1875 L 3.921875 -9.234375 C 3.992188 -9.296875 4.242188 -9.445312 4.671875 -9.6875 C 5.097656 -9.9375 5.597656 -10.160156 6.171875 -10.359375 C 6.742188 -10.566406 7.320312 -10.671875 7.90625 -10.671875 C 8.394531 -10.671875 8.929688 -10.546875 9.515625 -10.296875 C 10.109375 -10.054688 10.613281 -9.707031 11.03125 -9.25 C 11.445312 -8.789062 11.65625 -8.269531 11.65625 -7.6875 Z M 11.65625 -7.6875 "/></g></g></g><g fill="rgb(12.939453%, 16.079712%, 19.60907%)" fill-opacity="1"><g transform="translate(263.77019, 244.678359)"><g><path d="M 14.40625 -12.25 L -0.15625 -12.25 L -0.15625 -13.78125 L 14.40625 -13.78125 Z M 13.390625 -5.234375 C 13.390625 -4.304688 13.109375 -3.429688 12.546875 -2.609375 C 11.992188 -1.796875 11.304688 -1.148438 10.484375 -0.671875 C 9.660156 -0.203125 8.882812 0.03125 8.15625 0.03125 C 7.507812 0.03125 6.8125 -0.234375 6.0625 -0.765625 C 5.3125 -1.304688 4.390625 -2.09375 3.296875 -3.125 L 3.296875 7.640625 L 1.265625 6.578125 L 1.265625 -10.21875 L 3.25 -10.21875 L 3.25 -7.125 C 3.40625 -7.28125 3.660156 -7.546875 4.015625 -7.921875 C 4.378906 -8.304688 4.789062 -8.707031 5.25 -9.125 C 5.71875 -9.550781 6.226562 -9.925781 6.78125 -10.25 C 7.34375 -10.570312 7.867188 -10.734375 8.359375 -10.734375 C 8.828125 -10.734375 9.347656 -10.570312 9.921875 -10.25 C 10.503906 -9.9375 11.0625 -9.519531 11.59375 -9 C 12.125 -8.476562 12.554688 -7.882812 12.890625 -7.21875 C 13.222656 -6.550781 13.390625 -5.890625 13.390625 -5.234375 Z M 12.140625 -6.703125 C 12.140625 -6.910156 12.054688 -7.191406 11.890625 -7.546875 C 11.722656 -7.910156 11.46875 -8.242188 11.125 -8.546875 C 10.789062 -8.847656 10.375 -9 9.875 -9 C 9.320312 -9 8.695312 -8.8125 8 -8.4375 C 7.300781 -8.070312 6.640625 -7.609375 6.015625 -7.046875 C 5.390625 -6.484375 4.875 -5.90625 4.46875 -5.3125 C 4.070312 -4.726562 3.875 -4.25 3.875 -3.875 C 3.875 -3.613281 4.019531 -3.34375 4.3125 -3.0625 C 4.613281 -2.789062 4.992188 -2.554688 5.453125 -2.359375 C 5.921875 -2.171875 6.382812 -2.078125 6.84375 -2.078125 C 7.601562 -2.078125 8.316406 -2.238281 8.984375 -2.5625 C 9.648438 -2.894531 10.210938 -3.300781 10.671875 -3.78125 C 11.128906 -4.257812 11.488281 -4.765625 11.75 -5.296875 C 12.007812 -5.828125 12.140625 -6.296875 12.140625 -6.703125 Z M 12.140625 -6.703125 "/></g></g></g></svg>