<svg xmlns="http://www.w3.org/2000/svg" xmlns:xlink="http://www.w3.org/1999/xlink" width="500" zoomAndPan="magnify" viewBox="0 0 375 374.999991" height="500" preserveAspectRatio="xMidYMid meet" version="1.0"><defs><g/><clipPath id="id1"><path d="M 29.664062 167 L 62 167 L 62 222.066406 L 29.664062 222.066406 Z M 29.664062 167 " clip-rule="nonzero"/></clipPath><clipPath id="id2"><path d="M 81 167 L 113.664062 167 L 113.664062 222.066406 L 81 222.066406 Z M 81 167 " clip-rule="nonzero"/></clipPath><clipPath id="id3"><path d="M 48 153.066406 L 95 153.066406 L 95 221 L 48 221 Z M 48 153.066406 " clip-rule="nonzero"/></clipPath></defs><g clip-path="url(#id1)"><path fill="rgb(7.839966%, 36.468506%, 62.748718%)" d="M 34.417969 206.171875 L 34.40625 168.269531 C 32.953125 168.007812 31.386719 167.851562 29.667969 167.851562 L 29.667969 210.292969 C 29.667969 210.292969 48.703125 212.539062 61.511719 222.0625 C 55.59375 215.210938 46.753906 209.523438 34.417969 206.171875 " fill-opacity="1" fill-rule="nonzero"/></g><path fill="rgb(33.729553%, 68.238831%, 100%)" d="M 44.027344 197.882812 L 43.996094 162.578125 C 42.515625 161.855469 40.90625 161.21875 39.144531 160.703125 L 39.144531 203.148438 C 39.144531 203.148438 54.554688 207.265625 65.128906 219.386719 C 60.273438 211.066406 53.402344 202.652344 44.027344 197.882812 " fill-opacity="1" fill-rule="nonzero"/><g clip-path="url(#id2)"><path fill="rgb(7.839966%, 36.468506%, 62.748718%)" d="M 108.90625 206.171875 L 108.917969 168.269531 C 110.371094 168.007812 111.9375 167.851562 113.65625 167.851562 L 113.65625 210.292969 C 113.65625 210.292969 94.625 212.539062 81.816406 222.0625 C 87.734375 215.210938 96.574219 209.523438 108.90625 206.171875 " fill-opacity="1" fill-rule="nonzero"/></g><path fill="rgb(33.729553%, 68.238831%, 100%)" d="M 99.300781 197.882812 L 99.328125 162.578125 C 100.8125 161.855469 102.417969 161.21875 104.179688 160.703125 L 104.179688 203.148438 C 104.179688 203.148438 88.769531 207.265625 78.195312 219.386719 C 83.050781 211.066406 89.925781 202.652344 99.300781 197.882812 " fill-opacity="1" fill-rule="nonzero"/><g clip-path="url(#id3)"><path fill="rgb(100%, 50.979614%, 6.269836%)" d="M 71.664062 177.003906 C 71.664062 177.003906 65.375 163.738281 48.734375 153.066406 L 48.734375 195.511719 C 48.734375 195.511719 61.183594 203.765625 70.902344 220.226562 L 70.902344 197.914062 C 69.589844 197.617188 68.617188 196.1875 68.617188 194.957031 C 68.617188 193.496094 69.980469 191.902344 71.664062 191.902344 C 73.34375 191.902344 74.710938 193.496094 74.710938 194.957031 C 74.710938 196.1875 73.734375 197.617188 72.425781 197.914062 L 72.425781 220.226562 C 82.144531 203.765625 94.59375 195.511719 94.59375 195.511719 L 94.59375 153.066406 C 77.953125 163.738281 71.664062 177.003906 71.664062 177.003906 " fill-opacity="1" fill-rule="nonzero"/></g><g fill="rgb(36.859131%, 9.01947%, 92.158508%)" fill-opacity="1"><g transform="translate(117.001725, 213.232193)"><g><path d="M 13.09375 -12 L 9.703125 -12 L 9.703125 -9.546875 C 9.921875 -9.492188 10.101562 -9.429688 10.25 -9.359375 C 10.40625 -9.296875 10.503906 -9.25 10.546875 -9.21875 L 10.546875 -7.75 C 9.554688 -8.082031 8.53125 -8.25 7.46875 -8.25 C 6.738281 -8.25 5.945312 -8.097656 5.09375 -7.796875 C 4.238281 -7.503906 3.796875 -7.046875 3.765625 -6.421875 C 3.765625 -5.753906 4.707031 -5.421875 6.59375 -5.421875 C 6.75 -5.421875 7.015625 -5.429688 7.390625 -5.453125 C 7.773438 -5.472656 8.023438 -5.488281 8.140625 -5.5 L 8.140625 -4.359375 C 7.546875 -4.335938 6.859375 -4.300781 6.078125 -4.25 C 5.296875 -4.207031 4.597656 -4.054688 3.984375 -3.796875 C 3.367188 -3.546875 3.0625 -3.128906 3.0625 -2.546875 C 3.0625 -2.066406 3.34375 -1.675781 3.90625 -1.375 C 4.476562 -1.070312 5.117188 -0.921875 5.828125 -0.921875 C 7.265625 -0.921875 8.523438 -1.25 9.609375 -1.90625 C 10.703125 -2.5625 11.625 -3.425781 12.375 -4.5 L 12.375 -1.359375 C 11.5 -0.796875 10.648438 -0.425781 9.828125 -0.25 C 9.003906 -0.0820312 8.164062 0 7.3125 0 C 6.476562 0 5.535156 -0.125 4.484375 -0.375 C 3.429688 -0.632812 2.53125 -1 1.78125 -1.46875 C 1.03125 -1.945312 0.65625 -2.503906 0.65625 -3.140625 C 0.65625 -3.773438 0.894531 -4.273438 1.375 -4.640625 C 1.863281 -5.015625 2.425781 -5.351562 3.0625 -5.65625 C 2.726562 -5.84375 2.453125 -6 2.234375 -6.125 C 2.015625 -6.25 1.835938 -6.398438 1.703125 -6.578125 C 1.566406 -6.753906 1.5 -6.984375 1.5 -7.265625 C 1.5 -7.804688 1.71875 -8.257812 2.15625 -8.625 C 2.601562 -9 3.160156 -9.28125 3.828125 -9.46875 C 4.492188 -9.664062 5.171875 -9.800781 5.859375 -9.875 C 6.546875 -9.945312 7.191406 -9.984375 7.796875 -9.984375 L 7.796875 -12 L -0.171875 -12 L -0.171875 -13.5 L 13.09375 -13.5 Z M 13.09375 -12 "/></g></g></g><g fill="rgb(36.859131%, 9.01947%, 92.158508%)" fill-opacity="1"><g transform="translate(132.480397, 213.232193)"><g><path d="M 14.3125 -12 L 12.6875 -12 L 12.65625 0.15625 L 10.390625 -0.828125 L 10.390625 -2.59375 C 9.734375 -1.738281 9.097656 -1.09375 8.484375 -0.65625 C 7.878906 -0.21875 7.195312 0 6.4375 0 C 5.707031 0 4.890625 -0.285156 3.984375 -0.859375 C 3.085938 -1.441406 2.320312 -2.1875 1.6875 -3.09375 C 1.050781 -4 0.734375 -4.90625 0.734375 -5.8125 C 0.753906 -6.144531 0.875 -6.5625 1.09375 -7.0625 C 1.3125 -7.570312 1.632812 -8.082031 2.0625 -8.59375 C 2.488281 -9.113281 3.003906 -9.539062 3.609375 -9.875 C 4.210938 -10.21875 4.890625 -10.390625 5.640625 -10.390625 C 6.492188 -10.390625 7.234375 -10.128906 7.859375 -9.609375 C 8.484375 -9.097656 9.328125 -8.257812 10.390625 -7.09375 L 10.390625 -12 L -0.25 -12 L -0.25 -13.5 L 10.390625 -13.5 C 10.390625 -14.363281 10.367188 -15.078125 10.328125 -15.640625 C 10.285156 -16.210938 10.160156 -16.835938 9.953125 -17.515625 C 9.753906 -18.191406 9.421875 -18.957031 8.953125 -19.8125 C 8.484375 -20.664062 7.859375 -21.617188 7.078125 -22.671875 C 7.046875 -22.671875 7.03125 -22.738281 7.03125 -22.875 C 7.03125 -22.96875 7.050781 -23.03125 7.09375 -23.0625 L 9.46875 -23.0625 C 10.257812 -22.195312 10.992188 -21.039062 11.671875 -19.59375 C 12.347656 -18.15625 12.6875 -16.125 12.6875 -13.5 L 14.3125 -13.5 Z M 9.796875 -6.34375 C 9.796875 -6.863281 9.5 -7.375 8.90625 -7.875 C 8.3125 -8.375 7.601562 -8.625 6.78125 -8.625 C 6.46875 -8.625 5.957031 -8.457031 5.25 -8.125 C 4.550781 -7.800781 3.910156 -7.316406 3.328125 -6.671875 C 2.753906 -6.023438 2.46875 -5.253906 2.46875 -4.359375 C 2.46875 -3.503906 2.707031 -2.804688 3.1875 -2.265625 C 3.675781 -1.722656 4.226562 -1.453125 4.84375 -1.453125 C 5.550781 -1.453125 6.289062 -1.753906 7.0625 -2.359375 C 7.84375 -2.960938 8.492188 -3.65625 9.015625 -4.4375 C 9.535156 -5.226562 9.796875 -5.863281 9.796875 -6.34375 Z M 9.796875 -6.34375 "/></g></g></g><g fill="rgb(36.859131%, 9.01947%, 92.158508%)" fill-opacity="1"><g transform="translate(149.140306, 213.232193)"><g><path d="M 13.921875 -12 L 3.515625 -12 L 3.515625 -4.03125 C 3.535156 -3.445312 3.644531 -2.894531 3.84375 -2.375 C 4.050781 -1.863281 4.347656 -1.445312 4.734375 -1.125 C 5.128906 -0.8125 5.59375 -0.65625 6.125 -0.65625 C 6.894531 -0.65625 7.546875 -0.828125 8.078125 -1.171875 C 8.617188 -1.515625 9.039062 -1.929688 9.34375 -2.421875 C 9.65625 -2.921875 9.875 -3.40625 10 -3.875 C 10.132812 -4.34375 10.203125 -4.722656 10.203125 -5.015625 L 10.203125 -9.96875 L 12.734375 -9.96875 L 12.734375 0.640625 C 12.554688 0.535156 12.179688 0.351562 11.609375 0.09375 C 11.035156 -0.15625 10.5625 -0.363281 10.1875 -0.53125 L 10.1875 -1.53125 C 9.75 -1.21875 9.328125 -0.941406 8.921875 -0.703125 C 8.515625 -0.460938 8.097656 -0.285156 7.671875 -0.171875 C 7.242188 -0.0546875 6.742188 0 6.171875 0 C 5.335938 0 4.53125 -0.210938 3.75 -0.640625 C 2.96875 -1.078125 2.335938 -1.664062 1.859375 -2.40625 C 1.378906 -3.15625 1.140625 -3.96875 1.140625 -4.84375 L 1.140625 -12 L -0.359375 -12 L -0.359375 -13.5 L 13.921875 -13.5 Z M 13.921875 -12 "/></g></g></g><g fill="rgb(32.159424%, 44.309998%, 100%)" fill-opacity="1"><g transform="translate(165.505632, 213.232193)"><g><path d="M 13.171875 -12 L 10.578125 -12 L 10.578125 -8.53125 C 11.109375 -8.03125 11.457031 -7.675781 11.625 -7.46875 C 11.789062 -7.257812 11.984375 -6.875 12.203125 -6.3125 L 10.546875 -6.3125 C 10.546875 -7.269531 10.273438 -7.988281 9.734375 -8.46875 C 9.191406 -8.945312 8.5 -9.1875 7.65625 -9.1875 C 6.675781 -9.1875 5.785156 -8.921875 4.984375 -8.390625 C 4.191406 -7.859375 3.566406 -7.1875 3.109375 -6.375 C 2.648438 -5.570312 2.421875 -4.796875 2.421875 -4.046875 C 2.421875 -3.585938 2.523438 -3.15625 2.734375 -2.75 C 2.953125 -2.351562 3.296875 -2.03125 3.765625 -1.78125 C 4.242188 -1.53125 4.859375 -1.40625 5.609375 -1.40625 C 6.554688 -1.40625 7.289062 -1.5625 7.8125 -1.875 C 8.332031 -2.195312 8.664062 -2.460938 8.8125 -2.671875 L 11.46875 -2.671875 C 11.363281 -2.265625 11.082031 -1.851562 10.625 -1.4375 C 10.175781 -1.03125 9.628906 -0.6875 8.984375 -0.40625 C 8.335938 -0.132812 7.75 0 7.21875 0 C 6.164062 0 5.101562 -0.289062 4.03125 -0.875 C 2.96875 -1.457031 2.097656 -2.203125 1.421875 -3.109375 C 0.742188 -4.015625 0.40625 -4.90625 0.40625 -5.78125 C 0.40625 -6.28125 0.628906 -6.925781 1.078125 -7.71875 C 1.535156 -8.507812 2.175781 -9.195312 3 -9.78125 C 3.820312 -10.375 4.757812 -10.671875 5.8125 -10.671875 C 6.488281 -10.671875 7.066406 -10.582031 7.546875 -10.40625 C 8.023438 -10.238281 8.367188 -10.082031 8.578125 -9.9375 L 8.578125 -12 L -0.203125 -12 L -0.203125 -13.5 L 13.171875 -13.5 Z M 13.171875 -12 "/></g></g></g><g fill="rgb(32.159424%, 44.309998%, 100%)" fill-opacity="1"><g transform="translate(181.03404, 213.232193)"><g><path d="M 12.15625 -12 L 3.875 -12 L 3.875 -10.015625 C 3.914062 -10.015625 3.945312 -9.992188 3.96875 -9.953125 C 3.988281 -9.921875 4.015625 -9.90625 4.046875 -9.90625 C 4.035156 -9.90625 4.207031 -9.953125 4.5625 -10.046875 C 4.914062 -10.148438 5.320312 -10.242188 5.78125 -10.328125 C 6.25 -10.410156 6.707031 -10.453125 7.15625 -10.453125 C 8.144531 -10.453125 8.925781 -10.3125 9.5 -10.03125 C 10.070312 -9.757812 10.484375 -9.375 10.734375 -8.875 C 10.992188 -8.382812 11.148438 -7.828125 11.203125 -7.203125 C 11.253906 -6.585938 11.28125 -5.738281 11.28125 -4.65625 L 11.28125 0.125 C 10.644531 -0.125 10.191406 -0.304688 9.921875 -0.421875 C 9.648438 -0.535156 9.441406 -0.625 9.296875 -0.6875 C 9.296875 -0.945312 9.242188 -1.113281 9.140625 -1.1875 C 8.867188 -1.03125 8.5625 -0.859375 8.21875 -0.671875 C 7.875 -0.484375 7.425781 -0.316406 6.875 -0.171875 C 6.332031 -0.0351562 5.6875 0.03125 4.9375 0.03125 C 4.21875 0.03125 3.515625 -0.0976562 2.828125 -0.359375 C 2.140625 -0.628906 1.582031 -1.007812 1.15625 -1.5 C 0.726562 -2 0.515625 -2.5625 0.515625 -3.1875 C 0.515625 -3.757812 0.78125 -4.363281 1.3125 -5 C 1.851562 -5.632812 2.578125 -6.160156 3.484375 -6.578125 C 4.390625 -7.003906 5.375 -7.21875 6.4375 -7.21875 C 7.019531 -7.21875 7.570312 -7.128906 8.09375 -6.953125 C 8.625 -6.785156 9.023438 -6.597656 9.296875 -6.390625 L 9.296875 -7.53125 C 8.953125 -7.976562 8.617188 -8.28125 8.296875 -8.4375 C 7.984375 -8.601562 7.492188 -8.6875 6.828125 -8.6875 C 5.953125 -8.644531 5.265625 -8.566406 4.765625 -8.453125 C 4.265625 -8.347656 3.722656 -8.175781 3.140625 -7.9375 C 2.566406 -7.695312 2.085938 -7.515625 1.703125 -7.390625 L 1.703125 -8.3125 C 1.765625 -8.351562 1.847656 -8.421875 1.953125 -8.515625 C 2.054688 -8.609375 2.125 -8.675781 2.15625 -8.71875 C 2.195312 -8.757812 2.222656 -8.785156 2.234375 -8.796875 L 2.234375 -12 L -0.3125 -12 L -0.3125 -13.5 L 12.15625 -13.5 Z M 9.296875 -4.125 C 9.296875 -4.507812 8.867188 -4.828125 8.015625 -5.078125 C 7.160156 -5.335938 6.550781 -5.46875 6.1875 -5.46875 C 5.289062 -5.46875 4.472656 -5.28125 3.734375 -4.90625 C 2.992188 -4.53125 2.410156 -4.085938 1.984375 -3.578125 C 1.566406 -3.078125 1.359375 -2.664062 1.359375 -2.34375 C 1.453125 -2 1.703125 -1.757812 2.109375 -1.625 C 2.515625 -1.5 2.945312 -1.4375 3.40625 -1.4375 C 4.25 -1.4375 5.03125 -1.546875 5.75 -1.765625 C 6.46875 -1.992188 7.09375 -2.269531 7.625 -2.59375 C 8.164062 -2.914062 8.578125 -3.222656 8.859375 -3.515625 C 9.148438 -3.816406 9.296875 -4.019531 9.296875 -4.125 Z M 9.296875 -4.125 "/></g></g></g><g fill="rgb(32.159424%, 44.309998%, 100%)" fill-opacity="1"><g transform="translate(195.67964, 213.232193)"><g><path d="M 11 -12 L 4.71875 -12 L 4.71875 -1.984375 C 4.71875 -1.691406 4.816406 -1.410156 5.015625 -1.140625 C 5.222656 -0.867188 5.445312 -0.734375 5.6875 -0.734375 C 6.914062 -0.734375 7.53125 -2.007812 7.53125 -4.5625 L 10.03125 -3.140625 C 9.625 -2.234375 9.070312 -1.476562 8.375 -0.875 C 7.675781 -0.269531 6.753906 0.03125 5.609375 0.03125 C 5.035156 0.0195312 4.507812 -0.128906 4.03125 -0.421875 C 3.5625 -0.722656 3.179688 -1.101562 2.890625 -1.5625 C 2.609375 -2.019531 2.46875 -2.476562 2.46875 -2.9375 L 2.46875 -12 L -0.125 -12 L -0.125 -13.5 L 2.46875 -13.5 L 2.46875 -17.671875 L 4.71875 -16.109375 L 4.71875 -13.5 L 11 -13.5 Z M 11 -12 "/></g></g></g><g fill="rgb(32.159424%, 44.309998%, 100%)" fill-opacity="1"><g transform="translate(209.069401, 213.232193)"><g><path d="M 4.203125 -14.796875 C 4.171875 -14.765625 4.078125 -14.75 3.921875 -14.75 C 3.785156 -14.75 3.664062 -14.765625 3.5625 -14.796875 C 2.96875 -15.960938 2.585938 -16.675781 2.421875 -16.9375 C 2.242188 -17.1875 2.015625 -17.347656 1.734375 -17.421875 C 1.453125 -17.492188 1.1875 -17.566406 0.9375 -17.640625 C 0.695312 -17.710938 0.503906 -17.875 0.359375 -18.125 C 0.328125 -18.175781 0.265625 -18.367188 0.171875 -18.703125 C 0.078125 -19.046875 -0.0976562 -19.441406 -0.359375 -19.890625 L -0.359375 -20.171875 L 0.125 -20.171875 C 1.09375 -19.867188 1.78125 -19.59375 2.1875 -19.34375 C 2.59375 -19.101562 2.851562 -18.867188 2.96875 -18.640625 C 3.082031 -18.421875 3.238281 -17.953125 3.4375 -17.234375 C 3.644531 -16.523438 3.890625 -15.890625 4.171875 -15.328125 C 4.179688 -15.253906 4.1875 -15.1875 4.1875 -15.125 C 4.195312 -15.0625 4.203125 -14.953125 4.203125 -14.796875 Z M 4.9375 -12 L -0.125 -12 L -0.125 -13.5 L 4.9375 -13.5 Z M 3.515625 0.28125 L 1.4375 -0.875 L 1.4375 -10.46875 L 3.515625 -10.46875 Z M 3.515625 0.28125 "/></g></g></g><g fill="rgb(32.159424%, 44.309998%, 100%)" fill-opacity="1"><g transform="translate(216.453541, 213.232193)"><g><path d="M 13.265625 -12 L 10.46875 -12 L 10.46875 -8.578125 C 10.46875 -8.503906 10.585938 -8.359375 10.828125 -8.140625 C 11.066406 -7.921875 11.273438 -7.695312 11.453125 -7.46875 C 11.640625 -7.25 11.8125 -6.914062 11.96875 -6.46875 C 12.132812 -6.03125 12.21875 -5.488281 12.21875 -4.84375 C 12.21875 -3.957031 11.992188 -3.132812 11.546875 -2.375 C 11.097656 -1.625 10.476562 -1.035156 9.6875 -0.609375 C 8.90625 -0.179688 8.039062 0.03125 7.09375 0.03125 C 6.476562 0.03125 5.789062 -0.128906 5.03125 -0.453125 C 4.28125 -0.773438 3.566406 -1.21875 2.890625 -1.78125 C 2.210938 -2.34375 1.664062 -2.976562 1.25 -3.6875 C 0.84375 -4.394531 0.640625 -5.125 0.640625 -5.875 C 0.640625 -6.425781 0.835938 -7.054688 1.234375 -7.765625 C 1.628906 -8.484375 2.203125 -9.097656 2.953125 -9.609375 C 3.703125 -10.128906 4.601562 -10.390625 5.65625 -10.390625 C 6.238281 -10.390625 7.097656 -10.238281 8.234375 -9.9375 C 8.285156 -9.9375 8.3125 -9.96875 8.3125 -10.03125 L 8.3125 -12 L -0.21875 -12 L -0.21875 -13.5 L 13.265625 -13.5 Z M 10.390625 -6.484375 C 10.390625 -7.117188 10.226562 -7.628906 9.90625 -8.015625 C 9.59375 -8.410156 9.238281 -8.679688 8.84375 -8.828125 C 8.445312 -8.984375 8.125 -9.0625 7.875 -9.0625 C 7.476562 -9.0625 6.972656 -8.945312 6.359375 -8.71875 C 5.753906 -8.488281 5.148438 -8.140625 4.546875 -7.671875 C 3.953125 -7.210938 3.457031 -6.632812 3.0625 -5.9375 C 2.664062 -5.238281 2.46875 -4.445312 2.46875 -3.5625 C 2.46875 -3.195312 2.59375 -2.84375 2.84375 -2.5 C 3.09375 -2.15625 3.414062 -1.867188 3.8125 -1.640625 C 4.21875 -1.421875 4.628906 -1.3125 5.046875 -1.3125 C 5.472656 -1.3125 6 -1.441406 6.625 -1.703125 C 7.257812 -1.972656 7.859375 -2.335938 8.421875 -2.796875 C 8.992188 -3.265625 9.460938 -3.8125 9.828125 -4.4375 C 10.203125 -5.070312 10.390625 -5.753906 10.390625 -6.484375 Z M 10.390625 -6.484375 "/></g></g></g><g fill="rgb(32.159424%, 44.309998%, 100%)" fill-opacity="1"><g transform="translate(232.044124, 213.232193)"><g><path d="M 13.25 -12 L -0.125 -12 L -0.125 -13.5 L 13.25 -13.5 Z M 10.578125 -6.546875 C 10.578125 -8.535156 9.632812 -9.53125 7.75 -9.53125 C 7.195312 -9.53125 6.632812 -9.367188 6.0625 -9.046875 C 5.488281 -8.722656 4.972656 -8.273438 4.515625 -7.703125 C 4.066406 -7.128906 3.703125 -6.445312 3.421875 -5.65625 C 3.148438 -4.875 3.015625 -4.054688 3.015625 -3.203125 L 3.015625 0.40625 L 0.96875 -0.65625 L 0.96875 -10.015625 L 3.109375 -10.015625 L 3.109375 -8.53125 C 3.285156 -8.664062 3.570312 -8.890625 3.96875 -9.203125 C 4.375 -9.515625 4.863281 -9.800781 5.4375 -10.0625 C 6.019531 -10.332031 6.644531 -10.46875 7.3125 -10.46875 C 7.96875 -10.46875 8.597656 -10.328125 9.203125 -10.046875 C 9.804688 -9.765625 10.34375 -9.367188 10.8125 -8.859375 C 11.289062 -8.359375 11.664062 -7.765625 11.9375 -7.078125 C 12.207031 -6.398438 12.34375 -5.671875 12.34375 -4.890625 C 12.34375 -4.003906 12.148438 -3.101562 11.765625 -2.1875 C 11.390625 -1.28125 10.789062 -0.375 9.96875 0.53125 L 7.5625 -0.96875 C 7.707031 -1.164062 7.984375 -1.453125 8.390625 -1.828125 C 8.796875 -2.210938 9.148438 -2.601562 9.453125 -3 C 9.765625 -3.394531 10.03125 -3.882812 10.25 -4.46875 C 10.46875 -5.050781 10.578125 -5.742188 10.578125 -6.546875 Z M 10.578125 -6.546875 "/></g></g></g><g fill="rgb(100%, 100%, 100%)" fill-opacity="1"><g transform="translate(118.898434, 186.879026)"><g><path d="M 5.03125 -17.71875 C 4.988281 -17.675781 4.875 -17.65625 4.6875 -17.65625 C 4.53125 -17.65625 4.394531 -17.675781 4.28125 -17.71875 C 3.5625 -19.125 3.101562 -19.976562 2.90625 -20.28125 C 2.6875 -20.582031 2.410156 -20.773438 2.078125 -20.859375 C 1.742188 -20.953125 1.429688 -21.039062 1.140625 -21.125 C 0.847656 -21.207031 0.613281 -21.40625 0.4375 -21.71875 C 0.394531 -21.769531 0.316406 -22 0.203125 -22.40625 C 0.0976562 -22.8125 -0.113281 -23.28125 -0.4375 -23.8125 L -0.4375 -24.15625 L 0.15625 -24.15625 C 1.3125 -23.800781 2.128906 -23.472656 2.609375 -23.171875 C 3.097656 -22.878906 3.410156 -22.597656 3.546875 -22.328125 C 3.679688 -22.054688 3.875 -21.492188 4.125 -20.640625 C 4.375 -19.796875 4.664062 -19.035156 5 -18.359375 C 5.007812 -18.273438 5.015625 -18.191406 5.015625 -18.109375 C 5.023438 -18.035156 5.03125 -17.90625 5.03125 -17.71875 Z M 5.90625 -14.375 L -0.15625 -14.375 L -0.15625 -16.15625 L 5.90625 -16.15625 Z M 4.21875 0.34375 L 1.71875 -1.046875 L 1.71875 -12.546875 L 4.21875 -12.546875 Z M 4.21875 0.34375 "/></g></g></g><g fill="rgb(100%, 100%, 100%)" fill-opacity="1"><g transform="translate(124.690163, 186.879026)"><g><path d="M 15.859375 -14.375 L -0.15625 -14.375 L -0.15625 -16.15625 L 15.859375 -16.15625 Z M 12.65625 -7.828125 C 12.65625 -10.210938 11.53125 -11.40625 9.28125 -11.40625 C 8.625 -11.40625 7.945312 -11.210938 7.25 -10.828125 C 6.5625 -10.441406 5.945312 -9.90625 5.40625 -9.21875 C 4.875 -8.53125 4.441406 -7.710938 4.109375 -6.765625 C 3.773438 -5.828125 3.609375 -4.851562 3.609375 -3.84375 L 3.609375 0.484375 L 1.15625 -0.796875 L 1.15625 -11.984375 L 3.71875 -11.984375 L 3.71875 -10.21875 C 3.925781 -10.375 4.269531 -10.640625 4.75 -11.015625 C 5.238281 -11.398438 5.828125 -11.75 6.515625 -12.0625 C 7.203125 -12.382812 7.945312 -12.546875 8.75 -12.546875 C 9.539062 -12.546875 10.296875 -12.375 11.015625 -12.03125 C 11.742188 -11.695312 12.390625 -11.222656 12.953125 -10.609375 C 13.523438 -10.003906 13.972656 -9.289062 14.296875 -8.46875 C 14.617188 -7.65625 14.78125 -6.785156 14.78125 -5.859375 C 14.78125 -4.804688 14.550781 -3.726562 14.09375 -2.625 C 13.644531 -1.53125 12.921875 -0.441406 11.921875 0.640625 L 9.0625 -1.15625 C 9.238281 -1.394531 9.566406 -1.742188 10.046875 -2.203125 C 10.535156 -2.660156 10.960938 -3.125 11.328125 -3.59375 C 11.703125 -4.0625 12.015625 -4.644531 12.265625 -5.34375 C 12.523438 -6.050781 12.65625 -6.878906 12.65625 -7.828125 Z M 12.65625 -7.828125 "/></g></g></g><g fill="rgb(100%, 100%, 100%)" fill-opacity="1"><g transform="translate(140.308475, 186.879026)"><g><path d="M 15.125 -14.375 L 13.5 -14.375 L 13.5 -8.734375 C 12.925781 -9.066406 12.101562 -9.359375 11.03125 -9.609375 C 9.957031 -9.859375 9.046875 -9.984375 8.296875 -9.984375 C 7.671875 -9.984375 6.921875 -9.910156 6.046875 -9.765625 C 5.179688 -9.617188 4.40625 -9.363281 3.71875 -9 C 3.03125 -8.632812 2.6875 -8.15625 2.6875 -7.5625 C 2.6875 -7.3125 2.785156 -7.050781 2.984375 -6.78125 C 3.191406 -6.507812 3.507812 -6.375 3.9375 -6.375 C 4.394531 -6.375 5.066406 -6.535156 5.953125 -6.859375 C 6.847656 -7.179688 7.503906 -7.40625 7.921875 -7.53125 C 8.347656 -7.65625 8.96875 -7.71875 9.78125 -7.71875 C 10.550781 -7.71875 11.28125 -7.578125 11.96875 -7.296875 C 12.65625 -7.023438 13.203125 -6.628906 13.609375 -6.109375 C 14.023438 -5.597656 14.234375 -5.003906 14.234375 -4.328125 C 14.234375 -3.523438 13.941406 -2.796875 13.359375 -2.140625 C 12.773438 -1.484375 12.070312 -0.96875 11.25 -0.59375 C 10.425781 -0.226562 9.644531 -0.0195312 8.90625 0.03125 C 9.625 0.75 10.304688 1.109375 10.953125 1.109375 C 11.160156 1.109375 11.378906 1.078125 11.609375 1.015625 L 13.125 3.46875 C 13.039062 3.539062 12.847656 3.625 12.546875 3.71875 C 12.242188 3.820312 11.804688 3.875 11.234375 3.875 C 10.410156 3.875 9.785156 3.640625 9.359375 3.171875 C 8.929688 2.703125 8.488281 2.070312 8.03125 1.28125 C 7.582031 0.488281 7.210938 0.09375 6.921875 0.09375 C 6.179688 0.0625 5.445312 -0.015625 4.71875 -0.140625 C 3.988281 -0.265625 3.3125 -0.519531 2.6875 -0.90625 C 2.0625 -1.289062 1.75 -1.820312 1.75 -2.5 C 1.75 -2.945312 1.898438 -3.265625 2.203125 -3.453125 C 2.503906 -3.648438 2.847656 -3.75 3.234375 -3.75 C 3.710938 -3.75 4.09375 -3.679688 4.375 -3.546875 C 4.664062 -3.410156 5.019531 -3.195312 5.4375 -2.90625 C 5.863281 -2.625 6.285156 -2.410156 6.703125 -2.265625 C 7.128906 -2.117188 7.703125 -2.046875 8.421875 -2.046875 C 8.921875 -2.046875 9.585938 -2.132812 10.421875 -2.3125 C 11.265625 -2.488281 12.007812 -2.753906 12.65625 -3.109375 C 13.300781 -3.460938 13.625 -3.890625 13.625 -4.390625 C 13.625 -4.671875 13.523438 -4.894531 13.328125 -5.0625 C 13.128906 -5.238281 12.898438 -5.359375 12.640625 -5.421875 C 12.378906 -5.492188 12.113281 -5.53125 11.84375 -5.53125 C 11.46875 -5.53125 11.070312 -5.472656 10.65625 -5.359375 C 10.25 -5.253906 9.457031 -5.039062 8.28125 -4.71875 C 7.101562 -4.40625 6.378906 -4.25 6.109375 -4.25 C 5.421875 -4.25 4.71875 -4.441406 4 -4.828125 C 3.28125 -5.222656 2.675781 -5.769531 2.1875 -6.46875 C 1.707031 -7.175781 1.460938 -7.945312 1.453125 -8.78125 C 1.453125 -9.6875 1.789062 -10.421875 2.46875 -10.984375 C 3.144531 -11.546875 3.953125 -11.945312 4.890625 -12.1875 C 5.835938 -12.425781 6.726562 -12.546875 7.5625 -12.546875 C 8.125 -12.546875 8.828125 -12.457031 9.671875 -12.28125 C 10.523438 -12.101562 11.171875 -11.957031 11.609375 -11.84375 L 11.609375 -14.375 L -0.234375 -14.375 L -0.234375 -16.15625 L 15.125 -16.15625 Z M 15.125 -14.375 "/></g></g></g><g fill="rgb(100%, 100%, 100%)" fill-opacity="1"><g transform="translate(155.28657, 186.879026)"><g><path d="M 13.1875 -14.375 L 5.640625 -14.375 L 5.640625 -2.390625 C 5.640625 -2.035156 5.757812 -1.691406 6 -1.359375 C 6.25 -1.035156 6.519531 -0.875 6.8125 -0.875 C 8.289062 -0.875 9.03125 -2.40625 9.03125 -5.46875 L 12.015625 -3.75 C 11.523438 -2.664062 10.859375 -1.765625 10.015625 -1.046875 C 9.179688 -0.328125 8.082031 0.03125 6.71875 0.03125 C 6.03125 0.0195312 5.398438 -0.160156 4.828125 -0.515625 C 4.253906 -0.867188 3.800781 -1.320312 3.46875 -1.875 C 3.132812 -2.425781 2.96875 -2.972656 2.96875 -3.515625 L 2.96875 -14.375 L -0.15625 -14.375 L -0.15625 -16.15625 L 2.96875 -16.15625 L 2.96875 -21.15625 L 5.640625 -19.296875 L 5.640625 -16.15625 L 13.1875 -16.15625 Z M 13.1875 -14.375 "/></g></g></g><g fill="rgb(100%, 100%, 100%)" fill-opacity="1"><g transform="translate(168.269571, 186.879026)"><g><path d="M 5.03125 -17.71875 C 4.988281 -17.675781 4.875 -17.65625 4.6875 -17.65625 C 4.53125 -17.65625 4.394531 -17.675781 4.28125 -17.71875 C 3.5625 -19.125 3.101562 -19.976562 2.90625 -20.28125 C 2.6875 -20.582031 2.410156 -20.773438 2.078125 -20.859375 C 1.742188 -20.953125 1.429688 -21.039062 1.140625 -21.125 C 0.847656 -21.207031 0.613281 -21.40625 0.4375 -21.71875 C 0.394531 -21.769531 0.316406 -22 0.203125 -22.40625 C 0.0976562 -22.8125 -0.113281 -23.28125 -0.4375 -23.8125 L -0.4375 -24.15625 L 0.15625 -24.15625 C 1.3125 -23.800781 2.128906 -23.472656 2.609375 -23.171875 C 3.097656 -22.878906 3.410156 -22.597656 3.546875 -22.328125 C 3.679688 -22.054688 3.875 -21.492188 4.125 -20.640625 C 4.375 -19.796875 4.664062 -19.035156 5 -18.359375 C 5.007812 -18.273438 5.015625 -18.191406 5.015625 -18.109375 C 5.023438 -18.035156 5.03125 -17.90625 5.03125 -17.71875 Z M 5.90625 -14.375 L -0.15625 -14.375 L -0.15625 -16.15625 L 5.90625 -16.15625 Z M 4.21875 0.34375 L 1.71875 -1.046875 L 1.71875 -12.546875 L 4.21875 -12.546875 Z M 4.21875 0.34375 "/></g></g></g><g fill="rgb(100%, 100%, 100%)" fill-opacity="1"><g transform="translate(174.061299, 186.879026)"><g><path d="M 13.1875 -14.375 L 5.640625 -14.375 L 5.640625 -2.390625 C 5.640625 -2.035156 5.757812 -1.691406 6 -1.359375 C 6.25 -1.035156 6.519531 -0.875 6.8125 -0.875 C 8.289062 -0.875 9.03125 -2.40625 9.03125 -5.46875 L 12.015625 -3.75 C 11.523438 -2.664062 10.859375 -1.765625 10.015625 -1.046875 C 9.179688 -0.328125 8.082031 0.03125 6.71875 0.03125 C 6.03125 0.0195312 5.398438 -0.160156 4.828125 -0.515625 C 4.253906 -0.867188 3.800781 -1.320312 3.46875 -1.875 C 3.132812 -2.425781 2.96875 -2.972656 2.96875 -3.515625 L 2.96875 -14.375 L -0.15625 -14.375 L -0.15625 -16.15625 L 2.96875 -16.15625 L 2.96875 -21.15625 L 5.640625 -19.296875 L 5.640625 -16.15625 L 13.1875 -16.15625 Z M 13.1875 -14.375 "/></g></g></g><g fill="rgb(100%, 100%, 100%)" fill-opacity="1"><g transform="translate(187.0443, 186.879026)"><g><path d="M 16.6875 -14.375 L 4.21875 -14.375 L 4.21875 -4.828125 C 4.238281 -4.128906 4.367188 -3.46875 4.609375 -2.84375 C 4.847656 -2.226562 5.203125 -1.734375 5.671875 -1.359375 C 6.140625 -0.984375 6.691406 -0.796875 7.328125 -0.796875 C 8.253906 -0.796875 9.035156 -1 9.671875 -1.40625 C 10.316406 -1.820312 10.820312 -2.320312 11.1875 -2.90625 C 11.5625 -3.5 11.828125 -4.078125 11.984375 -4.640625 C 12.148438 -5.203125 12.234375 -5.65625 12.234375 -6 L 12.234375 -11.921875 L 15.25 -11.921875 L 15.25 0.765625 C 15.039062 0.640625 14.59375 0.421875 13.90625 0.109375 C 13.21875 -0.191406 12.648438 -0.441406 12.203125 -0.640625 L 12.203125 -1.828125 C 11.679688 -1.453125 11.175781 -1.125 10.6875 -0.84375 C 10.207031 -0.5625 9.707031 -0.347656 9.1875 -0.203125 C 8.675781 -0.0664062 8.078125 0 7.390625 0 C 6.390625 0 5.421875 -0.253906 4.484375 -0.765625 C 3.546875 -1.285156 2.789062 -1.992188 2.21875 -2.890625 C 1.65625 -3.785156 1.375 -4.753906 1.375 -5.796875 L 1.375 -14.375 L -0.4375 -14.375 L -0.4375 -16.15625 L 16.6875 -16.15625 Z M 16.6875 -14.375 "/></g></g></g><g fill="rgb(100%, 100%, 100%)" fill-opacity="1"><g transform="translate(203.600604, 186.879026)"><g><path d="M 13.1875 -14.375 L 5.640625 -14.375 L 5.640625 -2.390625 C 5.640625 -2.035156 5.757812 -1.691406 6 -1.359375 C 6.25 -1.035156 6.519531 -0.875 6.8125 -0.875 C 8.289062 -0.875 9.03125 -2.40625 9.03125 -5.46875 L 12.015625 -3.75 C 11.523438 -2.664062 10.859375 -1.765625 10.015625 -1.046875 C 9.179688 -0.328125 8.082031 0.03125 6.71875 0.03125 C 6.03125 0.0195312 5.398438 -0.160156 4.828125 -0.515625 C 4.253906 -0.867188 3.800781 -1.320312 3.46875 -1.875 C 3.132812 -2.425781 2.96875 -2.972656 2.96875 -3.515625 L 2.96875 -14.375 L -0.15625 -14.375 L -0.15625 -16.15625 L 2.96875 -16.15625 L 2.96875 -21.15625 L 5.640625 -19.296875 L 5.640625 -16.15625 L 13.1875 -16.15625 Z M 13.1875 -14.375 "/></g></g></g><g fill="rgb(100%, 100%, 100%)" fill-opacity="1"><g transform="translate(216.583605, 186.879026)"><g><path d="M 5.03125 -17.71875 C 4.988281 -17.675781 4.875 -17.65625 4.6875 -17.65625 C 4.53125 -17.65625 4.394531 -17.675781 4.28125 -17.71875 C 3.5625 -19.125 3.101562 -19.976562 2.90625 -20.28125 C 2.6875 -20.582031 2.410156 -20.773438 2.078125 -20.859375 C 1.742188 -20.953125 1.429688 -21.039062 1.140625 -21.125 C 0.847656 -21.207031 0.613281 -21.40625 0.4375 -21.71875 C 0.394531 -21.769531 0.316406 -22 0.203125 -22.40625 C 0.0976562 -22.8125 -0.113281 -23.28125 -0.4375 -23.8125 L -0.4375 -24.15625 L 0.15625 -24.15625 C 1.3125 -23.800781 2.128906 -23.472656 2.609375 -23.171875 C 3.097656 -22.878906 3.410156 -22.597656 3.546875 -22.328125 C 3.679688 -22.054688 3.875 -21.492188 4.125 -20.640625 C 4.375 -19.796875 4.664062 -19.035156 5 -18.359375 C 5.007812 -18.273438 5.015625 -18.191406 5.015625 -18.109375 C 5.023438 -18.035156 5.03125 -17.90625 5.03125 -17.71875 Z M 5.90625 -14.375 L -0.15625 -14.375 L -0.15625 -16.15625 L 5.90625 -16.15625 Z M 4.21875 0.34375 L 1.71875 -1.046875 L 1.71875 -12.546875 L 4.21875 -12.546875 Z M 4.21875 0.34375 "/></g></g></g><g fill="rgb(100%, 100%, 100%)" fill-opacity="1"><g transform="translate(222.375333, 186.879026)"><g><path d="M 15.890625 -14.375 L 12.546875 -14.375 L 12.546875 -10.28125 C 12.546875 -10.1875 12.6875 -10.007812 12.96875 -9.75 C 13.25 -9.488281 13.5 -9.222656 13.71875 -8.953125 C 13.945312 -8.679688 14.15625 -8.28125 14.34375 -7.75 C 14.539062 -7.21875 14.640625 -6.566406 14.640625 -5.796875 C 14.640625 -4.742188 14.367188 -3.765625 13.828125 -2.859375 C 13.296875 -1.953125 12.554688 -1.242188 11.609375 -0.734375 C 10.671875 -0.222656 9.632812 0.03125 8.5 0.03125 C 7.757812 0.03125 6.9375 -0.15625 6.03125 -0.53125 C 5.125 -0.914062 4.265625 -1.445312 3.453125 -2.125 C 2.648438 -2.800781 2 -3.5625 1.5 -4.40625 C 1.007812 -5.257812 0.765625 -6.140625 0.765625 -7.046875 C 0.765625 -7.703125 1 -8.457031 1.46875 -9.3125 C 1.945312 -10.164062 2.632812 -10.898438 3.53125 -11.515625 C 4.4375 -12.140625 5.519531 -12.453125 6.78125 -12.453125 C 7.46875 -12.453125 8.492188 -12.269531 9.859375 -11.90625 C 9.921875 -11.90625 9.953125 -11.941406 9.953125 -12.015625 L 9.953125 -14.375 L -0.265625 -14.375 L -0.265625 -16.15625 L 15.890625 -16.15625 Z M 12.453125 -7.78125 C 12.453125 -8.53125 12.257812 -9.140625 11.875 -9.609375 C 11.488281 -10.078125 11.0625 -10.398438 10.59375 -10.578125 C 10.125 -10.765625 9.734375 -10.859375 9.421875 -10.859375 C 8.953125 -10.859375 8.347656 -10.71875 7.609375 -10.4375 C 6.878906 -10.164062 6.15625 -9.753906 5.4375 -9.203125 C 4.726562 -8.648438 4.140625 -7.953125 3.671875 -7.109375 C 3.203125 -6.273438 2.96875 -5.332031 2.96875 -4.28125 C 2.96875 -3.84375 3.113281 -3.414062 3.40625 -3 C 3.707031 -2.582031 4.09375 -2.238281 4.5625 -1.96875 C 5.039062 -1.707031 5.535156 -1.578125 6.046875 -1.578125 C 6.554688 -1.578125 7.1875 -1.734375 7.9375 -2.046875 C 8.6875 -2.367188 9.398438 -2.804688 10.078125 -3.359375 C 10.765625 -3.910156 11.332031 -4.5625 11.78125 -5.3125 C 12.226562 -6.070312 12.453125 -6.894531 12.453125 -7.78125 Z M 12.453125 -7.78125 "/></g></g></g><g fill="rgb(100%, 100%, 100%)" fill-opacity="1"><g transform="translate(237.993645, 186.879026)"><g><path d="M 15.859375 -14.375 L -0.15625 -14.375 L -0.15625 -16.15625 L 15.859375 -16.15625 Z M 12.65625 -7.828125 C 12.65625 -10.210938 11.53125 -11.40625 9.28125 -11.40625 C 8.625 -11.40625 7.945312 -11.210938 7.25 -10.828125 C 6.5625 -10.441406 5.945312 -9.90625 5.40625 -9.21875 C 4.875 -8.53125 4.441406 -7.710938 4.109375 -6.765625 C 3.773438 -5.828125 3.609375 -4.851562 3.609375 -3.84375 L 3.609375 0.484375 L 1.15625 -0.796875 L 1.15625 -11.984375 L 3.71875 -11.984375 L 3.71875 -10.21875 C 3.925781 -10.375 4.269531 -10.640625 4.75 -11.015625 C 5.238281 -11.398438 5.828125 -11.75 6.515625 -12.0625 C 7.203125 -12.382812 7.945312 -12.546875 8.75 -12.546875 C 9.539062 -12.546875 10.296875 -12.375 11.015625 -12.03125 C 11.742188 -11.695312 12.390625 -11.222656 12.953125 -10.609375 C 13.523438 -10.003906 13.972656 -9.289062 14.296875 -8.46875 C 14.617188 -7.65625 14.78125 -6.785156 14.78125 -5.859375 C 14.78125 -4.804688 14.550781 -3.726562 14.09375 -2.625 C 13.644531 -1.53125 12.921875 -0.441406 11.921875 0.640625 L 9.0625 -1.15625 C 9.238281 -1.394531 9.566406 -1.742188 10.046875 -2.203125 C 10.535156 -2.660156 10.960938 -3.125 11.328125 -3.59375 C 11.703125 -4.0625 12.015625 -4.644531 12.265625 -5.34375 C 12.523438 -6.050781 12.65625 -6.878906 12.65625 -7.828125 Z M 12.65625 -7.828125 "/></g></g></g><g fill="rgb(100%, 100%, 100%)" fill-opacity="1"><g transform="translate(253.611957, 186.879026)"><g><path d="M 14.546875 -14.375 L 4.625 -14.375 L 4.625 -11.984375 C 4.675781 -11.984375 4.71875 -11.960938 4.75 -11.921875 C 4.78125 -11.890625 4.816406 -11.875 4.859375 -11.875 C 4.835938 -11.875 5.039062 -11.929688 5.46875 -12.046875 C 5.894531 -12.160156 6.382812 -12.265625 6.9375 -12.359375 C 7.5 -12.460938 8.039062 -12.515625 8.5625 -12.515625 C 9.75 -12.515625 10.6875 -12.347656 11.375 -12.015625 C 12.0625 -11.691406 12.554688 -11.226562 12.859375 -10.625 C 13.160156 -10.03125 13.34375 -9.363281 13.40625 -8.625 C 13.46875 -7.882812 13.5 -6.867188 13.5 -5.578125 L 13.5 0.15625 C 12.738281 -0.144531 12.195312 -0.363281 11.875 -0.5 C 11.550781 -0.644531 11.304688 -0.75 11.140625 -0.8125 C 11.140625 -1.132812 11.078125 -1.34375 10.953125 -1.4375 C 10.617188 -1.238281 10.25 -1.03125 9.84375 -0.8125 C 9.4375 -0.59375 8.90625 -0.394531 8.25 -0.21875 C 7.59375 -0.0507812 6.8125 0.03125 5.90625 0.03125 C 5.039062 0.03125 4.195312 -0.125 3.375 -0.4375 C 2.550781 -0.757812 1.882812 -1.21875 1.375 -1.8125 C 0.863281 -2.40625 0.609375 -3.070312 0.609375 -3.8125 C 0.609375 -4.507812 0.929688 -5.238281 1.578125 -6 C 2.222656 -6.757812 3.085938 -7.390625 4.171875 -7.890625 C 5.253906 -8.390625 6.4375 -8.640625 7.71875 -8.640625 C 8.40625 -8.640625 9.0625 -8.535156 9.6875 -8.328125 C 10.320312 -8.128906 10.804688 -7.90625 11.140625 -7.65625 L 11.140625 -9.03125 C 10.722656 -9.5625 10.320312 -9.921875 9.9375 -10.109375 C 9.5625 -10.296875 8.972656 -10.390625 8.171875 -10.390625 C 7.128906 -10.347656 6.304688 -10.257812 5.703125 -10.125 C 5.109375 -10 4.460938 -9.789062 3.765625 -9.5 C 3.078125 -9.21875 2.503906 -9 2.046875 -8.84375 L 2.046875 -9.953125 C 2.109375 -10.003906 2.203125 -10.082031 2.328125 -10.1875 C 2.460938 -10.300781 2.550781 -10.382812 2.59375 -10.4375 C 2.644531 -10.488281 2.675781 -10.519531 2.6875 -10.53125 L 2.6875 -14.375 L -0.375 -14.375 L -0.375 -16.15625 L 14.546875 -16.15625 Z M 11.140625 -4.9375 C 11.140625 -5.394531 10.625 -5.773438 9.59375 -6.078125 C 8.570312 -6.390625 7.847656 -6.546875 7.421875 -6.546875 C 6.335938 -6.546875 5.351562 -6.320312 4.46875 -5.875 C 3.582031 -5.425781 2.882812 -4.894531 2.375 -4.28125 C 1.875 -3.675781 1.625 -3.179688 1.625 -2.796875 C 1.738281 -2.390625 2.039062 -2.109375 2.53125 -1.953125 C 3.019531 -1.796875 3.535156 -1.71875 4.078125 -1.71875 C 5.085938 -1.71875 6.019531 -1.847656 6.875 -2.109375 C 7.738281 -2.378906 8.488281 -2.707031 9.125 -3.09375 C 9.769531 -3.476562 10.265625 -3.847656 10.609375 -4.203125 C 10.960938 -4.566406 11.140625 -4.8125 11.140625 -4.9375 Z M 11.140625 -4.9375 "/></g></g></g><g fill="rgb(100%, 100%, 100%)" fill-opacity="1"><g transform="translate(268.098723, 186.879026)"><g><path d="M 6.578125 -14.375 L 5 -14.375 L 5 -16.15625 L 6.578125 -16.15625 Z M 1.484375 -14.375 L -0.203125 -14.375 L -0.203125 -16.15625 L 1.484375 -16.15625 Z M 4.515625 -17.953125 L 4.515625 0.375 C 4.472656 0.375 4.335938 0.316406 4.109375 0.203125 C 3.890625 0.0859375 3.632812 -0.0390625 3.34375 -0.1875 C 3.0625 -0.34375 2.765625 -0.492188 2.453125 -0.640625 C 2.148438 -0.796875 1.984375 -0.875 1.953125 -0.875 L 1.953125 -17.9375 C 1.898438 -19.113281 1.691406 -20.21875 1.328125 -21.25 C 0.972656 -22.28125 0.578125 -23.140625 0.140625 -23.828125 C -0.296875 -24.515625 -0.769531 -25.144531 -1.28125 -25.71875 C -1.800781 -26.289062 -2.117188 -26.644531 -2.234375 -26.78125 L 0.9375 -26.78125 C 1.78125 -25.9375 2.472656 -24.96875 3.015625 -23.875 C 3.566406 -22.789062 3.953125 -21.734375 4.171875 -20.703125 C 4.398438 -19.679688 4.515625 -18.765625 4.515625 -17.953125 Z M 4.515625 -17.953125 "/></g></g></g><g fill="rgb(100%, 100%, 100%)" fill-opacity="1"><g transform="translate(274.441335, 186.879026)"><g/></g></g><g fill="rgb(100%, 100%, 100%)" fill-opacity="1"><g transform="translate(284.357251, 186.879026)"><g><path d="M 15.6875 -14.375 L 11.609375 -14.375 L 11.609375 -11.4375 C 11.878906 -11.375 12.101562 -11.300781 12.28125 -11.21875 C 12.457031 -11.132812 12.570312 -11.070312 12.625 -11.03125 L 12.625 -9.28125 C 11.445312 -9.6875 10.21875 -9.890625 8.9375 -9.890625 C 8.0625 -9.890625 7.113281 -9.707031 6.09375 -9.34375 C 5.070312 -8.988281 4.546875 -8.4375 4.515625 -7.6875 C 4.515625 -6.894531 5.640625 -6.5 7.890625 -6.5 C 8.078125 -6.5 8.398438 -6.507812 8.859375 -6.53125 C 9.316406 -6.550781 9.613281 -6.566406 9.75 -6.578125 L 9.75 -5.21875 C 9.039062 -5.195312 8.21875 -5.15625 7.28125 -5.09375 C 6.34375 -5.039062 5.503906 -4.859375 4.765625 -4.546875 C 4.023438 -4.242188 3.65625 -3.742188 3.65625 -3.046875 C 3.65625 -2.472656 3.992188 -2.003906 4.671875 -1.640625 C 5.359375 -1.285156 6.128906 -1.109375 6.984375 -1.109375 C 8.703125 -1.109375 10.210938 -1.5 11.515625 -2.28125 C 12.828125 -3.070312 13.925781 -4.109375 14.8125 -5.390625 L 14.8125 -1.625 C 13.757812 -0.957031 12.742188 -0.519531 11.765625 -0.3125 C 10.785156 -0.101562 9.78125 0 8.75 0 C 7.75 0 6.617188 -0.148438 5.359375 -0.453125 C 4.109375 -0.753906 3.035156 -1.191406 2.140625 -1.765625 C 1.242188 -2.335938 0.796875 -3 0.796875 -3.75 C 0.796875 -4.519531 1.082031 -5.125 1.65625 -5.5625 C 2.238281 -6.007812 2.90625 -6.414062 3.65625 -6.78125 C 3.257812 -7.007812 2.929688 -7.195312 2.671875 -7.34375 C 2.410156 -7.488281 2.195312 -7.664062 2.03125 -7.875 C 1.875 -8.082031 1.796875 -8.359375 1.796875 -8.703125 C 1.796875 -9.359375 2.0625 -9.90625 2.59375 -10.34375 C 3.125 -10.78125 3.785156 -11.113281 4.578125 -11.34375 C 5.378906 -11.570312 6.191406 -11.726562 7.015625 -11.8125 C 7.835938 -11.90625 8.613281 -11.953125 9.34375 -11.953125 L 9.34375 -14.375 L -0.203125 -14.375 L -0.203125 -16.15625 L 15.6875 -16.15625 Z M 15.6875 -14.375 "/></g></g></g><g fill="rgb(100%, 100%, 100%)" fill-opacity="1"><g transform="translate(299.841564, 186.879026)"><g><path d="M 14.90625 -14.375 L -0.15625 -14.375 L -0.15625 -16.15625 L 14.90625 -16.15625 Z M 13.671875 -9.03125 C 13.671875 -8.382812 13.304688 -7.71875 12.578125 -7.03125 C 11.847656 -6.34375 11.234375 -5.878906 10.734375 -5.640625 L 8.5 -8.171875 C 9.332031 -8.253906 10.035156 -8.554688 10.609375 -9.078125 C 11.179688 -9.597656 11.46875 -10.113281 11.46875 -10.625 C 11.46875 -10.832031 11.300781 -11.082031 10.96875 -11.375 C 10.644531 -11.664062 10.21875 -11.8125 9.6875 -11.8125 C 9.050781 -11.8125 8.320312 -11.507812 7.5 -10.90625 C 6.6875 -10.3125 5.992188 -9.539062 5.421875 -8.59375 C 4.859375 -7.65625 4.578125 -6.710938 4.578125 -5.765625 L 4.578125 0.546875 L 1.71875 -0.9375 L 1.71875 -11.953125 L 4.609375 -11.953125 L 4.609375 -10.828125 C 4.679688 -10.910156 4.96875 -11.09375 5.46875 -11.375 C 5.976562 -11.664062 6.566406 -11.925781 7.234375 -12.15625 C 7.910156 -12.394531 8.59375 -12.515625 9.28125 -12.515625 C 9.851562 -12.515625 10.484375 -12.367188 11.171875 -12.078125 C 11.867188 -11.796875 12.457031 -11.382812 12.9375 -10.84375 C 13.425781 -10.3125 13.671875 -9.707031 13.671875 -9.03125 Z M 13.671875 -9.03125 "/></g></g></g><g fill="rgb(100%, 100%, 100%)" fill-opacity="1"><g transform="translate(314.477218, 186.879026)"><g><path d="M 16.90625 -14.375 L -0.171875 -14.375 L -0.171875 -16.15625 L 16.90625 -16.15625 Z M 15.71875 -6.140625 C 15.71875 -5.054688 15.390625 -4.035156 14.734375 -3.078125 C 14.078125 -2.117188 13.265625 -1.359375 12.296875 -0.796875 C 11.328125 -0.242188 10.421875 0.03125 9.578125 0.03125 C 8.804688 0.03125 7.984375 -0.28125 7.109375 -0.90625 C 6.234375 -1.53125 5.15625 -2.445312 3.875 -3.65625 L 3.875 8.96875 L 1.484375 7.71875 L 1.484375 -11.984375 L 3.8125 -11.984375 L 3.8125 -8.359375 C 3.988281 -8.546875 4.285156 -8.863281 4.703125 -9.3125 C 5.128906 -9.757812 5.613281 -10.226562 6.15625 -10.71875 C 6.707031 -11.207031 7.3125 -11.640625 7.96875 -12.015625 C 8.625 -12.398438 9.238281 -12.59375 9.8125 -12.59375 C 10.363281 -12.59375 10.976562 -12.40625 11.65625 -12.03125 C 12.332031 -11.664062 12.976562 -11.175781 13.59375 -10.5625 C 14.21875 -9.945312 14.726562 -9.25 15.125 -8.46875 C 15.519531 -7.6875 15.71875 -6.910156 15.71875 -6.140625 Z M 14.234375 -7.859375 C 14.234375 -8.097656 14.132812 -8.429688 13.9375 -8.859375 C 13.75 -9.285156 13.457031 -9.675781 13.0625 -10.03125 C 12.664062 -10.382812 12.175781 -10.5625 11.59375 -10.5625 C 10.9375 -10.5625 10.195312 -10.34375 9.375 -9.90625 C 8.5625 -9.46875 7.785156 -8.914062 7.046875 -8.25 C 6.316406 -7.59375 5.71875 -6.921875 5.25 -6.234375 C 4.78125 -5.546875 4.546875 -4.984375 4.546875 -4.546875 C 4.546875 -4.234375 4.71875 -3.914062 5.0625 -3.59375 C 5.40625 -3.269531 5.847656 -2.992188 6.390625 -2.765625 C 6.941406 -2.546875 7.488281 -2.4375 8.03125 -2.4375 C 8.925781 -2.4375 9.757812 -2.628906 10.53125 -3.015625 C 11.3125 -3.398438 11.972656 -3.875 12.515625 -4.4375 C 13.054688 -5 13.476562 -5.59375 13.78125 -6.21875 C 14.082031 -6.84375 14.234375 -7.390625 14.234375 -7.859375 Z M 14.234375 -7.859375 "/></g></g></g></svg>