<?xml version="1.0" standalone="no"?>
<!DOCTYPE svg PUBLIC "-//W3C//DTD SVG 20010904//EN"
 "http://www.w3.org/TR/2001/REC-SVG-20010904/DTD/svg10.dtd">
<svg version="1.0" xmlns="http://www.w3.org/2000/svg"
 width="421.000000pt" height="119.000000pt" viewBox="0 0 421.000000 119.000000"
 preserveAspectRatio="xMidYMid meet">
<metadata>
Created by potrace 1.16, written by Peter Selinger 2001-2019
</metadata>
<g transform="translate(0.000000,119.000000) scale(0.100000,-0.100000)"
fill="#000000" stroke="none">
<path d="M110 593 l0 -278 113 -27 c69 -17 146 -44 202 -72 l90 -44 -50 45
c-51 45 -176 112 -252 134 l-43 12 0 254 0 253 -30 0 -30 0 0 -277z"/>
<path d="M1170 615 l0 -255 -27 -6 c-55 -13 -149 -57 -213 -99 -105 -70 -109
-85 -9 -37 52 26 134 55 199 70 l110 27 0 278 0 277 -30 0 -30 0 0 -255z"/>
<path d="M1580 575 c0 -2 9 -19 20 -37 11 -18 20 -45 20 -60 0 -28 0 -28 -70
-28 -40 0 -70 -4 -70 -10 0 -6 30 -10 71 -10 l72 0 -7 -47 c-10 -75 -70 -121
-96 -74 -13 25 -5 46 26 66 18 12 29 13 44 5 28 -15 25 -4 -5 16 -31 20 -61
11 -79 -24 -17 -34 -7 -65 30 -88 24 -16 29 -17 53 -3 24 14 28 14 41 0 13
-14 15 -6 18 64 2 48 8 82 15 87 9 6 9 10 1 16 -6 4 -14 25 -18 46 -9 46 -33
86 -52 86 -8 0 -14 -2 -14 -5z"/>
</g>
</svg>
