<svg xmlns="http://www.w3.org/2000/svg" xmlns:xlink="http://www.w3.org/1999/xlink" width="969" zoomAndPan="magnify" viewBox="0 0 726.75 263.250001" height="351" preserveAspectRatio="xMidYMid meet" version="1.0"><defs><clipPath id="id1"><path d="M 89.65625 107 L 145 107 L 145 201.007812 L 89.65625 201.007812 Z M 89.65625 107 " clip-rule="nonzero"/></clipPath><clipPath id="id2"><path d="M 179 107 L 234.449219 107 L 234.449219 201.007812 L 179 201.007812 Z M 179 107 " clip-rule="nonzero"/></clipPath><clipPath id="id3"><path d="M 122 82.074219 L 202 82.074219 L 202 198 L 122 198 Z M 122 82.074219 " clip-rule="nonzero"/></clipPath></defs><g clip-path="url(#id1)"><path fill="rgb(7.839966%, 36.468506%, 62.748718%)" d="M 97.851562 173.613281 L 97.832031 108.28125 C 95.328125 107.828125 92.628906 107.558594 89.664062 107.558594 L 89.664062 180.714844 C 89.664062 180.714844 122.476562 184.585938 144.554688 201.003906 C 134.351562 189.191406 119.117188 179.390625 97.851562 173.613281 " fill-opacity="1" fill-rule="nonzero"/></g><path fill="rgb(33.729553%, 68.238831%, 100%)" d="M 114.414062 159.324219 L 114.363281 98.46875 C 111.808594 97.226562 109.035156 96.128906 106 95.238281 L 106 168.402344 C 106 168.402344 132.5625 175.496094 150.789062 196.390625 C 142.417969 182.050781 130.574219 167.546875 114.414062 159.324219 " fill-opacity="1" fill-rule="nonzero"/><g clip-path="url(#id2)"><path fill="rgb(7.839966%, 36.468506%, 62.748718%)" d="M 226.246094 173.613281 L 226.265625 108.28125 C 228.769531 107.828125 231.472656 107.558594 234.433594 107.558594 L 234.433594 180.714844 C 234.433594 180.714844 201.628906 184.585938 179.550781 201.003906 C 189.753906 189.191406 204.988281 179.390625 226.246094 173.613281 " fill-opacity="1" fill-rule="nonzero"/></g><path fill="rgb(33.729553%, 68.238831%, 100%)" d="M 209.691406 159.324219 L 209.738281 98.46875 C 212.296875 97.226562 215.0625 96.128906 218.097656 95.238281 L 218.097656 168.402344 C 218.097656 168.402344 191.539062 175.496094 173.308594 196.390625 C 181.679688 182.050781 193.53125 167.546875 209.691406 159.324219 " fill-opacity="1" fill-rule="nonzero"/><g clip-path="url(#id3)"><path fill="rgb(100%, 50.979614%, 6.269836%)" d="M 162.050781 123.335938 C 162.050781 123.335938 151.210938 100.46875 122.527344 82.074219 L 122.527344 155.238281 C 122.527344 155.238281 143.988281 169.464844 160.738281 197.839844 L 160.738281 159.378906 C 158.476562 158.867188 156.800781 156.402344 156.800781 154.28125 C 156.800781 151.761719 159.152344 149.015625 162.050781 149.015625 C 164.949219 149.015625 167.304688 151.761719 167.304688 154.28125 C 167.304688 156.402344 165.621094 158.867188 163.367188 159.378906 L 163.367188 197.839844 C 180.117188 169.464844 201.578125 155.238281 201.578125 155.238281 L 201.578125 82.074219 C 172.894531 100.46875 162.050781 123.335938 162.050781 123.335938 " fill-opacity="1" fill-rule="nonzero"/></g><path fill="rgb(36.859131%, 9.01947%, 92.158508%)" d="M 262.769531 165.097656 L 256.925781 165.097656 L 256.925781 169.324219 C 257.304688 169.421875 257.613281 169.527344 257.867188 169.648438 C 258.136719 169.757812 258.304688 169.835938 258.378906 169.890625 L 258.378906 172.421875 C 256.671875 171.851562 254.90625 171.5625 253.074219 171.5625 C 251.816406 171.5625 250.449219 171.824219 248.980469 172.34375 C 247.507812 172.847656 246.746094 173.636719 246.691406 174.710938 C 246.691406 175.863281 248.3125 176.4375 251.566406 176.4375 C 251.835938 176.4375 252.292969 176.421875 252.941406 176.382812 C 253.601562 176.347656 254.03125 176.320312 254.234375 176.300781 L 254.234375 178.265625 C 253.210938 178.308594 252.023438 178.367188 250.675781 178.457031 C 249.332031 178.53125 248.125 178.792969 247.070312 179.238281 C 246.003906 179.667969 245.480469 180.386719 245.480469 181.390625 C 245.480469 182.21875 245.964844 182.894531 246.933594 183.410156 C 247.917969 183.9375 249.019531 184.191406 250.246094 184.191406 C 252.722656 184.191406 254.894531 183.628906 256.765625 182.496094 C 258.648438 181.363281 260.238281 179.875 261.53125 178.023438 L 261.53125 183.4375 C 260.023438 184.40625 258.554688 185.046875 257.140625 185.351562 C 255.722656 185.640625 254.273438 185.78125 252.804688 185.78125 C 251.363281 185.78125 249.742188 185.566406 247.929688 185.136719 C 246.113281 184.691406 244.5625 184.058594 243.269531 183.25 C 241.976562 182.429688 241.332031 181.464844 241.332031 180.367188 C 241.332031 179.277344 241.742188 178.414062 242.570312 177.78125 C 243.414062 177.136719 244.382812 176.558594 245.480469 176.03125 C 244.902344 175.707031 244.429688 175.441406 244.050781 175.222656 C 243.675781 175.007812 243.367188 174.753906 243.136719 174.441406 C 242.902344 174.140625 242.785156 173.742188 242.785156 173.257812 C 242.785156 172.328125 243.164062 171.546875 243.917969 170.914062 C 244.683594 170.269531 245.648438 169.785156 246.800781 169.460938 C 247.945312 169.125 249.117188 168.886719 250.300781 168.761719 C 251.484375 168.640625 252.597656 168.570312 253.640625 168.570312 L 253.640625 165.097656 L 239.90625 165.097656 L 239.90625 162.511719 L 262.769531 162.511719 Z M 262.769531 165.097656 " fill-opacity="1" fill-rule="nonzero"/><path fill="rgb(36.859131%, 9.01947%, 92.158508%)" d="M 291.550781 165.097656 L 288.75 165.097656 L 288.695312 186.050781 L 284.789062 184.355469 L 284.789062 181.3125 C 283.660156 182.785156 282.5625 183.894531 281.503906 184.652344 C 280.460938 185.40625 279.28125 185.78125 277.976562 185.78125 C 276.71875 185.78125 275.308594 185.289062 273.746094 184.300781 C 272.199219 183.296875 270.878906 182.011719 269.789062 180.449219 C 268.691406 178.886719 268.144531 177.324219 268.144531 175.761719 C 268.179688 175.191406 268.386719 174.46875 268.765625 173.609375 C 269.140625 172.734375 269.695312 171.851562 270.433594 170.96875 C 271.167969 170.074219 272.058594 169.339844 273.101562 168.761719 C 274.136719 168.167969 275.308594 167.871094 276.601562 167.871094 C 278.070312 167.871094 279.351562 168.324219 280.425781 169.21875 C 281.503906 170.101562 282.957031 171.546875 284.789062 173.554688 L 284.789062 165.097656 L 266.449219 165.097656 L 266.449219 162.511719 L 284.789062 162.511719 C 284.789062 161.023438 284.75 159.792969 284.683594 158.820312 C 284.609375 157.839844 284.394531 156.761719 284.035156 155.589844 C 283.691406 154.425781 283.121094 153.105469 282.3125 151.632812 C 281.503906 150.164062 280.425781 148.519531 279.082031 146.703125 C 279.027344 146.703125 279 146.589844 279 146.351562 C 279 146.191406 279.035156 146.082031 279.109375 146.027344 L 283.203125 146.027344 C 284.5625 147.523438 285.828125 149.515625 287 152.007812 C 288.164062 154.484375 288.75 157.988281 288.75 162.511719 L 291.550781 162.511719 Z M 283.765625 174.847656 C 283.765625 173.953125 283.253906 173.070312 282.230469 172.207031 C 281.207031 171.347656 279.984375 170.914062 278.570312 170.914062 C 278.03125 170.914062 277.148438 171.203125 275.929688 171.777344 C 274.722656 172.335938 273.621094 173.171875 272.617188 174.28125 C 271.628906 175.398438 271.136719 176.726562 271.136719 178.265625 C 271.136719 179.742188 271.546875 180.945312 272.375 181.875 C 273.214844 182.8125 274.164062 183.277344 275.230469 183.277344 C 276.449219 183.277344 277.71875 182.757812 279.054688 181.714844 C 280.398438 180.679688 281.519531 179.480469 282.421875 178.132812 C 283.316406 176.773438 283.765625 175.675781 283.765625 174.847656 Z M 283.765625 174.847656 " fill-opacity="1" fill-rule="nonzero"/><path fill="rgb(36.859131%, 9.01947%, 92.158508%)" d="M 319.59375 165.097656 L 301.65625 165.097656 L 301.65625 178.832031 C 301.691406 179.84375 301.878906 180.792969 302.222656 181.6875 C 302.578125 182.570312 303.089844 183.289062 303.757812 183.84375 C 304.4375 184.382812 305.238281 184.652344 306.15625 184.652344 C 307.480469 184.652344 308.605469 184.355469 309.519531 183.761719 C 310.449219 183.167969 311.175781 182.457031 311.703125 181.605469 C 312.242188 180.746094 312.617188 179.910156 312.832031 179.101562 C 313.0625 178.292969 313.183594 177.640625 313.183594 177.136719 L 313.183594 168.597656 L 317.546875 168.597656 L 317.546875 186.886719 C 317.238281 186.703125 316.589844 186.386719 315.609375 185.941406 C 314.617188 185.511719 313.804688 185.15625 313.15625 184.867188 L 313.15625 183.140625 C 312.402344 183.679688 311.675781 184.160156 310.976562 184.570312 C 310.273438 184.988281 309.554688 185.289062 308.820312 185.484375 C 308.078125 185.6875 307.21875 185.78125 306.234375 185.78125 C 304.792969 185.78125 303.40625 185.417969 302.0625 184.675781 C 300.714844 183.921875 299.625 182.914062 298.800781 181.632812 C 297.972656 180.339844 297.5625 178.941406 297.5625 177.433594 L 297.5625 165.097656 L 294.976562 165.097656 L 294.976562 162.511719 L 319.59375 162.511719 Z M 319.59375 165.097656 " fill-opacity="1" fill-rule="nonzero"/><path fill="rgb(32.159424%, 44.309998%, 100%)" d="M 346.511719 165.097656 L 342.039062 165.097656 L 342.039062 171.078125 C 342.957031 171.9375 343.554688 172.550781 343.84375 172.90625 C 344.128906 173.269531 344.464844 173.929688 344.839844 174.902344 L 341.984375 174.902344 C 341.984375 173.25 341.515625 172.011719 340.585938 171.183594 C 339.648438 170.363281 338.457031 169.945312 337.003906 169.945312 C 335.3125 169.945312 333.777344 170.402344 332.398438 171.320312 C 331.03125 172.234375 329.953125 173.394531 329.167969 174.792969 C 328.371094 176.179688 327.980469 177.511719 327.980469 178.804688 C 327.980469 179.601562 328.15625 180.339844 328.519531 181.042969 C 328.898438 181.726562 329.488281 182.28125 330.296875 182.710938 C 331.117188 183.140625 332.183594 183.359375 333.476562 183.359375 C 335.105469 183.359375 336.371094 183.089844 337.273438 182.550781 C 338.167969 181.996094 338.742188 181.539062 338.996094 181.175781 L 343.574219 181.175781 C 343.394531 181.875 342.910156 182.589844 342.121094 183.304688 C 341.347656 184.003906 340.402344 184.597656 339.292969 185.082031 C 338.175781 185.550781 337.164062 185.78125 336.25 185.78125 C 334.429688 185.78125 332.601562 185.285156 330.753906 184.273438 C 328.921875 183.269531 327.421875 181.984375 326.257812 180.421875 C 325.085938 178.859375 324.507812 177.324219 324.507812 175.816406 C 324.507812 174.953125 324.890625 173.84375 325.664062 172.476562 C 326.453125 171.117188 327.558594 169.933594 328.976562 168.921875 C 330.390625 167.898438 332.007812 167.386719 333.824219 167.386719 C 334.992188 167.386719 335.988281 167.542969 336.816406 167.84375 C 337.636719 168.132812 338.230469 168.402344 338.59375 168.652344 L 338.59375 165.097656 L 323.457031 165.097656 L 323.457031 162.511719 L 346.511719 162.511719 Z M 346.511719 165.097656 " fill-opacity="1" fill-rule="nonzero"/><path fill="rgb(32.159424%, 44.309998%, 100%)" d="M 371.527344 165.097656 L 357.25 165.097656 L 357.25 168.519531 C 357.320312 168.519531 357.371094 168.558594 357.414062 168.625 C 357.445312 168.679688 357.492188 168.707031 357.546875 168.707031 C 357.527344 168.707031 357.824219 168.625 358.4375 168.464844 C 359.042969 168.289062 359.742188 168.128906 360.535156 167.980469 C 361.34375 167.835938 362.132812 167.765625 362.90625 167.765625 C 364.609375 167.765625 365.957031 168.007812 366.945312 168.492188 C 367.929688 168.960938 368.644531 169.621094 369.074219 170.484375 C 369.519531 171.332031 369.789062 172.289062 369.882812 173.367188 C 369.96875 174.429688 370.015625 175.890625 370.015625 177.753906 L 370.015625 185.996094 C 368.917969 185.566406 368.136719 185.257812 367.675781 185.054688 C 367.203125 184.859375 366.847656 184.703125 366.597656 184.597656 C 366.597656 184.152344 366.503906 183.863281 366.328125 183.734375 C 365.855469 184.003906 365.332031 184.300781 364.738281 184.625 C 364.144531 184.945312 363.371094 185.234375 362.421875 185.484375 C 361.484375 185.722656 360.375 185.835938 359.082031 185.835938 C 357.84375 185.835938 356.632812 185.613281 355.445312 185.164062 C 354.261719 184.699219 353.296875 184.042969 352.566406 183.195312 C 351.824219 182.335938 351.460938 181.363281 351.460938 180.289062 C 351.460938 179.304688 351.917969 178.261719 352.835938 177.164062 C 353.761719 176.074219 355.015625 175.164062 356.578125 174.441406 C 358.140625 173.710938 359.835938 173.339844 361.667969 173.339844 C 362.671875 173.339844 363.621094 173.492188 364.523438 173.796875 C 365.4375 174.085938 366.125 174.410156 366.597656 174.765625 L 366.597656 172.800781 C 366.003906 172.03125 365.425781 171.507812 364.875 171.238281 C 364.335938 170.957031 363.484375 170.808594 362.339844 170.808594 C 360.832031 170.882812 359.648438 171.015625 358.785156 171.210938 C 357.925781 171.394531 356.988281 171.6875 355.984375 172.101562 C 354.996094 172.515625 354.167969 172.828125 353.507812 173.042969 L 353.507812 171.453125 C 353.617188 171.386719 353.757812 171.265625 353.9375 171.101562 C 354.113281 170.941406 354.234375 170.828125 354.289062 170.753906 C 354.355469 170.6875 354.402344 170.640625 354.421875 170.617188 L 354.421875 165.097656 L 350.035156 165.097656 L 350.035156 162.511719 L 371.527344 162.511719 Z M 366.597656 178.671875 C 366.597656 178.011719 365.855469 177.460938 364.386719 177.027344 C 362.914062 176.585938 361.863281 176.355469 361.238281 176.355469 C 359.6875 176.355469 358.28125 176.679688 357.007812 177.324219 C 355.730469 177.972656 354.726562 178.738281 353.992188 179.613281 C 353.273438 180.476562 352.914062 181.191406 352.914062 181.742188 C 353.078125 182.335938 353.507812 182.75 354.207031 182.980469 C 354.90625 183.195312 355.648438 183.304688 356.441406 183.304688 C 357.898438 183.304688 359.246094 183.117188 360.484375 182.738281 C 361.722656 182.347656 362.800781 181.871094 363.714844 181.3125 C 364.644531 180.757812 365.359375 180.226562 365.84375 179.722656 C 366.339844 179.203125 366.597656 178.851562 366.597656 178.671875 Z M 366.597656 178.671875 " fill-opacity="1" fill-rule="nonzero"/><path fill="rgb(32.159424%, 44.309998%, 100%)" d="M 394.777344 165.097656 L 383.949219 165.097656 L 383.949219 182.359375 C 383.949219 182.867188 384.117188 183.351562 384.460938 183.816406 C 384.820312 184.285156 385.203125 184.515625 385.621094 184.515625 C 387.734375 184.515625 388.796875 182.320312 388.796875 177.917969 L 393.109375 180.367188 C 392.40625 181.929688 391.453125 183.238281 390.253906 184.273438 C 389.046875 185.316406 387.457031 185.835938 385.484375 185.835938 C 384.496094 185.816406 383.585938 185.558594 382.765625 185.054688 C 381.957031 184.535156 381.296875 183.882812 380.800781 183.089844 C 380.316406 182.300781 380.074219 181.511719 380.074219 180.71875 L 380.074219 165.097656 L 375.601562 165.097656 L 375.601562 162.511719 L 380.074219 162.511719 L 380.074219 155.320312 L 383.949219 158.015625 L 383.949219 162.511719 L 394.777344 162.511719 Z M 394.777344 165.097656 " fill-opacity="1" fill-rule="nonzero"/><path fill="rgb(32.159424%, 44.309998%, 100%)" d="M 406.140625 160.277344 C 406.089844 160.332031 405.925781 160.355469 405.65625 160.355469 C 405.421875 160.355469 405.210938 160.332031 405.039062 160.277344 C 404.015625 158.269531 403.355469 157.039062 403.070312 156.585938 C 402.761719 156.15625 402.371094 155.878906 401.886719 155.75 C 401.402344 155.628906 400.945312 155.503906 400.511719 155.375 C 400.09375 155.253906 399.765625 154.972656 399.515625 154.539062 C 399.460938 154.453125 399.355469 154.121094 399.191406 153.542969 C 399.03125 152.949219 398.730469 152.269531 398.277344 151.496094 L 398.277344 151.011719 L 399.113281 151.011719 C 400.78125 151.535156 401.96875 152.007812 402.667969 152.4375 C 403.367188 152.855469 403.8125 153.261719 404.015625 153.652344 C 404.210938 154.027344 404.480469 154.835938 404.820312 156.074219 C 405.179688 157.300781 405.601562 158.390625 406.089844 159.359375 C 406.101562 159.488281 406.113281 159.601562 406.113281 159.710938 C 406.128906 159.820312 406.140625 160.007812 406.140625 160.277344 Z M 407.40625 165.097656 L 398.679688 165.097656 L 398.679688 162.511719 L 407.40625 162.511719 Z M 404.957031 186.265625 L 401.375 184.273438 L 401.375 167.738281 L 404.957031 167.738281 Z M 404.957031 186.265625 " fill-opacity="1" fill-rule="nonzero"/><path fill="rgb(32.159424%, 44.309998%, 100%)" d="M 434.492188 165.097656 L 429.667969 165.097656 L 429.667969 170.996094 C 429.667969 171.125 429.871094 171.371094 430.289062 171.75 C 430.699219 172.125 431.054688 172.515625 431.367188 172.90625 C 431.691406 173.285156 431.984375 173.863281 432.253906 174.632812 C 432.539062 175.386719 432.6875 176.320312 432.6875 177.433594 C 432.6875 178.960938 432.296875 180.382812 431.527344 181.6875 C 430.753906 182.980469 429.683594 183.996094 428.324219 184.730469 C 426.976562 185.472656 425.480469 185.835938 423.851562 185.835938 C 422.789062 185.835938 421.601562 185.558594 420.296875 185 C 419.003906 184.449219 417.773438 183.679688 416.605469 182.710938 C 415.4375 181.742188 414.492188 180.652344 413.78125 179.425781 C 413.078125 178.207031 412.730469 176.949219 412.730469 175.65625 C 412.730469 174.707031 413.066406 173.621094 413.753906 172.394531 C 414.433594 171.15625 415.421875 170.101562 416.714844 169.21875 C 418.007812 168.324219 419.554688 167.871094 421.375 167.871094 C 422.378906 167.871094 423.859375 168.132812 425.816406 168.652344 C 425.90625 168.652344 425.953125 168.597656 425.953125 168.492188 L 425.953125 165.097656 L 411.246094 165.097656 L 411.246094 162.511719 L 434.492188 162.511719 Z M 429.535156 174.605469 C 429.535156 173.515625 429.253906 172.632812 428.699219 171.964844 C 428.160156 171.285156 427.546875 170.820312 426.867188 170.566406 C 426.183594 170.296875 425.628906 170.160156 425.199219 170.160156 C 424.511719 170.160156 423.644531 170.363281 422.585938 170.753906 C 421.542969 171.152344 420.5 171.75 419.460938 172.558594 C 418.4375 173.351562 417.582031 174.347656 416.902344 175.546875 C 416.214844 176.753906 415.878906 178.121094 415.878906 179.640625 C 415.878906 180.273438 416.09375 180.878906 416.527344 181.472656 C 416.957031 182.066406 417.507812 182.5625 418.195312 182.953125 C 418.898438 183.332031 419.605469 183.519531 420.324219 183.519531 C 421.058594 183.519531 421.96875 183.296875 423.042969 182.847656 C 424.136719 182.382812 425.171875 181.753906 426.140625 180.960938 C 427.125 180.152344 427.933594 179.210938 428.566406 178.132812 C 429.210938 177.042969 429.535156 175.863281 429.535156 174.605469 Z M 429.535156 174.605469 " fill-opacity="1" fill-rule="nonzero"/><path fill="rgb(32.159424%, 44.309998%, 100%)" d="M 461.335938 165.097656 L 438.28125 165.097656 L 438.28125 162.511719 L 461.335938 162.511719 Z M 456.730469 174.496094 C 456.730469 171.070312 455.101562 169.351562 451.855469 169.351562 C 450.898438 169.351562 449.929688 169.636719 448.945312 170.1875 C 447.957031 170.746094 447.066406 171.519531 446.28125 172.503906 C 445.507812 173.492188 444.878906 174.671875 444.394531 176.03125 C 443.925781 177.378906 443.695312 178.792969 443.695312 180.261719 L 443.695312 186.480469 L 440.167969 184.652344 L 440.167969 168.519531 L 443.855469 168.519531 L 443.855469 171.078125 C 444.160156 170.847656 444.652344 170.457031 445.335938 169.917969 C 446.039062 169.378906 446.878906 168.886719 447.871094 168.4375 C 448.871094 167.972656 449.949219 167.738281 451.101562 167.738281 C 452.234375 167.738281 453.316406 167.980469 454.359375 168.464844 C 455.398438 168.949219 456.328125 169.636719 457.132812 170.511719 C 457.957031 171.371094 458.601562 172.394531 459.074219 173.582031 C 459.539062 174.753906 459.773438 176.003906 459.773438 177.351562 C 459.773438 178.878906 459.4375 180.433594 458.777344 182.011719 C 458.128906 183.574219 457.09375 185.136719 455.679688 186.699219 L 451.53125 184.113281 C 451.78125 183.773438 452.257812 183.277344 452.960938 182.628906 C 453.660156 181.96875 454.265625 181.296875 454.792969 180.609375 C 455.328125 179.929688 455.789062 179.089844 456.164062 178.078125 C 456.542969 177.074219 456.730469 175.882812 456.730469 174.496094 Z M 456.730469 174.496094 " fill-opacity="1" fill-rule="nonzero"/><path fill="rgb(100%, 100%, 100%)" d="M 252.140625 109.816406 C 252.066406 109.890625 251.871094 109.921875 251.550781 109.921875 C 251.28125 109.921875 251.042969 109.890625 250.847656 109.816406 C 249.609375 107.390625 248.816406 105.925781 248.480469 105.398438 C 248.101562 104.878906 247.625 104.550781 247.050781 104.402344 C 246.472656 104.242188 245.933594 104.09375 245.433594 103.945312 C 244.929688 103.804688 244.527344 103.460938 244.222656 102.921875 C 244.148438 102.832031 244.015625 102.4375 243.820312 101.734375 C 243.636719 101.035156 243.273438 100.226562 242.714844 99.3125 L 242.714844 98.71875 L 243.738281 98.71875 C 245.730469 99.332031 247.136719 99.898438 247.96875 100.417969 C 248.808594 100.921875 249.347656 101.40625 249.582031 101.871094 C 249.8125 102.34375 250.148438 103.3125 250.578125 104.78125 C 251.011719 106.234375 251.507812 107.546875 252.085938 108.710938 C 252.101562 108.859375 252.113281 109 252.113281 109.144531 C 252.128906 109.269531 252.140625 109.492188 252.140625 109.816406 Z M 253.648438 115.578125 L 243.199219 115.578125 L 243.199219 112.507812 L 253.648438 112.507812 Z M 250.742188 140.949219 L 246.433594 138.554688 L 246.433594 118.730469 L 250.742188 118.730469 Z M 250.742188 140.949219 " fill-opacity="1" fill-rule="nonzero"/><path fill="rgb(100%, 100%, 100%)" d="M 280.789062 115.578125 L 253.183594 115.578125 L 253.183594 112.507812 L 280.789062 112.507812 Z M 275.269531 126.863281 C 275.269531 122.757812 273.328125 120.695312 269.449219 120.695312 C 268.320312 120.695312 267.148438 121.035156 265.949219 121.691406 C 264.765625 122.359375 263.699219 123.28125 262.769531 124.46875 C 261.855469 125.652344 261.109375 127.066406 260.535156 128.695312 C 259.957031 130.3125 259.675781 131.996094 259.675781 133.730469 L 259.675781 141.191406 L 255.445312 138.984375 L 255.445312 119.699219 L 259.863281 119.699219 L 259.863281 122.742188 C 260.21875 122.472656 260.8125 122.015625 261.640625 121.371094 C 262.480469 120.710938 263.5 120.105469 264.683594 119.566406 C 265.867188 119.011719 267.148438 118.730469 268.535156 118.730469 C 269.894531 118.730469 271.203125 119.027344 272.441406 119.621094 C 273.691406 120.199219 274.808594 121.011719 275.78125 122.070312 C 276.761719 123.113281 277.535156 124.347656 278.097656 125.761719 C 278.648438 127.160156 278.929688 128.660156 278.929688 130.257812 C 278.929688 132.074219 278.535156 133.933594 277.746094 135.832031 C 276.972656 137.71875 275.726562 139.597656 274.003906 141.460938 L 269.074219 138.363281 C 269.375 137.953125 269.941406 137.355469 270.769531 136.558594 C 271.613281 135.773438 272.347656 134.972656 272.980469 134.164062 C 273.625 133.355469 274.164062 132.351562 274.59375 131.148438 C 275.039062 129.929688 275.269531 128.5 275.269531 126.863281 Z M 275.269531 126.863281 " fill-opacity="1" fill-rule="nonzero"/><path fill="rgb(100%, 100%, 100%)" d="M 306.445312 115.578125 L 303.644531 115.578125 L 303.644531 125.300781 C 302.652344 124.730469 301.230469 124.226562 299.386719 123.792969 C 297.535156 123.363281 295.96875 123.148438 294.675781 123.148438 C 293.597656 123.148438 292.304688 123.277344 290.796875 123.523438 C 289.300781 123.78125 287.96875 124.21875 286.78125 124.84375 C 285.597656 125.476562 285.003906 126.296875 285.003906 127.320312 C 285.003906 127.753906 285.175781 128.203125 285.515625 128.667969 C 285.875 129.140625 286.417969 129.367188 287.160156 129.367188 C 287.949219 129.367188 289.105469 129.09375 290.632812 128.535156 C 292.175781 127.980469 293.308594 127.589844 294.027344 127.375 C 294.761719 127.160156 295.832031 127.054688 297.234375 127.054688 C 298.558594 127.054688 299.820312 127.296875 301.003906 127.78125 C 302.1875 128.25 303.132812 128.929688 303.832031 129.828125 C 304.546875 130.707031 304.910156 131.730469 304.910156 132.898438 C 304.910156 134.285156 304.402344 135.535156 303.402344 136.667969 C 302.390625 137.800781 301.179688 138.6875 299.765625 139.335938 C 298.34375 139.96875 296.996094 140.324219 295.726562 140.410156 C 296.964844 141.648438 298.136719 142.269531 299.253906 142.269531 C 299.609375 142.269531 299.988281 142.214844 300.382812 142.109375 L 302.996094 146.335938 C 302.847656 146.457031 302.519531 146.605469 302 146.765625 C 301.476562 146.941406 300.71875 147.035156 299.738281 147.035156 C 298.316406 147.035156 297.238281 146.632812 296.503906 145.824219 C 295.765625 145.015625 295.003906 143.925781 294.214844 142.566406 C 293.441406 141.199219 292.800781 140.519531 292.304688 140.519531 C 291.023438 140.464844 289.757812 140.332031 288.507812 140.113281 C 287.246094 139.898438 286.082031 139.460938 285.003906 138.796875 C 283.929688 138.136719 283.390625 137.21875 283.390625 136.046875 C 283.390625 135.28125 283.644531 134.730469 284.171875 134.40625 C 284.6875 134.070312 285.28125 133.894531 285.949219 133.894531 C 286.769531 133.894531 287.429688 134.015625 287.914062 134.242188 C 288.414062 134.480469 289.023438 134.851562 289.746094 135.347656 C 290.480469 135.832031 291.207031 136.203125 291.925781 136.453125 C 292.660156 136.707031 293.652344 136.828125 294.890625 136.828125 C 295.75 136.828125 296.894531 136.679688 298.335938 136.371094 C 299.792969 136.070312 301.070312 135.609375 302.1875 134.996094 C 303.300781 134.390625 303.859375 133.652344 303.859375 132.789062 C 303.859375 132.304688 303.683594 131.921875 303.347656 131.632812 C 303.003906 131.328125 302.605469 131.121094 302.160156 131.011719 C 301.710938 130.890625 301.253906 130.824219 300.789062 130.824219 C 300.140625 130.824219 299.453125 130.925781 298.742188 131.121094 C 298.039062 131.300781 296.675781 131.671875 294.648438 132.222656 C 292.613281 132.761719 291.367188 133.03125 290.902344 133.03125 C 289.71875 133.03125 288.507812 132.703125 287.269531 132.035156 C 286.027344 131.355469 284.984375 130.414062 284.144531 129.207031 C 283.316406 127.988281 282.890625 126.664062 282.878906 125.222656 C 282.878906 123.660156 283.457031 122.394531 284.628906 121.425781 C 285.792969 120.453125 287.1875 119.765625 288.804688 119.351562 C 290.433594 118.9375 291.96875 118.730469 293.410156 118.730469 C 294.378906 118.730469 295.589844 118.886719 297.042969 119.1875 C 298.511719 119.5 299.628906 119.746094 300.382812 119.941406 L 300.382812 115.578125 L 279.96875 115.578125 L 279.96875 112.507812 L 306.445312 112.507812 Z M 306.445312 115.578125 " fill-opacity="1" fill-rule="nonzero"/><path fill="rgb(100%, 100%, 100%)" d="M 328.921875 115.578125 L 315.914062 115.578125 L 315.914062 136.238281 C 315.914062 136.847656 316.117188 137.441406 316.535156 138.015625 C 316.964844 138.574219 317.429688 138.847656 317.933594 138.847656 C 320.480469 138.847656 321.757812 136.210938 321.757812 130.929688 L 326.902344 133.894531 C 326.054688 135.765625 324.910156 137.3125 323.457031 138.554688 C 322.015625 139.792969 320.125 140.410156 317.773438 140.410156 C 316.589844 140.390625 315.496094 140.082031 314.515625 139.46875 C 313.523438 138.863281 312.742188 138.082031 312.171875 137.125 C 311.59375 136.175781 311.308594 135.234375 311.308594 134.296875 L 311.308594 115.578125 L 305.921875 115.578125 L 305.921875 112.507812 L 311.308594 112.507812 L 311.308594 103.890625 L 315.914062 107.097656 L 315.914062 112.507812 L 328.921875 112.507812 Z M 328.921875 115.578125 " fill-opacity="1" fill-rule="nonzero"/><path fill="rgb(100%, 100%, 100%)" d="M 337.242188 109.816406 C 337.167969 109.890625 336.972656 109.921875 336.652344 109.921875 C 336.382812 109.921875 336.144531 109.890625 335.949219 109.816406 C 334.710938 107.390625 333.917969 105.925781 333.582031 105.398438 C 333.203125 104.878906 332.726562 104.550781 332.152344 104.402344 C 331.574219 104.242188 331.035156 104.09375 330.535156 103.945312 C 330.03125 103.804688 329.628906 103.460938 329.324219 102.921875 C 329.25 102.832031 329.117188 102.4375 328.921875 101.734375 C 328.738281 101.035156 328.375 100.226562 327.816406 99.3125 L 327.816406 98.71875 L 328.839844 98.71875 C 330.832031 99.332031 332.242188 99.898438 333.070312 100.417969 C 333.910156 100.921875 334.449219 101.40625 334.683594 101.871094 C 334.914062 102.34375 335.25 103.3125 335.679688 104.78125 C 336.113281 106.234375 336.609375 107.546875 337.1875 108.710938 C 337.203125 108.859375 337.214844 109 337.214844 109.144531 C 337.230469 109.269531 337.242188 109.492188 337.242188 109.816406 Z M 338.75 115.578125 L 328.300781 115.578125 L 328.300781 112.507812 L 338.75 112.507812 Z M 335.84375 140.949219 L 331.535156 138.554688 L 331.535156 118.730469 L 335.84375 118.730469 Z M 335.84375 140.949219 " fill-opacity="1" fill-rule="nonzero"/><path fill="rgb(100%, 100%, 100%)" d="M 361.285156 115.578125 L 348.273438 115.578125 L 348.273438 136.238281 C 348.273438 136.847656 348.476562 137.441406 348.894531 138.015625 C 349.324219 138.574219 349.789062 138.847656 350.296875 138.847656 C 352.839844 138.847656 354.121094 136.210938 354.121094 130.929688 L 359.265625 133.894531 C 358.414062 135.765625 357.269531 137.3125 355.816406 138.554688 C 354.375 139.792969 352.484375 140.410156 350.132812 140.410156 C 348.949219 140.390625 347.859375 140.082031 346.875 139.46875 C 345.886719 138.863281 345.105469 138.082031 344.53125 137.125 C 343.953125 136.175781 343.667969 135.234375 343.667969 134.296875 L 343.667969 115.578125 L 338.285156 115.578125 L 338.285156 112.507812 L 343.667969 112.507812 L 343.667969 103.890625 L 348.273438 107.097656 L 348.273438 112.507812 L 361.285156 112.507812 Z M 361.285156 115.578125 " fill-opacity="1" fill-rule="nonzero"/><path fill="rgb(100%, 100%, 100%)" d="M 389.695312 115.578125 L 368.203125 115.578125 L 368.203125 132.035156 C 368.238281 133.242188 368.457031 134.378906 368.875 135.457031 C 369.285156 136.519531 369.898438 137.367188 370.707031 138.015625 C 371.515625 138.660156 372.464844 138.984375 373.5625 138.984375 C 375.160156 138.984375 376.503906 138.632812 377.601562 137.933594 C 378.714844 137.21875 379.582031 136.359375 380.214844 135.347656 C 380.863281 134.324219 381.320312 133.328125 381.589844 132.359375 C 381.871094 131.390625 382.019531 130.609375 382.019531 130.015625 L 382.019531 119.808594 L 387.21875 119.808594 L 387.21875 141.675781 C 386.855469 141.460938 386.085938 141.085938 384.902344 140.546875 C 383.714844 140.027344 382.734375 139.597656 381.964844 139.253906 L 381.964844 137.207031 C 381.0625 137.851562 380.195312 138.417969 379.351562 138.902344 C 378.523438 139.386719 377.664062 139.757812 376.769531 140.007812 C 375.886719 140.242188 374.855469 140.359375 373.671875 140.359375 C 371.945312 140.359375 370.277344 139.917969 368.660156 139.039062 C 367.046875 138.140625 365.738281 136.921875 364.753906 135.375 C 363.785156 133.832031 363.300781 132.164062 363.300781 130.367188 L 363.300781 115.578125 L 360.175781 115.578125 L 360.175781 112.507812 L 389.695312 112.507812 Z M 389.695312 115.578125 " fill-opacity="1" fill-rule="nonzero"/><path fill="rgb(100%, 100%, 100%)" d="M 412.199219 115.578125 L 399.191406 115.578125 L 399.191406 136.238281 C 399.191406 136.847656 399.394531 137.441406 399.8125 138.015625 C 400.242188 138.574219 400.707031 138.847656 401.210938 138.847656 C 403.757812 138.847656 405.035156 136.210938 405.035156 130.929688 L 410.179688 133.894531 C 409.332031 135.765625 408.1875 137.3125 406.730469 138.554688 C 405.292969 139.792969 403.398438 140.410156 401.050781 140.410156 C 399.863281 140.390625 398.773438 140.082031 397.789062 139.46875 C 396.800781 138.863281 396.019531 138.082031 395.449219 137.125 C 394.867188 136.175781 394.585938 135.234375 394.585938 134.296875 L 394.585938 115.578125 L 389.199219 115.578125 L 389.199219 112.507812 L 394.585938 112.507812 L 394.585938 103.890625 L 399.191406 107.097656 L 399.191406 112.507812 L 412.199219 112.507812 Z M 412.199219 115.578125 " fill-opacity="1" fill-rule="nonzero"/><path fill="rgb(100%, 100%, 100%)" d="M 420.519531 109.816406 C 420.445312 109.890625 420.25 109.921875 419.929688 109.921875 C 419.660156 109.921875 419.421875 109.890625 419.226562 109.816406 C 417.988281 107.390625 417.195312 105.925781 416.859375 105.398438 C 416.480469 104.878906 416.003906 104.550781 415.429688 104.402344 C 414.851562 104.242188 414.3125 104.09375 413.816406 103.945312 C 413.308594 103.804688 412.90625 103.460938 412.601562 102.921875 C 412.527344 102.832031 412.394531 102.4375 412.199219 101.734375 C 412.015625 101.035156 411.652344 100.226562 411.09375 99.3125 L 411.09375 98.71875 L 412.117188 98.71875 C 414.109375 99.332031 415.519531 99.898438 416.347656 100.417969 C 417.1875 100.921875 417.726562 101.40625 417.960938 101.871094 C 418.191406 102.34375 418.527344 103.3125 418.960938 104.78125 C 419.390625 106.234375 419.886719 107.546875 420.46875 108.710938 C 420.480469 108.859375 420.496094 109 420.496094 109.144531 C 420.507812 109.269531 420.519531 109.492188 420.519531 109.816406 Z M 422.03125 115.578125 L 411.578125 115.578125 L 411.578125 112.507812 L 422.03125 112.507812 Z M 419.121094 140.949219 L 414.8125 138.554688 L 414.8125 118.730469 L 419.121094 118.730469 Z M 419.121094 140.949219 " fill-opacity="1" fill-rule="nonzero"/><path fill="rgb(100%, 100%, 100%)" d="M 449.222656 115.578125 L 443.457031 115.578125 L 443.457031 122.636719 C 443.457031 122.796875 443.699219 123.105469 444.183594 123.550781 C 444.667969 124.003906 445.101562 124.460938 445.476562 124.925781 C 445.867188 125.394531 446.230469 126.082031 446.554688 127 C 446.890625 127.914062 447.066406 129.039062 447.066406 130.367188 C 447.066406 132.183594 446.59375 133.867188 445.664062 135.429688 C 444.75 136.992188 443.472656 138.214844 441.839844 139.089844 C 440.226562 139.972656 438.433594 140.410156 436.480469 140.410156 C 435.203125 140.410156 433.789062 140.089844 432.226562 139.441406 C 430.664062 138.78125 429.183594 137.867188 427.78125 136.695312 C 426.394531 135.53125 425.277344 134.21875 424.417969 132.761719 C 423.566406 131.292969 423.148438 129.773438 423.148438 128.210938 C 423.148438 127.078125 423.554688 125.78125 424.363281 124.304688 C 425.183594 122.835938 426.367188 121.570312 427.917969 120.507812 C 429.480469 119.429688 431.34375 118.890625 433.519531 118.890625 C 434.703125 118.890625 436.46875 119.207031 438.824219 119.835938 C 438.933594 119.835938 438.988281 119.773438 438.988281 119.644531 L 438.988281 115.578125 L 421.371094 115.578125 L 421.371094 112.507812 L 449.222656 112.507812 Z M 443.296875 126.945312 C 443.296875 125.652344 442.960938 124.601562 442.300781 123.792969 C 441.632812 122.984375 440.898438 122.433594 440.089844 122.125 C 439.28125 121.800781 438.609375 121.640625 438.070312 121.640625 C 437.261719 121.640625 436.21875 121.882812 434.945312 122.367188 C 433.6875 122.835938 432.441406 123.542969 431.203125 124.496094 C 429.976562 125.449219 428.96875 126.648438 428.160156 128.101562 C 427.351562 129.542969 426.949219 131.167969 426.949219 132.976562 C 426.949219 133.730469 427.195312 134.472656 427.703125 135.1875 C 428.21875 135.90625 428.886719 136.5 429.695312 136.964844 C 430.515625 137.414062 431.371094 137.636719 432.253906 137.636719 C 433.128906 137.636719 434.21875 137.367188 435.511719 136.828125 C 436.804688 136.277344 438.03125 135.523438 439.203125 134.566406 C 440.386719 133.617188 441.363281 132.492188 442.136719 131.199219 C 442.90625 129.894531 443.296875 128.472656 443.296875 126.945312 Z M 443.296875 126.945312 " fill-opacity="1" fill-rule="nonzero"/><path fill="rgb(100%, 100%, 100%)" d="M 476.089844 115.578125 L 448.484375 115.578125 L 448.484375 112.507812 L 476.089844 112.507812 Z M 470.566406 126.863281 C 470.566406 122.757812 468.628906 120.695312 464.75 120.695312 C 463.621094 120.695312 462.449219 121.035156 461.25 121.691406 C 460.066406 122.359375 459 123.28125 458.070312 124.46875 C 457.15625 125.652344 456.410156 127.066406 455.835938 128.695312 C 455.257812 130.3125 454.972656 131.996094 454.972656 133.730469 L 454.972656 141.191406 L 450.746094 138.984375 L 450.746094 119.699219 L 455.164062 119.699219 L 455.164062 122.742188 C 455.519531 122.472656 456.113281 122.015625 456.941406 121.371094 C 457.78125 120.710938 458.796875 120.105469 459.984375 119.566406 C 461.167969 119.011719 462.449219 118.730469 463.835938 118.730469 C 465.195312 118.730469 466.5 119.027344 467.742188 119.621094 C 468.992188 120.199219 470.109375 121.011719 471.078125 122.070312 C 472.0625 123.113281 472.835938 124.347656 473.394531 125.761719 C 473.949219 127.160156 474.230469 128.660156 474.230469 130.257812 C 474.230469 132.074219 473.832031 133.933594 473.046875 135.832031 C 472.273438 137.71875 471.027344 139.597656 469.300781 141.460938 L 464.375 138.363281 C 464.675781 137.953125 465.242188 137.355469 466.070312 136.558594 C 466.914062 135.773438 467.644531 134.972656 468.277344 134.164062 C 468.925781 133.355469 469.464844 132.351562 469.894531 131.148438 C 470.339844 129.929688 470.566406 128.5 470.566406 126.863281 Z M 470.566406 126.863281 " fill-opacity="1" fill-rule="nonzero"/><path fill="rgb(100%, 100%, 100%)" d="M 500.746094 115.578125 L 483.644531 115.578125 L 483.644531 119.699219 C 483.734375 119.699219 483.808594 119.742188 483.859375 119.808594 C 483.914062 119.863281 483.976562 119.890625 484.050781 119.890625 C 484.007812 119.890625 484.359375 119.792969 485.101562 119.59375 C 485.832031 119.398438 486.675781 119.214844 487.632812 119.054688 C 488.601562 118.878906 489.53125 118.785156 490.433594 118.785156 C 492.480469 118.785156 494.09375 119.074219 495.28125 119.644531 C 496.464844 120.207031 497.3125 121.007812 497.839844 122.042969 C 498.355469 123.066406 498.671875 124.21875 498.78125 125.492188 C 498.890625 126.769531 498.941406 128.519531 498.941406 130.742188 L 498.941406 140.625 C 497.628906 140.109375 496.695312 139.730469 496.140625 139.496094 C 495.582031 139.246094 495.160156 139.066406 494.875 138.957031 C 494.875 138.40625 494.769531 138.042969 494.554688 137.878906 C 493.972656 138.222656 493.339844 138.578125 492.640625 138.957031 C 491.941406 139.335938 491.023438 139.675781 489.894531 139.980469 C 488.761719 140.269531 487.414062 140.410156 485.855469 140.410156 C 484.359375 140.410156 482.90625 140.140625 481.492188 139.601562 C 480.070312 139.050781 478.917969 138.257812 478.042969 137.234375 C 477.160156 136.210938 476.722656 135.066406 476.722656 133.785156 C 476.722656 132.585938 477.277344 131.328125 478.394531 130.015625 C 479.503906 128.710938 480.992188 127.617188 482.863281 126.757812 C 484.730469 125.894531 486.769531 125.464844 488.976562 125.464844 C 490.164062 125.464844 491.292969 125.644531 492.371094 126.003906 C 493.460938 126.347656 494.296875 126.730469 494.875 127.160156 L 494.875 124.789062 C 494.15625 123.875 493.460938 123.253906 492.800781 122.933594 C 492.15625 122.609375 491.140625 122.449219 489.757812 122.449219 C 487.960938 122.519531 486.539062 122.675781 485.503906 122.90625 C 484.480469 123.121094 483.363281 123.484375 482.164062 123.984375 C 480.980469 124.46875 479.988281 124.84375 479.203125 125.113281 L 479.203125 123.203125 C 479.308594 123.113281 479.472656 122.980469 479.6875 122.796875 C 479.914062 122.601562 480.070312 122.460938 480.144531 122.367188 C 480.230469 122.277344 480.285156 122.226562 480.304688 122.203125 L 480.304688 115.578125 L 475.027344 115.578125 L 475.027344 112.507812 L 500.746094 112.507812 Z M 494.875 131.847656 C 494.875 131.058594 493.988281 130.40625 492.210938 129.878906 C 490.445312 129.34375 489.199219 129.074219 488.464844 129.074219 C 486.59375 129.074219 484.898438 129.464844 483.375 130.230469 C 481.847656 131.003906 480.640625 131.921875 479.765625 132.976562 C 478.90625 134.023438 478.472656 134.875 478.472656 135.535156 C 478.667969 136.238281 479.1875 136.722656 480.035156 136.992188 C 480.878906 137.261719 481.765625 137.394531 482.703125 137.394531 C 484.441406 137.394531 486.050781 137.171875 487.523438 136.722656 C 489.011719 136.257812 490.304688 135.691406 491.402344 135.023438 C 492.511719 134.363281 493.367188 133.726562 493.960938 133.113281 C 494.566406 132.488281 494.875 132.0625 494.875 131.847656 Z M 494.875 131.847656 " fill-opacity="1" fill-rule="nonzero"/><path fill="rgb(100%, 100%, 100%)" d="M 511.984375 115.578125 L 509.261719 115.578125 L 509.261719 112.507812 L 511.984375 112.507812 Z M 503.203125 115.578125 L 500.292969 115.578125 L 500.292969 112.507812 L 503.203125 112.507812 Z M 508.429688 109.410156 L 508.429688 141.003906 C 508.355469 141.003906 508.117188 140.902344 507.726562 140.707031 C 507.351562 140.503906 506.90625 140.289062 506.40625 140.035156 C 505.921875 139.765625 505.410156 139.507812 504.871094 139.253906 C 504.347656 138.984375 504.066406 138.847656 504.011719 138.847656 L 504.011719 109.4375 C 503.917969 107.414062 503.558594 105.507812 502.933594 103.730469 C 502.320312 101.953125 501.640625 100.46875 500.886719 99.285156 C 500.132812 98.101562 499.316406 97.015625 498.4375 96.027344 C 497.539062 95.042969 496.996094 94.429688 496.792969 94.195312 L 502.261719 94.195312 C 503.714844 95.648438 504.90625 97.320312 505.84375 99.203125 C 506.792969 101.078125 507.457031 102.894531 507.835938 104.671875 C 508.226562 106.4375 508.429688 108.011719 508.429688 109.410156 Z M 508.429688 109.410156 " fill-opacity="1" fill-rule="nonzero"/><path fill="rgb(100%, 100%, 100%)" d="M 555.707031 115.578125 L 548.679688 115.578125 L 548.679688 120.644531 C 549.144531 120.75 549.527344 120.878906 549.835938 121.019531 C 550.140625 121.167969 550.335938 121.277344 550.429688 121.34375 L 550.429688 124.359375 C 548.394531 123.660156 546.28125 123.308594 544.074219 123.308594 C 542.566406 123.308594 540.929688 123.625 539.171875 124.25 C 537.40625 124.863281 536.503906 125.8125 536.453125 127.105469 C 536.453125 128.472656 538.390625 129.152344 542.269531 129.152344 C 542.59375 129.152344 543.144531 129.140625 543.9375 129.101562 C 544.726562 129.066406 545.238281 129.039062 545.472656 129.019531 L 545.472656 131.363281 C 544.25 131.402344 542.835938 131.46875 541.21875 131.578125 C 539.601562 131.671875 538.15625 131.980469 536.882812 132.519531 C 535.601562 133.046875 534.96875 133.90625 534.96875 135.105469 C 534.96875 136.09375 535.550781 136.902344 536.722656 137.53125 C 537.90625 138.140625 539.230469 138.445312 540.707031 138.445312 C 543.667969 138.445312 546.269531 137.773438 548.515625 136.425781 C 550.78125 135.066406 552.671875 133.273438 554.199219 131.066406 L 554.199219 137.554688 C 552.382812 138.707031 550.632812 139.460938 548.949219 139.820312 C 547.257812 140.183594 545.527344 140.359375 543.75 140.359375 C 542.027344 140.359375 540.074219 140.101562 537.90625 139.578125 C 535.75 139.058594 533.898438 138.304688 532.359375 137.3125 C 530.808594 136.332031 530.042969 135.1875 530.042969 133.894531 C 530.042969 132.566406 530.53125 131.523438 531.523438 130.769531 C 532.527344 130 533.675781 129.300781 534.96875 128.667969 C 534.285156 128.277344 533.71875 127.953125 533.273438 127.699219 C 532.824219 127.449219 532.453125 127.148438 532.167969 126.785156 C 531.898438 126.425781 531.765625 125.949219 531.765625 125.355469 C 531.765625 124.226562 532.222656 123.28125 533.140625 122.527344 C 534.054688 121.773438 535.191406 121.203125 536.558594 120.804688 C 537.941406 120.414062 539.339844 120.144531 540.761719 119.996094 C 542.175781 119.835938 543.515625 119.753906 544.773438 119.753906 L 544.773438 115.578125 L 528.316406 115.578125 L 528.316406 112.507812 L 555.707031 112.507812 Z M 555.707031 115.578125 " fill-opacity="1" fill-rule="nonzero"/><path fill="rgb(100%, 100%, 100%)" d="M 581.054688 115.578125 L 555.089844 115.578125 L 555.089844 112.507812 L 581.054688 112.507812 Z M 578.925781 124.789062 C 578.925781 125.90625 578.292969 127.054688 577.039062 128.238281 C 575.78125 129.421875 574.722656 130.222656 573.863281 130.636719 L 570.011719 126.273438 C 571.445312 126.128906 572.65625 125.613281 573.644531 124.710938 C 574.628906 123.8125 575.128906 122.925781 575.128906 122.042969 C 575.128906 121.6875 574.839844 121.253906 574.265625 120.75 C 573.707031 120.253906 572.972656 119.996094 572.058594 119.996094 C 570.960938 119.996094 569.699219 120.523438 568.285156 121.558594 C 566.886719 122.582031 565.6875 123.914062 564.703125 125.542969 C 563.734375 127.160156 563.25 128.789062 563.25 130.417969 L 563.25 141.300781 L 558.320312 138.742188 L 558.320312 119.753906 L 563.304688 119.753906 L 563.304688 121.691406 C 563.425781 121.550781 563.921875 121.234375 564.785156 120.75 C 565.660156 120.253906 566.675781 119.800781 567.828125 119.402344 C 568.992188 118.992188 570.171875 118.785156 571.355469 118.785156 C 572.339844 118.785156 573.429688 119.039062 574.617188 119.539062 C 575.816406 120.023438 576.832031 120.738281 577.660156 121.667969 C 578.5 122.582031 578.925781 123.625 578.925781 124.789062 Z M 578.925781 124.789062 " fill-opacity="1" fill-rule="nonzero"/><path fill="rgb(100%, 100%, 100%)" d="M 609.726562 115.578125 L 580.289062 115.578125 L 580.289062 112.507812 L 609.726562 112.507812 Z M 607.679688 129.773438 C 607.679688 131.644531 607.113281 133.402344 605.984375 135.050781 C 604.851562 136.707031 603.449219 138.015625 601.78125 138.984375 C 600.113281 139.941406 598.550781 140.410156 597.09375 140.410156 C 595.761719 140.410156 594.347656 139.871094 592.839844 138.796875 C 591.332031 137.71875 589.472656 136.140625 587.265625 134.054688 L 587.265625 155.816406 L 583.144531 153.664062 L 583.144531 119.699219 L 587.15625 119.699219 L 587.15625 125.949219 C 587.460938 125.625 587.972656 125.078125 588.691406 124.304688 C 589.425781 123.539062 590.261719 122.730469 591.195312 121.882812 C 592.144531 121.039062 593.191406 120.292969 594.320312 119.644531 C 595.453125 118.988281 596.507812 118.648438 597.5 118.648438 C 598.449219 118.648438 599.503906 118.972656 600.675781 119.621094 C 601.84375 120.253906 602.953125 121.09375 604.015625 122.152344 C 605.09375 123.214844 605.96875 124.414062 606.65625 125.761719 C 607.335938 127.105469 607.679688 128.445312 607.679688 129.773438 Z M 605.121094 126.808594 C 605.121094 126.398438 604.945312 125.828125 604.609375 125.085938 C 604.285156 124.351562 603.78125 123.679688 603.101562 123.066406 C 602.414062 122.460938 601.574219 122.152344 600.570312 122.152344 C 599.4375 122.152344 598.160156 122.527344 596.746094 123.28125 C 595.34375 124.035156 594.003906 124.992188 592.730469 126.136719 C 591.472656 127.269531 590.441406 128.425781 589.632812 129.613281 C 588.828125 130.796875 588.421875 131.765625 588.421875 132.519531 C 588.421875 133.058594 588.71875 133.609375 589.3125 134.164062 C 589.902344 134.722656 590.664062 135.199219 591.601562 135.589844 C 592.550781 135.96875 593.492188 136.15625 594.429688 136.15625 C 595.96875 136.15625 597.40625 135.824219 598.738281 135.160156 C 600.085938 134.5 601.222656 133.679688 602.160156 132.707031 C 603.085938 131.738281 603.816406 130.714844 604.339844 129.636719 C 604.859375 128.5625 605.121094 127.617188 605.121094 126.808594 Z M 605.121094 126.808594 " fill-opacity="1" fill-rule="nonzero"/></svg>