<svg xmlns="http://www.w3.org/2000/svg" xmlns:xlink="http://www.w3.org/1999/xlink" width="800" zoomAndPan="magnify" viewBox="0 0 600 449.999984" height="600" preserveAspectRatio="xMidYMid meet" version="1.0"><defs><clipPath id="id1"><path d="M 235.808594 201 L 255.984375 201 L 255.984375 235.035156 L 235.808594 235.035156 Z M 235.808594 201 " clip-rule="nonzero"/></clipPath><clipPath id="id2"><path d="M 268 201 L 288.222656 201 L 288.222656 235.035156 L 268 235.035156 Z M 268 201 " clip-rule="nonzero"/></clipPath><clipPath id="id3"><path d="M 247.25 191.980469 L 276.578125 191.980469 L 276.578125 234 L 247.25 234 Z M 247.25 191.980469 " clip-rule="nonzero"/></clipPath></defs><g clip-path="url(#id1)"><path fill="rgb(7.839966%, 36.468506%, 62.748718%)" d="M 238.773438 225.117188 L 238.765625 201.46875 C 237.859375 201.304688 236.882812 201.207031 235.808594 201.207031 L 235.808594 227.691406 C 235.808594 227.691406 247.6875 229.089844 255.679688 235.035156 C 251.988281 230.757812 246.472656 227.210938 238.773438 225.117188 " fill-opacity="1" fill-rule="nonzero"/></g><path fill="rgb(33.729553%, 68.238831%, 100%)" d="M 244.769531 219.945312 L 244.75 197.914062 C 243.828125 197.464844 242.820312 197.066406 241.722656 196.746094 L 241.722656 223.230469 C 241.722656 223.230469 251.339844 225.800781 257.9375 233.363281 C 254.90625 228.171875 250.621094 222.921875 244.769531 219.945312 " fill-opacity="1" fill-rule="nonzero"/><g clip-path="url(#id2)"><path fill="rgb(7.839966%, 36.468506%, 62.748718%)" d="M 285.253906 225.117188 L 285.261719 201.46875 C 286.167969 201.304688 287.144531 201.207031 288.21875 201.207031 L 288.21875 227.691406 C 288.21875 227.691406 276.34375 229.089844 268.351562 235.035156 C 272.042969 230.757812 277.558594 227.210938 285.253906 225.117188 " fill-opacity="1" fill-rule="nonzero"/></g><path fill="rgb(33.729553%, 68.238831%, 100%)" d="M 279.261719 219.945312 L 279.277344 197.914062 C 280.203125 197.464844 281.207031 197.066406 282.304688 196.746094 L 282.304688 223.230469 C 282.304688 223.230469 272.6875 225.800781 266.089844 233.363281 C 269.121094 228.171875 273.410156 222.921875 279.261719 219.945312 " fill-opacity="1" fill-rule="nonzero"/><g clip-path="url(#id3)"><path fill="rgb(100%, 50.979614%, 6.269836%)" d="M 262.015625 206.917969 C 262.015625 206.917969 258.089844 198.640625 247.707031 191.980469 L 247.707031 218.464844 C 247.707031 218.464844 255.476562 223.617188 261.539062 233.886719 L 261.539062 219.964844 C 260.71875 219.78125 260.113281 218.886719 260.113281 218.121094 C 260.113281 217.207031 260.964844 216.214844 262.015625 216.214844 C 263.0625 216.214844 263.917969 217.207031 263.917969 218.121094 C 263.917969 218.886719 263.308594 219.78125 262.488281 219.964844 L 262.488281 233.886719 C 268.554688 223.617188 276.324219 218.464844 276.324219 218.464844 L 276.324219 191.980469 C 265.9375 198.640625 262.015625 206.917969 262.015625 206.917969 " fill-opacity="1" fill-rule="nonzero"/></g><path fill="rgb(36.859131%, 9.01947%, 92.158508%)" d="M 298.476562 222.035156 L 296.359375 222.035156 L 296.359375 223.566406 C 296.496094 223.601562 296.609375 223.640625 296.703125 223.683594 C 296.800781 223.722656 296.859375 223.75 296.886719 223.769531 L 296.886719 224.6875 C 296.269531 224.480469 295.628906 224.375 294.964844 224.375 C 294.511719 224.375 294.015625 224.472656 293.484375 224.660156 C 292.949219 224.839844 292.675781 225.125 292.65625 225.515625 C 292.65625 225.933594 293.242188 226.140625 294.421875 226.140625 C 294.519531 226.140625 294.683594 226.136719 294.917969 226.121094 C 295.15625 226.109375 295.3125 226.097656 295.386719 226.09375 L 295.386719 226.804688 C 295.015625 226.816406 294.585938 226.839844 294.097656 226.871094 C 293.609375 226.898438 293.175781 226.992188 292.792969 227.15625 C 292.40625 227.3125 292.214844 227.570312 292.214844 227.933594 C 292.214844 228.234375 292.390625 228.476562 292.742188 228.664062 C 293.097656 228.855469 293.5 228.949219 293.941406 228.949219 C 294.839844 228.949219 295.625 228.742188 296.300781 228.335938 C 296.984375 227.925781 297.558594 227.386719 298.027344 226.714844 L 298.027344 228.675781 C 297.480469 229.027344 296.949219 229.257812 296.4375 229.367188 C 295.925781 229.472656 295.398438 229.523438 294.867188 229.523438 C 294.347656 229.523438 293.757812 229.445312 293.105469 229.289062 C 292.445312 229.128906 291.886719 228.898438 291.417969 228.609375 C 290.949219 228.308594 290.714844 227.960938 290.714844 227.5625 C 290.714844 227.167969 290.863281 226.855469 291.164062 226.628906 C 291.46875 226.394531 291.820312 226.183594 292.214844 225.996094 C 292.007812 225.878906 291.835938 225.78125 291.699219 225.703125 C 291.5625 225.625 291.453125 225.53125 291.367188 225.417969 C 291.28125 225.308594 291.242188 225.164062 291.242188 224.988281 C 291.242188 224.652344 291.378906 224.371094 291.652344 224.140625 C 291.929688 223.90625 292.277344 223.734375 292.695312 223.617188 C 293.109375 223.492188 293.53125 223.410156 293.960938 223.363281 C 294.390625 223.316406 294.792969 223.292969 295.171875 223.292969 L 295.171875 222.035156 L 290.199219 222.035156 L 290.199219 221.101562 L 298.476562 221.101562 Z M 298.476562 222.035156 " fill-opacity="1" fill-rule="nonzero"/><path fill="rgb(36.859131%, 9.01947%, 92.158508%)" d="M 308.894531 222.035156 L 307.882812 222.035156 L 307.863281 229.621094 L 306.449219 229.007812 L 306.449219 227.90625 C 306.039062 228.4375 305.640625 228.839844 305.257812 229.113281 C 304.878906 229.386719 304.453125 229.523438 303.980469 229.523438 C 303.523438 229.523438 303.015625 229.347656 302.449219 228.988281 C 301.890625 228.625 301.410156 228.160156 301.015625 227.59375 C 300.621094 227.027344 300.421875 226.460938 300.421875 225.898438 C 300.433594 225.691406 300.511719 225.429688 300.644531 225.117188 C 300.78125 224.800781 300.984375 224.480469 301.25 224.160156 C 301.515625 223.835938 301.839844 223.570312 302.214844 223.363281 C 302.589844 223.148438 303.015625 223.039062 303.484375 223.039062 C 304.015625 223.039062 304.476562 223.203125 304.867188 223.527344 C 305.257812 223.847656 305.785156 224.371094 306.449219 225.097656 L 306.449219 222.035156 L 299.808594 222.035156 L 299.808594 221.101562 L 306.449219 221.101562 C 306.449219 220.5625 306.433594 220.113281 306.410156 219.765625 C 306.382812 219.410156 306.304688 219.019531 306.175781 218.59375 C 306.050781 218.171875 305.84375 217.695312 305.550781 217.160156 C 305.257812 216.628906 304.867188 216.035156 304.378906 215.375 C 304.359375 215.375 304.351562 215.335938 304.351562 215.25 C 304.351562 215.191406 304.363281 215.152344 304.390625 215.132812 L 305.871094 215.132812 C 306.363281 215.675781 306.824219 216.394531 307.246094 217.296875 C 307.667969 218.195312 307.882812 219.460938 307.882812 221.101562 L 308.894531 221.101562 Z M 306.078125 225.566406 C 306.078125 225.242188 305.890625 224.921875 305.519531 224.609375 C 305.152344 224.296875 304.707031 224.140625 304.195312 224.140625 C 304 224.140625 303.679688 224.246094 303.238281 224.453125 C 302.804688 224.65625 302.402344 224.957031 302.039062 225.359375 C 301.683594 225.765625 301.503906 226.246094 301.503906 226.804688 C 301.503906 227.335938 301.652344 227.773438 301.953125 228.109375 C 302.257812 228.449219 302.601562 228.617188 302.988281 228.617188 C 303.425781 228.617188 303.886719 228.429688 304.371094 228.050781 C 304.859375 227.675781 305.261719 227.242188 305.589844 226.753906 C 305.914062 226.261719 306.078125 225.867188 306.078125 225.566406 Z M 306.078125 225.566406 " fill-opacity="1" fill-rule="nonzero"/><path fill="rgb(36.859131%, 9.01947%, 92.158508%)" d="M 319.046875 222.035156 L 312.554688 222.035156 L 312.554688 227.007812 C 312.566406 227.375 312.632812 227.71875 312.757812 228.042969 C 312.886719 228.359375 313.074219 228.621094 313.3125 228.820312 C 313.558594 229.015625 313.851562 229.113281 314.183594 229.113281 C 314.660156 229.113281 315.070312 229.007812 315.402344 228.792969 C 315.738281 228.578125 316 228.320312 316.191406 228.011719 C 316.386719 227.699219 316.523438 227.398438 316.601562 227.105469 C 316.683594 226.8125 316.726562 226.578125 316.726562 226.394531 L 316.726562 223.304688 L 318.304688 223.304688 L 318.304688 229.921875 C 318.195312 229.859375 317.960938 229.742188 317.605469 229.582031 C 317.246094 229.425781 316.949219 229.296875 316.714844 229.191406 L 316.714844 228.570312 C 316.445312 228.761719 316.179688 228.9375 315.925781 229.085938 C 315.671875 229.234375 315.414062 229.347656 315.148438 229.417969 C 314.878906 229.488281 314.566406 229.523438 314.210938 229.523438 C 313.6875 229.523438 313.1875 229.390625 312.699219 229.125 C 312.210938 228.851562 311.816406 228.484375 311.519531 228.023438 C 311.21875 227.554688 311.070312 227.046875 311.070312 226.5 L 311.070312 222.035156 L 310.136719 222.035156 L 310.136719 221.101562 L 319.046875 221.101562 Z M 319.046875 222.035156 " fill-opacity="1" fill-rule="nonzero"/><path fill="rgb(32.159424%, 44.309998%, 100%)" d="M 328.792969 222.035156 L 327.171875 222.035156 L 327.171875 224.199219 C 327.503906 224.511719 327.722656 224.734375 327.824219 224.863281 C 327.929688 224.996094 328.050781 225.234375 328.1875 225.585938 L 327.152344 225.585938 C 327.152344 224.988281 326.984375 224.539062 326.644531 224.238281 C 326.308594 223.941406 325.875 223.789062 325.351562 223.789062 C 324.738281 223.789062 324.183594 223.957031 323.683594 224.289062 C 323.1875 224.621094 322.796875 225.039062 322.511719 225.546875 C 322.226562 226.046875 322.082031 226.53125 322.082031 227 C 322.082031 227.285156 322.148438 227.554688 322.277344 227.808594 C 322.414062 228.054688 322.628906 228.257812 322.921875 228.414062 C 323.21875 228.570312 323.605469 228.644531 324.074219 228.644531 C 324.664062 228.644531 325.121094 228.550781 325.445312 228.355469 C 325.769531 228.152344 325.980469 227.988281 326.070312 227.855469 L 327.730469 227.855469 C 327.664062 228.109375 327.488281 228.367188 327.203125 228.625 C 326.921875 228.878906 326.582031 229.09375 326.179688 229.269531 C 325.773438 229.441406 325.40625 229.523438 325.078125 229.523438 C 324.417969 229.523438 323.753906 229.34375 323.085938 228.976562 C 322.425781 228.613281 321.882812 228.148438 321.460938 227.582031 C 321.035156 227.019531 320.824219 226.460938 320.824219 225.917969 C 320.824219 225.605469 320.964844 225.203125 321.246094 224.707031 C 321.53125 224.214844 321.929688 223.785156 322.445312 223.421875 C 322.957031 223.050781 323.542969 222.863281 324.199219 222.863281 C 324.621094 222.863281 324.980469 222.921875 325.28125 223.03125 C 325.578125 223.136719 325.792969 223.234375 325.925781 223.324219 L 325.925781 222.035156 L 320.445312 222.035156 L 320.445312 221.101562 L 328.792969 221.101562 Z M 328.792969 222.035156 " fill-opacity="1" fill-rule="nonzero"/><path fill="rgb(32.159424%, 44.309998%, 100%)" d="M 337.847656 222.035156 L 332.679688 222.035156 L 332.679688 223.273438 C 332.703125 223.273438 332.722656 223.289062 332.738281 223.3125 C 332.75 223.332031 332.765625 223.34375 332.785156 223.34375 C 332.78125 223.34375 332.886719 223.3125 333.109375 223.253906 C 333.328125 223.191406 333.582031 223.132812 333.867188 223.078125 C 334.160156 223.027344 334.445312 223 334.726562 223 C 335.34375 223 335.832031 223.089844 336.191406 223.265625 C 336.546875 223.433594 336.804688 223.675781 336.960938 223.984375 C 337.121094 224.292969 337.21875 224.640625 337.253906 225.027344 C 337.285156 225.414062 337.300781 225.941406 337.300781 226.617188 L 337.300781 229.601562 C 336.902344 229.445312 336.621094 229.332031 336.453125 229.261719 C 336.28125 229.191406 336.152344 229.132812 336.0625 229.09375 C 336.0625 228.933594 336.027344 228.828125 335.964844 228.78125 C 335.792969 228.878906 335.605469 228.988281 335.390625 229.105469 C 335.175781 229.222656 334.894531 229.328125 334.550781 229.417969 C 334.210938 229.503906 333.8125 229.542969 333.34375 229.542969 C 332.894531 229.542969 332.457031 229.464844 332.027344 229.300781 C 331.597656 229.132812 331.25 228.894531 330.984375 228.589844 C 330.714844 228.277344 330.582031 227.925781 330.582031 227.535156 C 330.582031 227.179688 330.75 226.800781 331.082031 226.402344 C 331.417969 226.007812 331.871094 225.679688 332.4375 225.417969 C 333 225.152344 333.617188 225.019531 334.277344 225.019531 C 334.640625 225.019531 334.984375 225.074219 335.3125 225.183594 C 335.644531 225.289062 335.890625 225.40625 336.0625 225.535156 L 336.0625 224.824219 C 335.847656 224.546875 335.640625 224.355469 335.4375 224.257812 C 335.242188 224.15625 334.9375 224.101562 334.523438 224.101562 C 333.976562 224.128906 333.546875 224.179688 333.234375 224.25 C 332.921875 224.316406 332.585938 224.421875 332.222656 224.570312 C 331.863281 224.722656 331.5625 224.835938 331.324219 224.914062 L 331.324219 224.335938 C 331.363281 224.3125 331.414062 224.269531 331.480469 224.210938 C 331.542969 224.152344 331.585938 224.109375 331.605469 224.082031 C 331.632812 224.058594 331.648438 224.042969 331.65625 224.035156 L 331.65625 222.035156 L 330.066406 222.035156 L 330.066406 221.101562 L 337.847656 221.101562 Z M 336.0625 226.949219 C 336.0625 226.710938 335.792969 226.511719 335.261719 226.355469 C 334.730469 226.195312 334.347656 226.113281 334.121094 226.113281 C 333.5625 226.113281 333.050781 226.226562 332.59375 226.460938 C 332.128906 226.695312 331.765625 226.972656 331.5 227.292969 C 331.238281 227.601562 331.109375 227.863281 331.109375 228.0625 C 331.167969 228.277344 331.324219 228.425781 331.578125 228.511719 C 331.832031 228.589844 332.097656 228.625 332.386719 228.625 C 332.914062 228.625 333.402344 228.558594 333.851562 228.421875 C 334.296875 228.28125 334.6875 228.109375 335.019531 227.90625 C 335.355469 227.707031 335.613281 227.511719 335.789062 227.332031 C 335.96875 227.140625 336.0625 227.015625 336.0625 226.949219 Z M 336.0625 226.949219 " fill-opacity="1" fill-rule="nonzero"/><path fill="rgb(32.159424%, 44.309998%, 100%)" d="M 346.265625 222.035156 L 342.34375 222.035156 L 342.34375 228.285156 C 342.34375 228.46875 342.40625 228.644531 342.53125 228.8125 C 342.660156 228.984375 342.796875 229.066406 342.949219 229.066406 C 343.714844 229.066406 344.101562 228.269531 344.101562 226.675781 L 345.660156 227.5625 C 345.40625 228.128906 345.0625 228.601562 344.625 228.976562 C 344.191406 229.355469 343.613281 229.542969 342.902344 229.542969 C 342.542969 229.535156 342.214844 229.445312 341.917969 229.261719 C 341.625 229.074219 341.386719 228.835938 341.203125 228.550781 C 341.027344 228.265625 340.941406 227.980469 340.941406 227.691406 L 340.941406 222.035156 L 339.324219 222.035156 L 339.324219 221.101562 L 340.941406 221.101562 L 340.941406 218.496094 L 342.34375 219.472656 L 342.34375 221.101562 L 346.265625 221.101562 Z M 346.265625 222.035156 " fill-opacity="1" fill-rule="nonzero"/><path fill="rgb(32.159424%, 44.309998%, 100%)" d="M 350.378906 220.289062 C 350.359375 220.308594 350.300781 220.320312 350.203125 220.320312 C 350.117188 220.320312 350.042969 220.308594 349.980469 220.289062 C 349.609375 219.5625 349.371094 219.117188 349.265625 218.953125 C 349.15625 218.800781 349.015625 218.699219 348.839844 218.652344 C 348.664062 218.609375 348.496094 218.5625 348.339844 218.515625 C 348.191406 218.472656 348.070312 218.371094 347.980469 218.214844 C 347.960938 218.183594 347.921875 218.0625 347.863281 217.851562 C 347.804688 217.640625 347.695312 217.390625 347.53125 217.113281 L 347.53125 216.9375 L 347.835938 216.9375 C 348.4375 217.125 348.867188 217.296875 349.121094 217.453125 C 349.375 217.605469 349.535156 217.75 349.609375 217.890625 C 349.679688 218.027344 349.777344 218.320312 349.902344 218.769531 C 350.03125 219.214844 350.183594 219.609375 350.359375 219.960938 C 350.363281 220.003906 350.367188 220.046875 350.367188 220.085938 C 350.375 220.125 350.378906 220.191406 350.378906 220.289062 Z M 350.835938 222.035156 L 347.679688 222.035156 L 347.679688 221.101562 L 350.835938 221.101562 Z M 349.949219 229.699219 L 348.652344 228.976562 L 348.652344 222.992188 L 349.949219 222.992188 Z M 349.949219 229.699219 " fill-opacity="1" fill-rule="nonzero"/><path fill="rgb(32.159424%, 44.309998%, 100%)" d="M 360.640625 222.035156 L 358.894531 222.035156 L 358.894531 224.171875 C 358.894531 224.21875 358.96875 224.308594 359.121094 224.445312 C 359.269531 224.582031 359.398438 224.722656 359.511719 224.863281 C 359.628906 225 359.734375 225.210938 359.832031 225.488281 C 359.933594 225.761719 359.988281 226.097656 359.988281 226.5 C 359.988281 227.054688 359.847656 227.570312 359.570312 228.042969 C 359.289062 228.511719 358.902344 228.878906 358.410156 229.144531 C 357.921875 229.410156 357.378906 229.542969 356.789062 229.542969 C 356.40625 229.542969 355.976562 229.445312 355.503906 229.242188 C 355.035156 229.042969 354.589844 228.761719 354.167969 228.414062 C 353.742188 228.0625 353.402344 227.667969 353.144531 227.222656 C 352.890625 226.78125 352.761719 226.324219 352.761719 225.859375 C 352.761719 225.515625 352.886719 225.121094 353.132812 224.679688 C 353.378906 224.230469 353.738281 223.847656 354.207031 223.527344 C 354.675781 223.203125 355.234375 223.039062 355.894531 223.039062 C 356.257812 223.039062 356.792969 223.136719 357.5 223.324219 C 357.535156 223.324219 357.550781 223.304688 357.550781 223.265625 L 357.550781 222.035156 L 352.226562 222.035156 L 352.226562 221.101562 L 360.640625 221.101562 Z M 358.847656 225.476562 C 358.847656 225.082031 358.746094 224.761719 358.546875 224.523438 C 358.351562 224.277344 358.128906 224.109375 357.882812 224.015625 C 357.632812 223.917969 357.433594 223.867188 357.277344 223.867188 C 357.027344 223.867188 356.714844 223.941406 356.332031 224.082031 C 355.953125 224.226562 355.578125 224.445312 355.199219 224.738281 C 354.832031 225.023438 354.519531 225.386719 354.273438 225.820312 C 354.027344 226.253906 353.902344 226.75 353.902344 227.300781 C 353.902344 227.53125 353.980469 227.75 354.136719 227.964844 C 354.292969 228.179688 354.492188 228.359375 354.742188 228.5 C 354.996094 228.636719 355.253906 228.703125 355.511719 228.703125 C 355.777344 228.703125 356.109375 228.625 356.496094 228.460938 C 356.890625 228.292969 357.269531 228.066406 357.617188 227.777344 C 357.976562 227.484375 358.265625 227.144531 358.496094 226.753906 C 358.730469 226.359375 358.847656 225.933594 358.847656 225.476562 Z M 358.847656 225.476562 " fill-opacity="1" fill-rule="nonzero"/><path fill="rgb(32.159424%, 44.309998%, 100%)" d="M 370.359375 222.035156 L 362.015625 222.035156 L 362.015625 221.101562 L 370.359375 221.101562 Z M 368.691406 225.4375 C 368.691406 224.199219 368.101562 223.578125 366.929688 223.578125 C 366.582031 223.578125 366.230469 223.679688 365.875 223.878906 C 365.515625 224.082031 365.195312 224.359375 364.910156 224.71875 C 364.628906 225.074219 364.402344 225.503906 364.226562 225.996094 C 364.054688 226.480469 363.972656 226.992188 363.972656 227.523438 L 363.972656 229.777344 L 362.695312 229.113281 L 362.695312 223.273438 L 364.03125 223.273438 L 364.03125 224.199219 C 364.140625 224.117188 364.320312 223.976562 364.570312 223.78125 C 364.820312 223.585938 365.125 223.410156 365.484375 223.246094 C 365.847656 223.078125 366.238281 222.992188 366.65625 222.992188 C 367.0625 222.992188 367.457031 223.078125 367.835938 223.253906 C 368.210938 223.429688 368.546875 223.679688 368.839844 223.996094 C 369.136719 224.308594 369.371094 224.679688 369.539062 225.105469 C 369.710938 225.53125 369.792969 225.984375 369.792969 226.472656 C 369.792969 227.027344 369.671875 227.589844 369.433594 228.160156 C 369.199219 228.722656 368.824219 229.289062 368.3125 229.855469 L 366.8125 228.917969 C 366.902344 228.796875 367.074219 228.617188 367.328125 228.382812 C 367.582031 228.144531 367.800781 227.902344 367.992188 227.652344 C 368.1875 227.40625 368.351562 227.101562 368.488281 226.734375 C 368.625 226.371094 368.691406 225.941406 368.691406 225.4375 Z M 368.691406 225.4375 " fill-opacity="1" fill-rule="nonzero"/><path fill="rgb(100%, 100%, 100%)" d="M 294.628906 202.023438 C 294.601562 202.050781 294.53125 202.0625 294.414062 202.0625 C 294.316406 202.0625 294.230469 202.050781 294.160156 202.023438 C 293.710938 201.144531 293.425781 200.613281 293.300781 200.425781 C 293.164062 200.238281 292.992188 200.117188 292.785156 200.0625 C 292.574219 200.003906 292.382812 199.953125 292.199219 199.898438 C 292.019531 199.847656 291.871094 199.722656 291.761719 199.527344 C 291.734375 199.496094 291.6875 199.351562 291.617188 199.097656 C 291.550781 198.84375 291.417969 198.550781 291.214844 198.21875 L 291.214844 198.007812 L 291.585938 198.007812 C 292.308594 198.226562 292.816406 198.433594 293.117188 198.621094 C 293.421875 198.804688 293.617188 198.980469 293.703125 199.148438 C 293.785156 199.316406 293.90625 199.667969 294.0625 200.199219 C 294.21875 200.726562 294.398438 201.203125 294.609375 201.625 C 294.613281 201.675781 294.617188 201.726562 294.617188 201.78125 C 294.625 201.824219 294.628906 201.90625 294.628906 202.023438 Z M 295.175781 204.109375 L 291.390625 204.109375 L 291.390625 203 L 295.175781 203 Z M 294.121094 213.292969 L 292.5625 212.425781 L 292.5625 205.25 L 294.121094 205.25 Z M 294.121094 213.292969 " fill-opacity="1" fill-rule="nonzero"/><path fill="rgb(100%, 100%, 100%)" d="M 305 204.109375 L 295.003906 204.109375 L 295.003906 203 L 305 203 Z M 303 208.195312 C 303 206.707031 302.296875 205.960938 300.894531 205.960938 C 300.484375 205.960938 300.0625 206.085938 299.628906 206.324219 C 299.199219 206.5625 298.8125 206.898438 298.476562 207.328125 C 298.144531 207.757812 297.875 208.269531 297.667969 208.859375 C 297.457031 209.441406 297.355469 210.050781 297.355469 210.679688 L 297.355469 213.382812 L 295.824219 212.582031 L 295.824219 205.601562 L 297.421875 205.601562 L 297.421875 206.703125 C 297.550781 206.605469 297.765625 206.441406 298.066406 206.207031 C 298.371094 205.96875 298.738281 205.746094 299.167969 205.550781 C 299.597656 205.351562 300.0625 205.25 300.5625 205.25 C 301.054688 205.25 301.527344 205.359375 301.976562 205.570312 C 302.429688 205.78125 302.835938 206.078125 303.1875 206.460938 C 303.542969 206.835938 303.820312 207.285156 304.023438 207.796875 C 304.222656 208.300781 304.328125 208.847656 304.328125 209.421875 C 304.328125 210.082031 304.183594 210.753906 303.898438 211.441406 C 303.617188 212.125 303.167969 212.804688 302.542969 213.480469 L 300.757812 212.359375 C 300.867188 212.210938 301.074219 211.992188 301.371094 211.703125 C 301.675781 211.417969 301.941406 211.128906 302.171875 210.835938 C 302.40625 210.542969 302.601562 210.179688 302.757812 209.746094 C 302.917969 209.304688 303 208.789062 303 208.195312 Z M 303 208.195312 " fill-opacity="1" fill-rule="nonzero"/><path fill="rgb(100%, 100%, 100%)" d="M 314.285156 204.109375 L 313.273438 204.109375 L 313.273438 207.628906 C 312.914062 207.421875 312.398438 207.238281 311.730469 207.082031 C 311.0625 206.925781 310.492188 206.847656 310.027344 206.847656 C 309.636719 206.847656 309.167969 206.894531 308.621094 206.984375 C 308.082031 207.078125 307.597656 207.238281 307.167969 207.464844 C 306.738281 207.691406 306.527344 207.988281 306.527344 208.359375 C 306.527344 208.515625 306.585938 208.679688 306.710938 208.847656 C 306.839844 209.019531 307.039062 209.101562 307.304688 209.101562 C 307.589844 209.101562 308.011719 209 308.5625 208.800781 C 309.121094 208.597656 309.53125 208.457031 309.792969 208.378906 C 310.058594 208.300781 310.445312 208.261719 310.953125 208.261719 C 311.433594 208.261719 311.886719 208.351562 312.316406 208.527344 C 312.746094 208.695312 313.085938 208.941406 313.339844 209.265625 C 313.597656 209.585938 313.730469 209.957031 313.730469 210.378906 C 313.730469 210.882812 313.546875 211.335938 313.183594 211.742188 C 312.820312 212.152344 312.378906 212.476562 311.867188 212.710938 C 311.355469 212.9375 310.867188 213.066406 310.40625 213.097656 C 310.855469 213.546875 311.277344 213.773438 311.683594 213.773438 C 311.8125 213.773438 311.949219 213.753906 312.09375 213.714844 L 313.039062 215.246094 C 312.984375 215.289062 312.867188 215.339844 312.679688 215.398438 C 312.488281 215.464844 312.214844 215.496094 311.859375 215.496094 C 311.34375 215.496094 310.953125 215.351562 310.6875 215.058594 C 310.421875 214.765625 310.144531 214.371094 309.859375 213.878906 C 309.578125 213.382812 309.347656 213.136719 309.167969 213.136719 C 308.703125 213.117188 308.246094 213.070312 307.792969 212.992188 C 307.335938 212.914062 306.914062 212.753906 306.527344 212.515625 C 306.136719 212.273438 305.941406 211.945312 305.941406 211.519531 C 305.941406 211.242188 306.035156 211.042969 306.222656 210.925781 C 306.410156 210.804688 306.625 210.738281 306.867188 210.738281 C 307.164062 210.738281 307.402344 210.785156 307.578125 210.867188 C 307.757812 210.953125 307.980469 211.085938 308.242188 211.265625 C 308.507812 211.441406 308.769531 211.574219 309.03125 211.664062 C 309.296875 211.757812 309.65625 211.800781 310.105469 211.800781 C 310.414062 211.800781 310.832031 211.75 311.351562 211.636719 C 311.878906 211.527344 312.339844 211.359375 312.746094 211.140625 C 313.148438 210.921875 313.351562 210.652344 313.351562 210.339844 C 313.351562 210.164062 313.289062 210.027344 313.164062 209.921875 C 313.042969 209.8125 312.898438 209.734375 312.738281 209.695312 C 312.574219 209.652344 312.40625 209.628906 312.238281 209.628906 C 312.003906 209.628906 311.757812 209.664062 311.5 209.734375 C 311.246094 209.800781 310.75 209.933594 310.015625 210.136719 C 309.28125 210.332031 308.828125 210.425781 308.660156 210.425781 C 308.230469 210.425781 307.792969 210.308594 307.34375 210.066406 C 306.894531 209.820312 306.519531 209.480469 306.214844 209.042969 C 305.914062 208.601562 305.761719 208.121094 305.753906 207.601562 C 305.753906 207.035156 305.964844 206.578125 306.390625 206.226562 C 306.8125 205.875 307.316406 205.625 307.898438 205.476562 C 308.492188 205.324219 309.046875 205.25 309.566406 205.25 C 309.917969 205.25 310.355469 205.304688 310.882812 205.417969 C 311.414062 205.527344 311.820312 205.617188 312.09375 205.6875 L 312.09375 204.109375 L 304.703125 204.109375 L 304.703125 203 L 314.285156 203 Z M 314.285156 204.109375 " fill-opacity="1" fill-rule="nonzero"/><path fill="rgb(100%, 100%, 100%)" d="M 322.425781 204.109375 L 317.714844 204.109375 L 317.714844 211.589844 C 317.714844 211.808594 317.789062 212.023438 317.941406 212.230469 C 318.09375 212.433594 318.265625 212.535156 318.445312 212.535156 C 319.367188 212.535156 319.832031 211.578125 319.832031 209.667969 L 321.691406 210.738281 C 321.386719 211.417969 320.972656 211.976562 320.445312 212.425781 C 319.921875 212.875 319.238281 213.097656 318.386719 213.097656 C 317.960938 213.09375 317.5625 212.980469 317.207031 212.757812 C 316.851562 212.539062 316.566406 212.253906 316.359375 211.910156 C 316.148438 211.566406 316.046875 211.226562 316.046875 210.886719 L 316.046875 204.109375 L 314.097656 204.109375 L 314.097656 203 L 316.046875 203 L 316.046875 199.878906 L 317.714844 201.039062 L 317.714844 203 L 322.425781 203 Z M 322.425781 204.109375 " fill-opacity="1" fill-rule="nonzero"/><path fill="rgb(100%, 100%, 100%)" d="M 325.4375 202.023438 C 325.410156 202.050781 325.339844 202.0625 325.222656 202.0625 C 325.125 202.0625 325.039062 202.050781 324.96875 202.023438 C 324.519531 201.144531 324.230469 200.613281 324.109375 200.425781 C 323.972656 200.238281 323.800781 200.117188 323.59375 200.0625 C 323.382812 200.003906 323.1875 199.953125 323.007812 199.898438 C 322.824219 199.847656 322.679688 199.722656 322.570312 199.527344 C 322.542969 199.496094 322.496094 199.351562 322.421875 199.097656 C 322.359375 198.84375 322.226562 198.550781 322.023438 198.21875 L 322.023438 198.007812 L 322.394531 198.007812 C 323.117188 198.226562 323.625 198.433594 323.925781 198.621094 C 324.230469 198.804688 324.425781 198.980469 324.511719 199.148438 C 324.59375 199.316406 324.714844 199.667969 324.871094 200.199219 C 325.027344 200.726562 325.207031 201.203125 325.417969 201.625 C 325.421875 201.675781 325.425781 201.726562 325.425781 201.78125 C 325.429688 201.824219 325.4375 201.90625 325.4375 202.023438 Z M 325.980469 204.109375 L 322.199219 204.109375 L 322.199219 203 L 325.980469 203 Z M 324.929688 213.292969 L 323.371094 212.425781 L 323.371094 205.25 L 324.929688 205.25 Z M 324.929688 213.292969 " fill-opacity="1" fill-rule="nonzero"/><path fill="rgb(100%, 100%, 100%)" d="M 334.140625 204.109375 L 329.429688 204.109375 L 329.429688 211.589844 C 329.429688 211.808594 329.503906 212.023438 329.65625 212.230469 C 329.808594 212.433594 329.980469 212.535156 330.160156 212.535156 C 331.082031 212.535156 331.546875 211.578125 331.546875 209.667969 L 333.410156 210.738281 C 333.101562 211.417969 332.6875 211.976562 332.160156 212.425781 C 331.636719 212.875 330.953125 213.097656 330.101562 213.097656 C 329.675781 213.09375 329.277344 212.980469 328.921875 212.757812 C 328.566406 212.539062 328.28125 212.253906 328.074219 211.910156 C 327.867188 211.566406 327.761719 211.226562 327.761719 210.886719 L 327.761719 204.109375 L 325.8125 204.109375 L 325.8125 203 L 327.761719 203 L 327.761719 199.878906 L 329.429688 201.039062 L 329.429688 203 L 334.140625 203 Z M 334.140625 204.109375 " fill-opacity="1" fill-rule="nonzero"/><path fill="rgb(100%, 100%, 100%)" d="M 344.425781 204.109375 L 336.644531 204.109375 L 336.644531 210.066406 C 336.65625 210.503906 336.738281 210.914062 336.886719 211.304688 C 337.035156 211.691406 337.257812 211.996094 337.550781 212.230469 C 337.84375 212.464844 338.1875 212.582031 338.585938 212.582031 C 339.164062 212.582031 339.648438 212.457031 340.046875 212.203125 C 340.449219 211.945312 340.765625 211.632812 340.992188 211.265625 C 341.226562 210.894531 341.394531 210.535156 341.488281 210.183594 C 341.59375 209.832031 341.644531 209.550781 341.644531 209.335938 L 341.644531 205.640625 L 343.527344 205.640625 L 343.527344 213.558594 C 343.394531 213.480469 343.117188 213.34375 342.6875 213.148438 C 342.261719 212.960938 341.90625 212.804688 341.625 212.679688 L 341.625 211.9375 C 341.300781 212.171875 340.984375 212.378906 340.679688 212.554688 C 340.382812 212.730469 340.070312 212.863281 339.746094 212.953125 C 339.425781 213.039062 339.050781 213.078125 338.625 213.078125 C 338 213.078125 337.394531 212.921875 336.808594 212.601562 C 336.226562 212.277344 335.753906 211.835938 335.394531 211.277344 C 335.046875 210.71875 334.871094 210.113281 334.871094 209.460938 L 334.871094 204.109375 L 333.738281 204.109375 L 333.738281 203 L 344.425781 203 Z M 344.425781 204.109375 " fill-opacity="1" fill-rule="nonzero"/><path fill="rgb(100%, 100%, 100%)" d="M 352.570312 204.109375 L 347.863281 204.109375 L 347.863281 211.589844 C 347.863281 211.808594 347.9375 212.023438 348.085938 212.230469 C 348.242188 212.433594 348.410156 212.535156 348.59375 212.535156 C 349.515625 212.535156 349.976562 211.578125 349.976562 209.667969 L 351.839844 210.738281 C 351.535156 211.417969 351.117188 211.976562 350.59375 212.425781 C 350.070312 212.875 349.386719 213.097656 348.535156 213.097656 C 348.105469 213.09375 347.710938 212.980469 347.355469 212.757812 C 346.996094 212.539062 346.714844 212.253906 346.507812 211.910156 C 346.296875 211.566406 346.195312 211.226562 346.195312 210.886719 L 346.195312 204.109375 L 344.246094 204.109375 L 344.246094 203 L 346.195312 203 L 346.195312 199.878906 L 347.863281 201.039062 L 347.863281 203 L 352.570312 203 Z M 352.570312 204.109375 " fill-opacity="1" fill-rule="nonzero"/><path fill="rgb(100%, 100%, 100%)" d="M 355.585938 202.023438 C 355.558594 202.050781 355.488281 202.0625 355.371094 202.0625 C 355.273438 202.0625 355.1875 202.050781 355.117188 202.023438 C 354.667969 201.144531 354.378906 200.613281 354.257812 200.425781 C 354.121094 200.238281 353.949219 200.117188 353.742188 200.0625 C 353.53125 200.003906 353.335938 199.953125 353.15625 199.898438 C 352.972656 199.847656 352.828125 199.722656 352.71875 199.527344 C 352.691406 199.496094 352.640625 199.351562 352.570312 199.097656 C 352.503906 198.84375 352.375 198.550781 352.171875 198.21875 L 352.171875 198.007812 L 352.542969 198.007812 C 353.265625 198.226562 353.773438 198.433594 354.074219 198.621094 C 354.378906 198.804688 354.574219 198.980469 354.65625 199.148438 C 354.742188 199.316406 354.863281 199.667969 355.019531 200.199219 C 355.175781 200.726562 355.355469 201.203125 355.566406 201.625 C 355.570312 201.675781 355.574219 201.726562 355.574219 201.78125 C 355.578125 201.824219 355.585938 201.90625 355.585938 202.023438 Z M 356.128906 204.109375 L 352.347656 204.109375 L 352.347656 203 L 356.128906 203 Z M 355.078125 213.292969 L 353.515625 212.425781 L 353.515625 205.25 L 355.078125 205.25 Z M 355.078125 213.292969 " fill-opacity="1" fill-rule="nonzero"/><path fill="rgb(100%, 100%, 100%)" d="M 365.972656 204.109375 L 363.886719 204.109375 L 363.886719 206.664062 C 363.886719 206.722656 363.976562 206.835938 364.152344 206.996094 C 364.328125 207.160156 364.484375 207.324219 364.617188 207.492188 C 364.761719 207.664062 364.890625 207.914062 365.007812 208.242188 C 365.128906 208.574219 365.195312 208.980469 365.195312 209.460938 C 365.195312 210.121094 365.023438 210.730469 364.6875 211.296875 C 364.355469 211.859375 363.890625 212.304688 363.300781 212.621094 C 362.71875 212.941406 362.070312 213.097656 361.363281 213.097656 C 360.898438 213.097656 360.386719 212.980469 359.820312 212.75 C 359.257812 212.507812 358.71875 212.179688 358.214844 211.753906 C 357.710938 211.332031 357.304688 210.855469 356.996094 210.332031 C 356.6875 209.796875 356.535156 209.246094 356.535156 208.683594 C 356.535156 208.273438 356.683594 207.800781 356.976562 207.269531 C 357.273438 206.738281 357.703125 206.277344 358.261719 205.894531 C 358.828125 205.503906 359.503906 205.308594 360.289062 205.308594 C 360.71875 205.308594 361.359375 205.421875 362.210938 205.648438 C 362.25 205.648438 362.269531 205.628906 362.269531 205.582031 L 362.269531 204.109375 L 355.894531 204.109375 L 355.894531 203 L 365.972656 203 Z M 363.828125 208.222656 C 363.828125 207.757812 363.707031 207.375 363.46875 207.082031 C 363.226562 206.789062 362.960938 206.589844 362.667969 206.480469 C 362.375 206.363281 362.132812 206.304688 361.9375 206.304688 C 361.644531 206.304688 361.265625 206.390625 360.808594 206.566406 C 360.351562 206.738281 359.898438 206.992188 359.453125 207.335938 C 359.007812 207.683594 358.640625 208.117188 358.351562 208.644531 C 358.058594 209.164062 357.910156 209.753906 357.910156 210.40625 C 357.910156 210.679688 358 210.949219 358.183594 211.207031 C 358.371094 211.46875 358.613281 211.683594 358.90625 211.851562 C 359.203125 212.015625 359.511719 212.09375 359.832031 212.09375 C 360.148438 212.09375 360.542969 211.996094 361.011719 211.800781 C 361.480469 211.601562 361.921875 211.328125 362.347656 210.984375 C 362.777344 210.640625 363.128906 210.234375 363.410156 209.765625 C 363.6875 209.292969 363.828125 208.777344 363.828125 208.222656 Z M 363.828125 208.222656 " fill-opacity="1" fill-rule="nonzero"/><path fill="rgb(100%, 100%, 100%)" d="M 375.699219 204.109375 L 365.707031 204.109375 L 365.707031 203 L 375.699219 203 Z M 373.703125 208.195312 C 373.703125 206.707031 373 205.960938 371.597656 205.960938 C 371.1875 205.960938 370.761719 206.085938 370.328125 206.324219 C 369.898438 206.5625 369.515625 206.898438 369.179688 207.328125 C 368.847656 207.757812 368.574219 208.269531 368.367188 208.859375 C 368.160156 209.441406 368.058594 210.050781 368.058594 210.679688 L 368.058594 213.382812 L 366.527344 212.582031 L 366.527344 205.601562 L 368.125 205.601562 L 368.125 206.703125 C 368.253906 206.605469 368.46875 206.441406 368.769531 206.207031 C 369.074219 205.96875 369.441406 205.746094 369.871094 205.550781 C 370.300781 205.351562 370.761719 205.25 371.265625 205.25 C 371.757812 205.25 372.230469 205.359375 372.679688 205.570312 C 373.132812 205.78125 373.535156 206.078125 373.886719 206.460938 C 374.242188 206.835938 374.523438 207.285156 374.726562 207.796875 C 374.925781 208.300781 375.027344 208.847656 375.027344 209.421875 C 375.027344 210.082031 374.882812 210.753906 374.597656 211.441406 C 374.320312 212.125 373.867188 212.804688 373.242188 213.480469 L 371.460938 212.359375 C 371.570312 212.210938 371.773438 211.992188 372.074219 211.703125 C 372.378906 211.417969 372.644531 211.128906 372.875 210.835938 C 373.109375 210.542969 373.300781 210.179688 373.457031 209.746094 C 373.621094 209.304688 373.703125 208.789062 373.703125 208.195312 Z M 373.703125 208.195312 " fill-opacity="1" fill-rule="nonzero"/><path fill="rgb(100%, 100%, 100%)" d="M 384.628906 204.109375 L 378.4375 204.109375 L 378.4375 205.601562 C 378.46875 205.601562 378.496094 205.617188 378.515625 205.640625 C 378.535156 205.660156 378.554688 205.667969 378.582031 205.667969 C 378.566406 205.667969 378.695312 205.636719 378.960938 205.5625 C 379.226562 205.492188 379.53125 205.425781 379.878906 205.367188 C 380.230469 205.304688 380.566406 205.269531 380.894531 205.269531 C 381.632812 205.269531 382.21875 205.375 382.648438 205.582031 C 383.078125 205.785156 383.382812 206.074219 383.574219 206.449219 C 383.761719 206.820312 383.875 207.238281 383.914062 207.699219 C 383.953125 208.160156 383.972656 208.792969 383.972656 209.597656 L 383.972656 213.175781 C 383.5 212.988281 383.160156 212.851562 382.960938 212.769531 C 382.757812 212.675781 382.605469 212.613281 382.503906 212.574219 C 382.503906 212.371094 382.464844 212.242188 382.386719 212.183594 C 382.175781 212.308594 381.945312 212.4375 381.691406 212.574219 C 381.4375 212.710938 381.109375 212.832031 380.699219 212.941406 C 380.289062 213.046875 379.800781 213.097656 379.234375 213.097656 C 378.695312 213.097656 378.167969 213 377.65625 212.808594 C 377.140625 212.605469 376.726562 212.320312 376.410156 211.949219 C 376.089844 211.578125 375.929688 211.164062 375.929688 210.699219 C 375.929688 210.265625 376.128906 209.8125 376.535156 209.335938 C 376.9375 208.863281 377.476562 208.46875 378.152344 208.15625 C 378.828125 207.84375 379.566406 207.6875 380.367188 207.6875 C 380.796875 207.6875 381.207031 207.753906 381.59375 207.882812 C 381.988281 208.007812 382.292969 208.144531 382.503906 208.300781 L 382.503906 207.445312 C 382.242188 207.113281 381.988281 206.886719 381.75 206.769531 C 381.515625 206.65625 381.148438 206.597656 380.648438 206.597656 C 380 206.621094 379.484375 206.679688 379.109375 206.761719 C 378.738281 206.839844 378.332031 206.972656 377.898438 207.152344 C 377.472656 207.328125 377.113281 207.464844 376.828125 207.5625 L 376.828125 206.867188 C 376.867188 206.835938 376.925781 206.789062 377.003906 206.722656 C 377.085938 206.652344 377.140625 206.601562 377.167969 206.566406 C 377.199219 206.535156 377.21875 206.515625 377.226562 206.507812 L 377.226562 204.109375 L 375.316406 204.109375 L 375.316406 203 L 384.628906 203 Z M 382.503906 210 C 382.503906 209.714844 382.179688 209.476562 381.535156 209.285156 C 380.898438 209.09375 380.445312 208.996094 380.179688 208.996094 C 379.503906 208.996094 378.890625 209.136719 378.339844 209.414062 C 377.785156 209.695312 377.347656 210.027344 377.03125 210.40625 C 376.71875 210.785156 376.5625 211.09375 376.5625 211.335938 C 376.636719 211.589844 376.824219 211.761719 377.128906 211.859375 C 377.433594 211.957031 377.757812 212.007812 378.09375 212.007812 C 378.722656 212.007812 379.304688 211.925781 379.839844 211.761719 C 380.378906 211.59375 380.847656 211.390625 381.246094 211.148438 C 381.644531 210.910156 381.957031 210.679688 382.171875 210.457031 C 382.390625 210.230469 382.503906 210.078125 382.503906 210 Z M 382.503906 210 " fill-opacity="1" fill-rule="nonzero"/><path fill="rgb(100%, 100%, 100%)" d="M 388.695312 204.109375 L 387.710938 204.109375 L 387.710938 203 L 388.695312 203 Z M 385.515625 204.109375 L 384.464844 204.109375 L 384.464844 203 L 385.515625 203 Z M 387.40625 201.875 L 387.40625 213.3125 C 387.382812 213.3125 387.296875 213.277344 387.15625 213.207031 C 387.019531 213.132812 386.855469 213.054688 386.675781 212.960938 C 386.5 212.863281 386.316406 212.773438 386.121094 212.679688 C 385.929688 212.582031 385.828125 212.535156 385.808594 212.535156 L 385.808594 201.886719 C 385.773438 201.152344 385.644531 200.464844 385.417969 199.820312 C 385.195312 199.175781 384.949219 198.640625 384.679688 198.210938 C 384.40625 197.78125 384.109375 197.390625 383.789062 197.03125 C 383.464844 196.675781 383.269531 196.453125 383.195312 196.367188 L 385.175781 196.367188 C 385.703125 196.894531 386.132812 197.5 386.472656 198.183594 C 386.816406 198.859375 387.058594 199.515625 387.195312 200.160156 C 387.335938 200.800781 387.40625 201.371094 387.40625 201.875 Z M 387.40625 201.875 " fill-opacity="1" fill-rule="nonzero"/><path fill="rgb(100%, 100%, 100%)" d="M 404.523438 204.109375 L 401.980469 204.109375 L 401.980469 205.941406 C 402.148438 205.980469 402.285156 206.027344 402.398438 206.078125 C 402.507812 206.132812 402.578125 206.171875 402.613281 206.195312 L 402.613281 207.289062 C 401.878906 207.035156 401.113281 206.90625 400.3125 206.90625 C 399.765625 206.90625 399.175781 207.023438 398.539062 207.25 C 397.898438 207.472656 397.574219 207.816406 397.554688 208.28125 C 397.554688 208.777344 398.253906 209.023438 399.660156 209.023438 C 399.777344 209.023438 399.976562 209.019531 400.261719 209.003906 C 400.546875 208.992188 400.734375 208.980469 400.820312 208.976562 L 400.820312 209.824219 C 400.375 209.835938 399.863281 209.863281 399.277344 209.902344 C 398.695312 209.933594 398.167969 210.046875 397.707031 210.242188 C 397.246094 210.433594 397.015625 210.746094 397.015625 211.179688 C 397.015625 211.535156 397.226562 211.828125 397.652344 212.054688 C 398.078125 212.277344 398.558594 212.386719 399.09375 212.386719 C 400.164062 212.386719 401.105469 212.144531 401.921875 211.65625 C 402.738281 211.164062 403.425781 210.515625 403.976562 209.714844 L 403.976562 212.066406 C 403.320312 212.484375 402.6875 212.753906 402.078125 212.882812 C 401.464844 213.015625 400.839844 213.078125 400.195312 213.078125 C 399.570312 213.078125 398.863281 212.988281 398.078125 212.796875 C 397.300781 212.609375 396.628906 212.335938 396.070312 211.976562 C 395.511719 211.621094 395.234375 211.207031 395.234375 210.738281 C 395.234375 210.257812 395.410156 209.882812 395.769531 209.609375 C 396.132812 209.332031 396.546875 209.078125 397.015625 208.847656 C 396.769531 208.707031 396.5625 208.589844 396.402344 208.496094 C 396.238281 208.40625 396.105469 208.296875 396.003906 208.164062 C 395.90625 208.035156 395.855469 207.863281 395.855469 207.648438 C 395.855469 207.238281 396.023438 206.898438 396.355469 206.625 C 396.683594 206.351562 397.097656 206.144531 397.59375 206 C 398.089844 205.859375 398.597656 205.761719 399.113281 205.707031 C 399.625 205.648438 400.109375 205.621094 400.566406 205.621094 L 400.566406 204.109375 L 394.609375 204.109375 L 394.609375 203 L 404.523438 203 Z M 404.523438 204.109375 " fill-opacity="1" fill-rule="nonzero"/><path fill="rgb(100%, 100%, 100%)" d="M 413.699219 204.109375 L 404.300781 204.109375 L 404.300781 203 L 413.699219 203 Z M 412.929688 207.445312 C 412.929688 207.847656 412.699219 208.261719 412.246094 208.691406 C 411.789062 209.121094 411.40625 209.410156 411.097656 209.558594 L 409.703125 207.980469 C 410.222656 207.929688 410.660156 207.742188 411.019531 207.414062 C 411.375 207.089844 411.554688 206.769531 411.554688 206.449219 C 411.554688 206.320312 411.449219 206.164062 411.242188 205.980469 C 411.039062 205.800781 410.773438 205.707031 410.441406 205.707031 C 410.046875 205.707031 409.589844 205.898438 409.078125 206.273438 C 408.570312 206.644531 408.136719 207.128906 407.78125 207.71875 C 407.429688 208.300781 407.253906 208.890625 407.253906 209.480469 L 407.253906 213.421875 L 405.46875 212.496094 L 405.46875 205.621094 L 407.273438 205.621094 L 407.273438 206.324219 C 407.316406 206.273438 407.5 206.15625 407.808594 205.980469 C 408.128906 205.800781 408.496094 205.636719 408.910156 205.496094 C 409.332031 205.34375 409.761719 205.269531 410.1875 205.269531 C 410.546875 205.269531 410.941406 205.363281 411.367188 205.542969 C 411.804688 205.71875 412.171875 205.976562 412.472656 206.3125 C 412.777344 206.644531 412.929688 207.023438 412.929688 207.445312 Z M 412.929688 207.445312 " fill-opacity="1" fill-rule="nonzero"/><path fill="rgb(100%, 100%, 100%)" d="M 424.078125 204.109375 L 413.421875 204.109375 L 413.421875 203 L 424.078125 203 Z M 423.339844 209.246094 C 423.339844 209.925781 423.132812 210.5625 422.722656 211.160156 C 422.316406 211.757812 421.808594 212.230469 421.203125 212.582031 C 420.597656 212.929688 420.035156 213.097656 419.507812 213.097656 C 419.023438 213.097656 418.511719 212.902344 417.964844 212.515625 C 417.421875 212.125 416.746094 211.554688 415.949219 210.796875 L 415.949219 218.675781 L 414.457031 217.894531 L 414.457031 205.601562 L 415.910156 205.601562 L 415.910156 207.863281 C 416.019531 207.746094 416.203125 207.550781 416.464844 207.269531 C 416.730469 206.992188 417.03125 206.699219 417.371094 206.390625 C 417.714844 206.085938 418.09375 205.816406 418.503906 205.582031 C 418.910156 205.34375 419.292969 205.222656 419.652344 205.222656 C 419.996094 205.222656 420.378906 205.339844 420.804688 205.570312 C 421.226562 205.800781 421.628906 206.105469 422.011719 206.488281 C 422.402344 206.875 422.71875 207.308594 422.96875 207.796875 C 423.214844 208.28125 423.339844 208.769531 423.339844 209.246094 Z M 422.414062 208.175781 C 422.414062 208.027344 422.347656 207.820312 422.226562 207.550781 C 422.109375 207.285156 421.925781 207.042969 421.679688 206.820312 C 421.433594 206.601562 421.128906 206.488281 420.765625 206.488281 C 420.355469 206.488281 419.890625 206.625 419.378906 206.898438 C 418.875 207.171875 418.386719 207.515625 417.925781 207.933594 C 417.472656 208.339844 417.097656 208.761719 416.804688 209.1875 C 416.511719 209.617188 416.367188 209.96875 416.367188 210.242188 C 416.367188 210.4375 416.472656 210.636719 416.6875 210.835938 C 416.902344 211.039062 417.179688 211.210938 417.519531 211.355469 C 417.863281 211.492188 418.203125 211.558594 418.542969 211.558594 C 419.101562 211.558594 419.617188 211.4375 420.101562 211.199219 C 420.589844 210.960938 421 210.660156 421.339844 210.3125 C 421.675781 209.960938 421.9375 209.589844 422.128906 209.199219 C 422.316406 208.808594 422.414062 208.46875 422.414062 208.175781 Z M 422.414062 208.175781 " fill-opacity="1" fill-rule="nonzero"/></svg>